%TF.GenerationSoftware,KiCad,Pcbnew,(5.1.10)-1*%
%TF.CreationDate,2021-09-28T21:44:29-07:00*%
%TF.ProjectId,TomasMendoza,546f6d61-734d-4656-9e64-6f7a612e6b69,rev?*%
%TF.SameCoordinates,Original*%
%TF.FileFunction,Copper,L1,Top*%
%TF.FilePolarity,Positive*%
%FSLAX46Y46*%
G04 Gerber Fmt 4.6, Leading zero omitted, Abs format (unit mm)*
G04 Created by KiCad (PCBNEW (5.1.10)-1) date 2021-09-28 21:44:29*
%MOMM*%
%LPD*%
G01*
G04 APERTURE LIST*
%TA.AperFunction,SMDPad,CuDef*%
%ADD10C,10.200000*%
%TD*%
%TA.AperFunction,SMDPad,CuDef*%
%ADD11R,2.500000X5.100000*%
%TD*%
%TA.AperFunction,ViaPad*%
%ADD12C,0.800000*%
%TD*%
%TA.AperFunction,Conductor*%
%ADD13C,0.250000*%
%TD*%
G04 APERTURE END LIST*
%TO.P,U1,8*%
%TO.N,GND*%
%TA.AperFunction,SMDPad,CuDef*%
G36*
G01*
X167215001Y-104420001D02*
X167215001Y-104120001D01*
G75*
G02*
X167365001Y-103970001I150000J0D01*
G01*
X169015001Y-103970001D01*
G75*
G02*
X169165001Y-104120001I0J-150000D01*
G01*
X169165001Y-104420001D01*
G75*
G02*
X169015001Y-104570001I-150000J0D01*
G01*
X167365001Y-104570001D01*
G75*
G02*
X167215001Y-104420001I0J150000D01*
G01*
G37*
%TD.AperFunction*%
%TO.P,U1,7*%
%TO.N,Net-(D1-Pad2)*%
%TA.AperFunction,SMDPad,CuDef*%
G36*
G01*
X167215001Y-105690001D02*
X167215001Y-105390001D01*
G75*
G02*
X167365001Y-105240001I150000J0D01*
G01*
X169015001Y-105240001D01*
G75*
G02*
X169165001Y-105390001I0J-150000D01*
G01*
X169165001Y-105690001D01*
G75*
G02*
X169015001Y-105840001I-150000J0D01*
G01*
X167365001Y-105840001D01*
G75*
G02*
X167215001Y-105690001I0J150000D01*
G01*
G37*
%TD.AperFunction*%
%TO.P,U1,6*%
%TO.N,GND*%
%TA.AperFunction,SMDPad,CuDef*%
G36*
G01*
X167215001Y-106960001D02*
X167215001Y-106660001D01*
G75*
G02*
X167365001Y-106510001I150000J0D01*
G01*
X169015001Y-106510001D01*
G75*
G02*
X169165001Y-106660001I0J-150000D01*
G01*
X169165001Y-106960001D01*
G75*
G02*
X169015001Y-107110001I-150000J0D01*
G01*
X167365001Y-107110001D01*
G75*
G02*
X167215001Y-106960001I0J150000D01*
G01*
G37*
%TD.AperFunction*%
%TO.P,U1,5*%
%TO.N,Net-(C2-Pad1)*%
%TA.AperFunction,SMDPad,CuDef*%
G36*
G01*
X167215001Y-108230001D02*
X167215001Y-107930001D01*
G75*
G02*
X167365001Y-107780001I150000J0D01*
G01*
X169015001Y-107780001D01*
G75*
G02*
X169165001Y-107930001I0J-150000D01*
G01*
X169165001Y-108230001D01*
G75*
G02*
X169015001Y-108380001I-150000J0D01*
G01*
X167365001Y-108380001D01*
G75*
G02*
X167215001Y-108230001I0J150000D01*
G01*
G37*
%TD.AperFunction*%
%TO.P,U1,4*%
%TO.N,GND*%
%TA.AperFunction,SMDPad,CuDef*%
G36*
G01*
X162265001Y-108230001D02*
X162265001Y-107930001D01*
G75*
G02*
X162415001Y-107780001I150000J0D01*
G01*
X164065001Y-107780001D01*
G75*
G02*
X164215001Y-107930001I0J-150000D01*
G01*
X164215001Y-108230001D01*
G75*
G02*
X164065001Y-108380001I-150000J0D01*
G01*
X162415001Y-108380001D01*
G75*
G02*
X162265001Y-108230001I0J150000D01*
G01*
G37*
%TD.AperFunction*%
%TO.P,U1,3*%
%TO.N,Net-(D1-Pad2)*%
%TA.AperFunction,SMDPad,CuDef*%
G36*
G01*
X162265001Y-106960001D02*
X162265001Y-106660001D01*
G75*
G02*
X162415001Y-106510001I150000J0D01*
G01*
X164065001Y-106510001D01*
G75*
G02*
X164215001Y-106660001I0J-150000D01*
G01*
X164215001Y-106960001D01*
G75*
G02*
X164065001Y-107110001I-150000J0D01*
G01*
X162415001Y-107110001D01*
G75*
G02*
X162265001Y-106960001I0J150000D01*
G01*
G37*
%TD.AperFunction*%
%TO.P,U1,2*%
%TO.N,GND*%
%TA.AperFunction,SMDPad,CuDef*%
G36*
G01*
X162265001Y-105690001D02*
X162265001Y-105390001D01*
G75*
G02*
X162415001Y-105240001I150000J0D01*
G01*
X164065001Y-105240001D01*
G75*
G02*
X164215001Y-105390001I0J-150000D01*
G01*
X164215001Y-105690001D01*
G75*
G02*
X164065001Y-105840001I-150000J0D01*
G01*
X162415001Y-105840001D01*
G75*
G02*
X162265001Y-105690001I0J150000D01*
G01*
G37*
%TD.AperFunction*%
%TO.P,U1,1*%
%TA.AperFunction,SMDPad,CuDef*%
G36*
G01*
X162265001Y-104420001D02*
X162265001Y-104120001D01*
G75*
G02*
X162415001Y-103970001I150000J0D01*
G01*
X164065001Y-103970001D01*
G75*
G02*
X164215001Y-104120001I0J-150000D01*
G01*
X164215001Y-104420001D01*
G75*
G02*
X164065001Y-104570001I-150000J0D01*
G01*
X162415001Y-104570001D01*
G75*
G02*
X162265001Y-104420001I0J150000D01*
G01*
G37*
%TD.AperFunction*%
%TD*%
D10*
%TO.P,BT1,2*%
%TO.N,Net-(BT1-Pad2)*%
X151615001Y-95675001D03*
D11*
%TO.P,BT1,1*%
%TO.N,GND*%
X159215001Y-95675001D03*
X144015001Y-95675001D03*
%TD*%
%TO.P,BT2,1*%
%TO.N,Net-(BT1-Pad2)*%
X144015001Y-110225001D03*
X159215001Y-110225001D03*
D10*
%TO.P,BT2,2*%
%TO.N,Net-(BT2-Pad2)*%
X151615001Y-110225001D03*
%TD*%
%TO.P,C1,1*%
%TO.N,GND*%
%TA.AperFunction,SMDPad,CuDef*%
G36*
G01*
X182015001Y-90380001D02*
X182015001Y-89430001D01*
G75*
G02*
X182265001Y-89180001I250000J0D01*
G01*
X182765001Y-89180001D01*
G75*
G02*
X183015001Y-89430001I0J-250000D01*
G01*
X183015001Y-90380001D01*
G75*
G02*
X182765001Y-90630001I-250000J0D01*
G01*
X182265001Y-90630001D01*
G75*
G02*
X182015001Y-90380001I0J250000D01*
G01*
G37*
%TD.AperFunction*%
%TO.P,C1,2*%
%TA.AperFunction,SMDPad,CuDef*%
G36*
G01*
X183915001Y-90380001D02*
X183915001Y-89430001D01*
G75*
G02*
X184165001Y-89180001I250000J0D01*
G01*
X184665001Y-89180001D01*
G75*
G02*
X184915001Y-89430001I0J-250000D01*
G01*
X184915001Y-90380001D01*
G75*
G02*
X184665001Y-90630001I-250000J0D01*
G01*
X184165001Y-90630001D01*
G75*
G02*
X183915001Y-90380001I0J250000D01*
G01*
G37*
%TD.AperFunction*%
%TD*%
%TO.P,C2,2*%
%TO.N,GND*%
%TA.AperFunction,SMDPad,CuDef*%
G36*
G01*
X164165001Y-111380001D02*
X164165001Y-110430001D01*
G75*
G02*
X164415001Y-110180001I250000J0D01*
G01*
X164915001Y-110180001D01*
G75*
G02*
X165165001Y-110430001I0J-250000D01*
G01*
X165165001Y-111380001D01*
G75*
G02*
X164915001Y-111630001I-250000J0D01*
G01*
X164415001Y-111630001D01*
G75*
G02*
X164165001Y-111380001I0J250000D01*
G01*
G37*
%TD.AperFunction*%
%TO.P,C2,1*%
%TO.N,Net-(C2-Pad1)*%
%TA.AperFunction,SMDPad,CuDef*%
G36*
G01*
X162265001Y-111380001D02*
X162265001Y-110430001D01*
G75*
G02*
X162515001Y-110180001I250000J0D01*
G01*
X163015001Y-110180001D01*
G75*
G02*
X163265001Y-110430001I0J-250000D01*
G01*
X163265001Y-111380001D01*
G75*
G02*
X163015001Y-111630001I-250000J0D01*
G01*
X162515001Y-111630001D01*
G75*
G02*
X162265001Y-111380001I0J250000D01*
G01*
G37*
%TD.AperFunction*%
%TD*%
%TO.P,D1,2*%
%TO.N,Net-(D1-Pad2)*%
%TA.AperFunction,SMDPad,CuDef*%
G36*
G01*
X172635001Y-104926251D02*
X172635001Y-104013751D01*
G75*
G02*
X172878751Y-103770001I243750J0D01*
G01*
X173366251Y-103770001D01*
G75*
G02*
X173610001Y-104013751I0J-243750D01*
G01*
X173610001Y-104926251D01*
G75*
G02*
X173366251Y-105170001I-243750J0D01*
G01*
X172878751Y-105170001D01*
G75*
G02*
X172635001Y-104926251I0J243750D01*
G01*
G37*
%TD.AperFunction*%
%TO.P,D1,1*%
%TO.N,GND*%
%TA.AperFunction,SMDPad,CuDef*%
G36*
G01*
X170760001Y-104926251D02*
X170760001Y-104013751D01*
G75*
G02*
X171003751Y-103770001I243750J0D01*
G01*
X171491251Y-103770001D01*
G75*
G02*
X171735001Y-104013751I0J-243750D01*
G01*
X171735001Y-104926251D01*
G75*
G02*
X171491251Y-105170001I-243750J0D01*
G01*
X171003751Y-105170001D01*
G75*
G02*
X170760001Y-104926251I0J243750D01*
G01*
G37*
%TD.AperFunction*%
%TD*%
%TO.P,R1,2*%
%TO.N,Net-(D1-Pad2)*%
%TA.AperFunction,SMDPad,CuDef*%
G36*
G01*
X183845001Y-93335002D02*
X183845001Y-92435000D01*
G75*
G02*
X184095000Y-92185001I249999J0D01*
G01*
X184620002Y-92185001D01*
G75*
G02*
X184870001Y-92435000I0J-249999D01*
G01*
X184870001Y-93335002D01*
G75*
G02*
X184620002Y-93585001I-249999J0D01*
G01*
X184095000Y-93585001D01*
G75*
G02*
X183845001Y-93335002I0J249999D01*
G01*
G37*
%TD.AperFunction*%
%TO.P,R1,1*%
%TO.N,GND*%
%TA.AperFunction,SMDPad,CuDef*%
G36*
G01*
X182020001Y-93335002D02*
X182020001Y-92435000D01*
G75*
G02*
X182270000Y-92185001I249999J0D01*
G01*
X182795002Y-92185001D01*
G75*
G02*
X183045001Y-92435000I0J-249999D01*
G01*
X183045001Y-93335002D01*
G75*
G02*
X182795002Y-93585001I-249999J0D01*
G01*
X182270000Y-93585001D01*
G75*
G02*
X182020001Y-93335002I0J249999D01*
G01*
G37*
%TD.AperFunction*%
%TD*%
%TO.P,R2,1*%
%TO.N,Net-(D1-Pad2)*%
%TA.AperFunction,SMDPad,CuDef*%
G36*
G01*
X186470001Y-90325002D02*
X186470001Y-89425000D01*
G75*
G02*
X186720000Y-89175001I249999J0D01*
G01*
X187245002Y-89175001D01*
G75*
G02*
X187495001Y-89425000I0J-249999D01*
G01*
X187495001Y-90325002D01*
G75*
G02*
X187245002Y-90575001I-249999J0D01*
G01*
X186720000Y-90575001D01*
G75*
G02*
X186470001Y-90325002I0J249999D01*
G01*
G37*
%TD.AperFunction*%
%TO.P,R2,2*%
%TO.N,GND*%
%TA.AperFunction,SMDPad,CuDef*%
G36*
G01*
X188295001Y-90325002D02*
X188295001Y-89425000D01*
G75*
G02*
X188545000Y-89175001I249999J0D01*
G01*
X189070002Y-89175001D01*
G75*
G02*
X189320001Y-89425000I0J-249999D01*
G01*
X189320001Y-90325002D01*
G75*
G02*
X189070002Y-90575001I-249999J0D01*
G01*
X188545000Y-90575001D01*
G75*
G02*
X188295001Y-90325002I0J249999D01*
G01*
G37*
%TD.AperFunction*%
%TD*%
D12*
%TO.N,Net-(BT2-Pad2)*%
X163765001Y-95949999D03*
%TO.N,GND*%
X171365001Y-95675001D03*
%TD*%
D13*
%TO.N,GND*%
X159215001Y-92875001D02*
X159215001Y-95675001D01*
X156590000Y-90250000D02*
X159215001Y-92875001D01*
X146640002Y-90250000D02*
X156590000Y-90250000D01*
X144015001Y-92875001D02*
X146640002Y-90250000D01*
X144015001Y-95675001D02*
X144015001Y-92875001D01*
X159215001Y-95675001D02*
X159215001Y-84285001D01*
X159215001Y-84285001D02*
X158410002Y-85090000D01*
X158410002Y-85090000D02*
X143510000Y-85090000D01*
X143510000Y-85090000D02*
X138430000Y-90170000D01*
X138430000Y-90170000D02*
X138430000Y-120650000D01*
X138430000Y-120650000D02*
X160020000Y-120650000D01*
X160020000Y-120650000D02*
X160020000Y-118110000D01*
X161939991Y-109380011D02*
X163240001Y-108080001D01*
X161939991Y-116190009D02*
X161939991Y-109380011D01*
X160020000Y-118110000D02*
X161939991Y-116190009D01*
X162265001Y-105540001D02*
X163240001Y-105540001D01*
X161939991Y-105865011D02*
X162265001Y-105540001D01*
X161939991Y-107754991D02*
X161939991Y-105865011D01*
X162265001Y-108080001D02*
X161939991Y-107754991D01*
X163240001Y-108080001D02*
X162265001Y-108080001D01*
X163884991Y-104895011D02*
X163240001Y-105540001D01*
X167564991Y-104895011D02*
X163884991Y-104895011D01*
X168190001Y-104270001D02*
X167564991Y-104895011D01*
X183570011Y-88849991D02*
X187782491Y-88849991D01*
X187782491Y-88849991D02*
X188807501Y-89875001D01*
X182515001Y-89905001D02*
X183570011Y-88849991D01*
X184903181Y-90955011D02*
X184462491Y-90955011D01*
X184903181Y-88854991D02*
X185240011Y-89191821D01*
X184462491Y-90955011D02*
X182532501Y-92885001D01*
X185240011Y-90618181D02*
X184903181Y-90955011D01*
X183565011Y-88854991D02*
X184903181Y-88854991D01*
X182515001Y-89905001D02*
X183565011Y-88854991D01*
X169015011Y-103444991D02*
X168190001Y-104270001D01*
X171624013Y-103444991D02*
X169015011Y-103444991D01*
X176790002Y-98279002D02*
X171624013Y-103444991D01*
X181935000Y-92800000D02*
X177455000Y-92800000D01*
X182020001Y-92885001D02*
X181935000Y-92800000D01*
X182532501Y-92885001D02*
X182020001Y-92885001D01*
X176790002Y-93464998D02*
X176790002Y-98279002D01*
%TO.N,Net-(BT1-Pad2)*%
X144015001Y-103275001D02*
X144015001Y-110225001D01*
X151615001Y-95675001D02*
X144015001Y-103275001D01*
X159215001Y-113025001D02*
X159215001Y-110225001D01*
X144015001Y-113025001D02*
X144015001Y-110225001D01*
X148060001Y-117070001D02*
X144015001Y-113025001D01*
X155170001Y-117070001D02*
X148060001Y-117070001D01*
X155170001Y-117070001D02*
X159215001Y-113025001D01*
%TO.N,Net-(BT2-Pad2)*%
X163765001Y-98075001D02*
X163765001Y-95949999D01*
X151615001Y-110225001D02*
X163765001Y-98075001D01*
X163765001Y-95949999D02*
X163765001Y-95675001D01*
%TO.N,GND*%
X184415001Y-89905001D02*
X183916170Y-90403830D01*
X175180011Y-91859991D02*
X171365001Y-95675001D01*
X183916170Y-90403830D02*
X182460009Y-91859991D01*
X171247501Y-103821503D02*
X171624013Y-103444991D01*
X171247501Y-104470001D02*
X171247501Y-103821503D01*
X183916170Y-90408690D02*
X184462491Y-90955011D01*
X183916170Y-90403830D02*
X183916170Y-90408690D01*
X162218243Y-107435011D02*
X167564991Y-107435011D01*
X161939991Y-107156759D02*
X162218243Y-107435011D01*
X161939991Y-106463243D02*
X161939991Y-107156759D01*
X163508223Y-104895011D02*
X161939991Y-106463243D01*
X167564991Y-107435011D02*
X168190001Y-106810001D01*
X167564991Y-104895011D02*
X163508223Y-104895011D01*
X163240001Y-104626789D02*
X163508223Y-104895011D01*
X163240001Y-104270001D02*
X163240001Y-104626789D01*
X164303191Y-110905001D02*
X164665001Y-110905001D01*
X162778201Y-109380011D02*
X164303191Y-110905001D01*
X161939991Y-109380011D02*
X162778201Y-109380011D01*
X177455000Y-92800000D02*
X176790002Y-93464998D01*
X182460009Y-91859991D02*
X175180011Y-91859991D01*
X185240011Y-89191821D02*
X185240011Y-90618181D01*
X171365001Y-95675001D02*
X171365001Y-95675001D01*
%TO.N,Net-(C2-Pad1)*%
X162765001Y-110905001D02*
X166160000Y-114300000D01*
X166160000Y-110110002D02*
X168190001Y-108080001D01*
X166160000Y-114300000D02*
X166160000Y-110110002D01*
%TO.N,Net-(D1-Pad2)*%
X165485001Y-105540001D02*
X168190001Y-105540001D01*
X164215001Y-106810001D02*
X165485001Y-105540001D01*
X163240001Y-106810001D02*
X164215001Y-106810001D01*
X172751851Y-104470001D02*
X173122501Y-104470001D01*
X171681851Y-105540001D02*
X172751851Y-104470001D01*
X168190001Y-105540001D02*
X171681851Y-105540001D01*
X184357501Y-94667503D02*
X184357501Y-92885001D01*
X173122501Y-104470001D02*
X174555003Y-104470001D01*
X186982501Y-90260001D02*
X186982501Y-89875001D01*
X184357501Y-92885001D02*
X186982501Y-90260001D01*
X174555003Y-104470001D02*
X184357501Y-94667503D01*
%TD*%
M02*
