%TF.GenerationSoftware,KiCad,Pcbnew,(5.1.10)-1*%
%TF.CreationDate,2021-09-28T21:44:29-07:00*%
%TF.ProjectId,TomasMendoza,546f6d61-734d-4656-9e64-6f7a612e6b69,rev?*%
%TF.SameCoordinates,Original*%
%TF.FileFunction,Paste,Top*%
%TF.FilePolarity,Positive*%
%FSLAX46Y46*%
G04 Gerber Fmt 4.6, Leading zero omitted, Abs format (unit mm)*
G04 Created by KiCad (PCBNEW (5.1.10)-1) date 2021-09-28 21:44:29*
%MOMM*%
%LPD*%
G01*
G04 APERTURE LIST*
%ADD10R,2.500000X5.100000*%
G04 APERTURE END LIST*
%TO.C,U1*%
G36*
G01*
X167215001Y-104420001D02*
X167215001Y-104120001D01*
G75*
G02*
X167365001Y-103970001I150000J0D01*
G01*
X169015001Y-103970001D01*
G75*
G02*
X169165001Y-104120001I0J-150000D01*
G01*
X169165001Y-104420001D01*
G75*
G02*
X169015001Y-104570001I-150000J0D01*
G01*
X167365001Y-104570001D01*
G75*
G02*
X167215001Y-104420001I0J150000D01*
G01*
G37*
G36*
G01*
X167215001Y-105690001D02*
X167215001Y-105390001D01*
G75*
G02*
X167365001Y-105240001I150000J0D01*
G01*
X169015001Y-105240001D01*
G75*
G02*
X169165001Y-105390001I0J-150000D01*
G01*
X169165001Y-105690001D01*
G75*
G02*
X169015001Y-105840001I-150000J0D01*
G01*
X167365001Y-105840001D01*
G75*
G02*
X167215001Y-105690001I0J150000D01*
G01*
G37*
G36*
G01*
X167215001Y-106960001D02*
X167215001Y-106660001D01*
G75*
G02*
X167365001Y-106510001I150000J0D01*
G01*
X169015001Y-106510001D01*
G75*
G02*
X169165001Y-106660001I0J-150000D01*
G01*
X169165001Y-106960001D01*
G75*
G02*
X169015001Y-107110001I-150000J0D01*
G01*
X167365001Y-107110001D01*
G75*
G02*
X167215001Y-106960001I0J150000D01*
G01*
G37*
G36*
G01*
X167215001Y-108230001D02*
X167215001Y-107930001D01*
G75*
G02*
X167365001Y-107780001I150000J0D01*
G01*
X169015001Y-107780001D01*
G75*
G02*
X169165001Y-107930001I0J-150000D01*
G01*
X169165001Y-108230001D01*
G75*
G02*
X169015001Y-108380001I-150000J0D01*
G01*
X167365001Y-108380001D01*
G75*
G02*
X167215001Y-108230001I0J150000D01*
G01*
G37*
G36*
G01*
X162265001Y-108230001D02*
X162265001Y-107930001D01*
G75*
G02*
X162415001Y-107780001I150000J0D01*
G01*
X164065001Y-107780001D01*
G75*
G02*
X164215001Y-107930001I0J-150000D01*
G01*
X164215001Y-108230001D01*
G75*
G02*
X164065001Y-108380001I-150000J0D01*
G01*
X162415001Y-108380001D01*
G75*
G02*
X162265001Y-108230001I0J150000D01*
G01*
G37*
G36*
G01*
X162265001Y-106960001D02*
X162265001Y-106660001D01*
G75*
G02*
X162415001Y-106510001I150000J0D01*
G01*
X164065001Y-106510001D01*
G75*
G02*
X164215001Y-106660001I0J-150000D01*
G01*
X164215001Y-106960001D01*
G75*
G02*
X164065001Y-107110001I-150000J0D01*
G01*
X162415001Y-107110001D01*
G75*
G02*
X162265001Y-106960001I0J150000D01*
G01*
G37*
G36*
G01*
X162265001Y-105690001D02*
X162265001Y-105390001D01*
G75*
G02*
X162415001Y-105240001I150000J0D01*
G01*
X164065001Y-105240001D01*
G75*
G02*
X164215001Y-105390001I0J-150000D01*
G01*
X164215001Y-105690001D01*
G75*
G02*
X164065001Y-105840001I-150000J0D01*
G01*
X162415001Y-105840001D01*
G75*
G02*
X162265001Y-105690001I0J150000D01*
G01*
G37*
G36*
G01*
X162265001Y-104420001D02*
X162265001Y-104120001D01*
G75*
G02*
X162415001Y-103970001I150000J0D01*
G01*
X164065001Y-103970001D01*
G75*
G02*
X164215001Y-104120001I0J-150000D01*
G01*
X164215001Y-104420001D01*
G75*
G02*
X164065001Y-104570001I-150000J0D01*
G01*
X162415001Y-104570001D01*
G75*
G02*
X162265001Y-104420001I0J150000D01*
G01*
G37*
%TD*%
D10*
%TO.C,BT1*%
X159215001Y-95675001D03*
X144015001Y-95675001D03*
%TD*%
%TO.C,BT2*%
X144015001Y-110225001D03*
X159215001Y-110225001D03*
%TD*%
%TO.C,C1*%
G36*
G01*
X182015001Y-90380001D02*
X182015001Y-89430001D01*
G75*
G02*
X182265001Y-89180001I250000J0D01*
G01*
X182765001Y-89180001D01*
G75*
G02*
X183015001Y-89430001I0J-250000D01*
G01*
X183015001Y-90380001D01*
G75*
G02*
X182765001Y-90630001I-250000J0D01*
G01*
X182265001Y-90630001D01*
G75*
G02*
X182015001Y-90380001I0J250000D01*
G01*
G37*
G36*
G01*
X183915001Y-90380001D02*
X183915001Y-89430001D01*
G75*
G02*
X184165001Y-89180001I250000J0D01*
G01*
X184665001Y-89180001D01*
G75*
G02*
X184915001Y-89430001I0J-250000D01*
G01*
X184915001Y-90380001D01*
G75*
G02*
X184665001Y-90630001I-250000J0D01*
G01*
X184165001Y-90630001D01*
G75*
G02*
X183915001Y-90380001I0J250000D01*
G01*
G37*
%TD*%
%TO.C,C2*%
G36*
G01*
X164165001Y-111380001D02*
X164165001Y-110430001D01*
G75*
G02*
X164415001Y-110180001I250000J0D01*
G01*
X164915001Y-110180001D01*
G75*
G02*
X165165001Y-110430001I0J-250000D01*
G01*
X165165001Y-111380001D01*
G75*
G02*
X164915001Y-111630001I-250000J0D01*
G01*
X164415001Y-111630001D01*
G75*
G02*
X164165001Y-111380001I0J250000D01*
G01*
G37*
G36*
G01*
X162265001Y-111380001D02*
X162265001Y-110430001D01*
G75*
G02*
X162515001Y-110180001I250000J0D01*
G01*
X163015001Y-110180001D01*
G75*
G02*
X163265001Y-110430001I0J-250000D01*
G01*
X163265001Y-111380001D01*
G75*
G02*
X163015001Y-111630001I-250000J0D01*
G01*
X162515001Y-111630001D01*
G75*
G02*
X162265001Y-111380001I0J250000D01*
G01*
G37*
%TD*%
%TO.C,D1*%
G36*
G01*
X172635001Y-104926251D02*
X172635001Y-104013751D01*
G75*
G02*
X172878751Y-103770001I243750J0D01*
G01*
X173366251Y-103770001D01*
G75*
G02*
X173610001Y-104013751I0J-243750D01*
G01*
X173610001Y-104926251D01*
G75*
G02*
X173366251Y-105170001I-243750J0D01*
G01*
X172878751Y-105170001D01*
G75*
G02*
X172635001Y-104926251I0J243750D01*
G01*
G37*
G36*
G01*
X170760001Y-104926251D02*
X170760001Y-104013751D01*
G75*
G02*
X171003751Y-103770001I243750J0D01*
G01*
X171491251Y-103770001D01*
G75*
G02*
X171735001Y-104013751I0J-243750D01*
G01*
X171735001Y-104926251D01*
G75*
G02*
X171491251Y-105170001I-243750J0D01*
G01*
X171003751Y-105170001D01*
G75*
G02*
X170760001Y-104926251I0J243750D01*
G01*
G37*
%TD*%
%TO.C,R1*%
G36*
G01*
X183845001Y-93335002D02*
X183845001Y-92435000D01*
G75*
G02*
X184095000Y-92185001I249999J0D01*
G01*
X184620002Y-92185001D01*
G75*
G02*
X184870001Y-92435000I0J-249999D01*
G01*
X184870001Y-93335002D01*
G75*
G02*
X184620002Y-93585001I-249999J0D01*
G01*
X184095000Y-93585001D01*
G75*
G02*
X183845001Y-93335002I0J249999D01*
G01*
G37*
G36*
G01*
X182020001Y-93335002D02*
X182020001Y-92435000D01*
G75*
G02*
X182270000Y-92185001I249999J0D01*
G01*
X182795002Y-92185001D01*
G75*
G02*
X183045001Y-92435000I0J-249999D01*
G01*
X183045001Y-93335002D01*
G75*
G02*
X182795002Y-93585001I-249999J0D01*
G01*
X182270000Y-93585001D01*
G75*
G02*
X182020001Y-93335002I0J249999D01*
G01*
G37*
%TD*%
%TO.C,R2*%
G36*
G01*
X186470001Y-90325002D02*
X186470001Y-89425000D01*
G75*
G02*
X186720000Y-89175001I249999J0D01*
G01*
X187245002Y-89175001D01*
G75*
G02*
X187495001Y-89425000I0J-249999D01*
G01*
X187495001Y-90325002D01*
G75*
G02*
X187245002Y-90575001I-249999J0D01*
G01*
X186720000Y-90575001D01*
G75*
G02*
X186470001Y-90325002I0J249999D01*
G01*
G37*
G36*
G01*
X188295001Y-90325002D02*
X188295001Y-89425000D01*
G75*
G02*
X188545000Y-89175001I249999J0D01*
G01*
X189070002Y-89175001D01*
G75*
G02*
X189320001Y-89425000I0J-249999D01*
G01*
X189320001Y-90325002D01*
G75*
G02*
X189070002Y-90575001I-249999J0D01*
G01*
X188545000Y-90575001D01*
G75*
G02*
X188295001Y-90325002I0J249999D01*
G01*
G37*
%TD*%
M02*
