%TF.GenerationSoftware,KiCad,Pcbnew,(5.1.10)-1*%
%TF.CreationDate,2021-09-28T21:44:29-07:00*%
%TF.ProjectId,TomasMendoza,546f6d61-734d-4656-9e64-6f7a612e6b69,rev?*%
%TF.SameCoordinates,Original*%
%TF.FileFunction,Legend,Top*%
%TF.FilePolarity,Positive*%
%FSLAX46Y46*%
G04 Gerber Fmt 4.6, Leading zero omitted, Abs format (unit mm)*
G04 Created by KiCad (PCBNEW (5.1.10)-1) date 2021-09-28 21:44:29*
%MOMM*%
%LPD*%
G01*
G04 APERTURE LIST*
%ADD10C,0.120000*%
%ADD11C,0.150000*%
G04 APERTURE END LIST*
D10*
%TO.C,U1*%
X165715001Y-103615001D02*
X162265001Y-103615001D01*
X165715001Y-103615001D02*
X167665001Y-103615001D01*
X165715001Y-108735001D02*
X163765001Y-108735001D01*
X165715001Y-108735001D02*
X167665001Y-108735001D01*
%TO.C,BT1*%
X145065001Y-92925001D02*
X146715001Y-91275001D01*
X156515001Y-91275001D02*
X158165001Y-92925001D01*
X156515001Y-91275001D02*
X154615001Y-91275001D01*
X146715001Y-91275001D02*
X148615001Y-91275001D01*
X145065001Y-98525001D02*
X146215001Y-99875001D01*
X158165001Y-98525001D02*
X157015001Y-99875001D01*
X149110903Y-100372608D02*
G75*
G02*
X146215001Y-99875001I-1095902J2297607D01*
G01*
X154116695Y-100371459D02*
G75*
G03*
X157015001Y-99875001I1098306J2296458D01*
G01*
%TO.C,BT2*%
X158165001Y-113075001D02*
X157015001Y-114425001D01*
X145065001Y-113075001D02*
X146215001Y-114425001D01*
X146715001Y-105825001D02*
X148615001Y-105825001D01*
X156515001Y-105825001D02*
X154615001Y-105825001D01*
X156515001Y-105825001D02*
X158165001Y-107475001D01*
X145065001Y-107475001D02*
X146715001Y-105825001D01*
X154116695Y-114921459D02*
G75*
G03*
X157015001Y-114425001I1098306J2296458D01*
G01*
X149110903Y-114922608D02*
G75*
G02*
X146215001Y-114425001I-1095902J2297607D01*
G01*
%TO.C,C1*%
X183203749Y-89170001D02*
X183726253Y-89170001D01*
X183203749Y-90640001D02*
X183726253Y-90640001D01*
%TO.C,C2*%
X163453749Y-111640001D02*
X163976253Y-111640001D01*
X163453749Y-110170001D02*
X163976253Y-110170001D01*
%TO.C,D1*%
X170500001Y-105430001D02*
X173185001Y-105430001D01*
X170500001Y-103510001D02*
X170500001Y-105430001D01*
X173185001Y-103510001D02*
X170500001Y-103510001D01*
%TO.C,R1*%
X183217937Y-93620001D02*
X183672065Y-93620001D01*
X183217937Y-92150001D02*
X183672065Y-92150001D01*
%TO.C,R2*%
X187667937Y-89140001D02*
X188122065Y-89140001D01*
X187667937Y-90610001D02*
X188122065Y-90610001D01*
%TO.C,U1*%
D11*
X164953096Y-102227381D02*
X164953096Y-103036905D01*
X165000715Y-103132143D01*
X165048334Y-103179762D01*
X165143572Y-103227381D01*
X165334048Y-103227381D01*
X165429286Y-103179762D01*
X165476905Y-103132143D01*
X165524524Y-103036905D01*
X165524524Y-102227381D01*
X166524524Y-103227381D02*
X165953096Y-103227381D01*
X166238810Y-103227381D02*
X166238810Y-102227381D01*
X166143572Y-102370239D01*
X166048334Y-102465477D01*
X165953096Y-102513096D01*
%TO.C,BT1*%
X150829286Y-101603572D02*
X150972143Y-101651191D01*
X151019762Y-101698810D01*
X151067381Y-101794048D01*
X151067381Y-101936905D01*
X151019762Y-102032143D01*
X150972143Y-102079762D01*
X150876905Y-102127381D01*
X150495953Y-102127381D01*
X150495953Y-101127381D01*
X150829286Y-101127381D01*
X150924524Y-101175001D01*
X150972143Y-101222620D01*
X151019762Y-101317858D01*
X151019762Y-101413096D01*
X150972143Y-101508334D01*
X150924524Y-101555953D01*
X150829286Y-101603572D01*
X150495953Y-101603572D01*
X151353096Y-101127381D02*
X151924524Y-101127381D01*
X151638810Y-102127381D02*
X151638810Y-101127381D01*
X152781667Y-102127381D02*
X152210239Y-102127381D01*
X152495953Y-102127381D02*
X152495953Y-101127381D01*
X152400715Y-101270239D01*
X152305477Y-101365477D01*
X152210239Y-101413096D01*
%TO.C,BT2*%
X150829286Y-116153572D02*
X150972143Y-116201191D01*
X151019762Y-116248810D01*
X151067381Y-116344048D01*
X151067381Y-116486905D01*
X151019762Y-116582143D01*
X150972143Y-116629762D01*
X150876905Y-116677381D01*
X150495953Y-116677381D01*
X150495953Y-115677381D01*
X150829286Y-115677381D01*
X150924524Y-115725001D01*
X150972143Y-115772620D01*
X151019762Y-115867858D01*
X151019762Y-115963096D01*
X150972143Y-116058334D01*
X150924524Y-116105953D01*
X150829286Y-116153572D01*
X150495953Y-116153572D01*
X151353096Y-115677381D02*
X151924524Y-115677381D01*
X151638810Y-116677381D02*
X151638810Y-115677381D01*
X152210239Y-115772620D02*
X152257858Y-115725001D01*
X152353096Y-115677381D01*
X152591191Y-115677381D01*
X152686429Y-115725001D01*
X152734048Y-115772620D01*
X152781667Y-115867858D01*
X152781667Y-115963096D01*
X152734048Y-116105953D01*
X152162620Y-116677381D01*
X152781667Y-116677381D01*
%TO.C,C1*%
X183298334Y-88582143D02*
X183250715Y-88629762D01*
X183107858Y-88677381D01*
X183012620Y-88677381D01*
X182869762Y-88629762D01*
X182774524Y-88534524D01*
X182726905Y-88439286D01*
X182679286Y-88248810D01*
X182679286Y-88105953D01*
X182726905Y-87915477D01*
X182774524Y-87820239D01*
X182869762Y-87725001D01*
X183012620Y-87677381D01*
X183107858Y-87677381D01*
X183250715Y-87725001D01*
X183298334Y-87772620D01*
X184250715Y-88677381D02*
X183679286Y-88677381D01*
X183965001Y-88677381D02*
X183965001Y-87677381D01*
X183869762Y-87820239D01*
X183774524Y-87915477D01*
X183679286Y-87963096D01*
%TO.C,C2*%
X163548334Y-109582143D02*
X163500715Y-109629762D01*
X163357858Y-109677381D01*
X163262620Y-109677381D01*
X163119762Y-109629762D01*
X163024524Y-109534524D01*
X162976905Y-109439286D01*
X162929286Y-109248810D01*
X162929286Y-109105953D01*
X162976905Y-108915477D01*
X163024524Y-108820239D01*
X163119762Y-108725001D01*
X163262620Y-108677381D01*
X163357858Y-108677381D01*
X163500715Y-108725001D01*
X163548334Y-108772620D01*
X163929286Y-108772620D02*
X163976905Y-108725001D01*
X164072143Y-108677381D01*
X164310239Y-108677381D01*
X164405477Y-108725001D01*
X164453096Y-108772620D01*
X164500715Y-108867858D01*
X164500715Y-108963096D01*
X164453096Y-109105953D01*
X163881667Y-109677381D01*
X164500715Y-109677381D01*
%TO.C,D1*%
X171446905Y-103272381D02*
X171446905Y-102272381D01*
X171685001Y-102272381D01*
X171827858Y-102320001D01*
X171923096Y-102415239D01*
X171970715Y-102510477D01*
X172018334Y-102700953D01*
X172018334Y-102843810D01*
X171970715Y-103034286D01*
X171923096Y-103129524D01*
X171827858Y-103224762D01*
X171685001Y-103272381D01*
X171446905Y-103272381D01*
X172970715Y-103272381D02*
X172399286Y-103272381D01*
X172685001Y-103272381D02*
X172685001Y-102272381D01*
X172589762Y-102415239D01*
X172494524Y-102510477D01*
X172399286Y-102558096D01*
%TO.C,R1*%
X183278334Y-91687381D02*
X182945001Y-91211191D01*
X182706905Y-91687381D02*
X182706905Y-90687381D01*
X183087858Y-90687381D01*
X183183096Y-90735001D01*
X183230715Y-90782620D01*
X183278334Y-90877858D01*
X183278334Y-91020715D01*
X183230715Y-91115953D01*
X183183096Y-91163572D01*
X183087858Y-91211191D01*
X182706905Y-91211191D01*
X184230715Y-91687381D02*
X183659286Y-91687381D01*
X183945001Y-91687381D02*
X183945001Y-90687381D01*
X183849762Y-90830239D01*
X183754524Y-90925477D01*
X183659286Y-90973096D01*
%TO.C,R2*%
X187728334Y-88677381D02*
X187395001Y-88201191D01*
X187156905Y-88677381D02*
X187156905Y-87677381D01*
X187537858Y-87677381D01*
X187633096Y-87725001D01*
X187680715Y-87772620D01*
X187728334Y-87867858D01*
X187728334Y-88010715D01*
X187680715Y-88105953D01*
X187633096Y-88153572D01*
X187537858Y-88201191D01*
X187156905Y-88201191D01*
X188109286Y-87772620D02*
X188156905Y-87725001D01*
X188252143Y-87677381D01*
X188490239Y-87677381D01*
X188585477Y-87725001D01*
X188633096Y-87772620D01*
X188680715Y-87867858D01*
X188680715Y-87963096D01*
X188633096Y-88105953D01*
X188061667Y-88677381D01*
X188680715Y-88677381D01*
%TD*%
M02*
