%TF.GenerationSoftware,KiCad,Pcbnew,(5.1.10)-1*%
%TF.CreationDate,2021-09-28T21:44:29-07:00*%
%TF.ProjectId,TomasMendoza,546f6d61-734d-4656-9e64-6f7a612e6b69,rev?*%
%TF.SameCoordinates,Original*%
%TF.FileFunction,Legend,Bot*%
%TF.FilePolarity,Positive*%
%FSLAX46Y46*%
G04 Gerber Fmt 4.6, Leading zero omitted, Abs format (unit mm)*
G04 Created by KiCad (PCBNEW (5.1.10)-1) date 2021-09-28 21:44:29*
%MOMM*%
%LPD*%
G01*
G04 APERTURE LIST*
%ADD10C,0.120000*%
%ADD11C,0.150000*%
G04 APERTURE END LIST*
D10*
%TO.C,BT3*%
X164815001Y-98425001D02*
X166465001Y-100075001D01*
X176265001Y-100075001D02*
X177915001Y-98425001D01*
X176265001Y-100075001D02*
X174365001Y-100075001D01*
X166465001Y-100075001D02*
X168365001Y-100075001D01*
X164815001Y-92825001D02*
X165965001Y-91475001D01*
X177915001Y-92825001D02*
X176765001Y-91475001D01*
X168860903Y-90977394D02*
G75*
G03*
X165965001Y-91475001I-1095902J-2297607D01*
G01*
X173866695Y-90978543D02*
G75*
G02*
X176765001Y-91475001I1098306J-2296458D01*
G01*
D11*
X172150715Y-89603572D02*
X172007858Y-89651191D01*
X171960239Y-89698810D01*
X171912620Y-89794048D01*
X171912620Y-89936905D01*
X171960239Y-90032143D01*
X172007858Y-90079762D01*
X172103096Y-90127381D01*
X172484048Y-90127381D01*
X172484048Y-89127381D01*
X172150715Y-89127381D01*
X172055477Y-89175001D01*
X172007858Y-89222620D01*
X171960239Y-89317858D01*
X171960239Y-89413096D01*
X172007858Y-89508334D01*
X172055477Y-89555953D01*
X172150715Y-89603572D01*
X172484048Y-89603572D01*
X171626905Y-89127381D02*
X171055477Y-89127381D01*
X171341191Y-90127381D02*
X171341191Y-89127381D01*
X170817381Y-89127381D02*
X170198334Y-89127381D01*
X170531667Y-89508334D01*
X170388810Y-89508334D01*
X170293572Y-89555953D01*
X170245953Y-89603572D01*
X170198334Y-89698810D01*
X170198334Y-89936905D01*
X170245953Y-90032143D01*
X170293572Y-90079762D01*
X170388810Y-90127381D01*
X170674524Y-90127381D01*
X170769762Y-90079762D01*
X170817381Y-90032143D01*
%TD*%
M02*
