G04 #@! TF.GenerationSoftware,KiCad,Pcbnew,(5.1.4)-1*
G04 #@! TF.CreationDate,2021-09-27T23:37:41-07:00*
G04 #@! TF.ProjectId,IntroProj,496e7472-6f50-4726-9f6a-2e6b69636164,rev?*
G04 #@! TF.SameCoordinates,Original*
G04 #@! TF.FileFunction,Copper,L1,Top*
G04 #@! TF.FilePolarity,Positive*
%FSLAX46Y46*%
G04 Gerber Fmt 4.6, Leading zero omitted, Abs format (unit mm)*
G04 Created by KiCad (PCBNEW (5.1.4)-1) date 2021-09-27 23:37:41*
%MOMM*%
%LPD*%
G04 APERTURE LIST*
%ADD10R,5.100000X2.500000*%
%ADD11C,10.200000*%
%ADD12C,0.100000*%
%ADD13C,0.975000*%
%ADD14R,1.550000X0.600000*%
%ADD15C,0.250000*%
G04 APERTURE END LIST*
D10*
X138430000Y-62250000D03*
X138430000Y-77450000D03*
D11*
X138430000Y-69850000D03*
X181610000Y-69850000D03*
D10*
X181610000Y-77450000D03*
X181610000Y-62250000D03*
D12*
G36*
X150460142Y-65341174D02*
G01*
X150483803Y-65344684D01*
X150507007Y-65350496D01*
X150529529Y-65358554D01*
X150551153Y-65368782D01*
X150571670Y-65381079D01*
X150590883Y-65395329D01*
X150608607Y-65411393D01*
X150624671Y-65429117D01*
X150638921Y-65448330D01*
X150651218Y-65468847D01*
X150661446Y-65490471D01*
X150669504Y-65512993D01*
X150675316Y-65536197D01*
X150678826Y-65559858D01*
X150680000Y-65583750D01*
X150680000Y-66496250D01*
X150678826Y-66520142D01*
X150675316Y-66543803D01*
X150669504Y-66567007D01*
X150661446Y-66589529D01*
X150651218Y-66611153D01*
X150638921Y-66631670D01*
X150624671Y-66650883D01*
X150608607Y-66668607D01*
X150590883Y-66684671D01*
X150571670Y-66698921D01*
X150551153Y-66711218D01*
X150529529Y-66721446D01*
X150507007Y-66729504D01*
X150483803Y-66735316D01*
X150460142Y-66738826D01*
X150436250Y-66740000D01*
X149948750Y-66740000D01*
X149924858Y-66738826D01*
X149901197Y-66735316D01*
X149877993Y-66729504D01*
X149855471Y-66721446D01*
X149833847Y-66711218D01*
X149813330Y-66698921D01*
X149794117Y-66684671D01*
X149776393Y-66668607D01*
X149760329Y-66650883D01*
X149746079Y-66631670D01*
X149733782Y-66611153D01*
X149723554Y-66589529D01*
X149715496Y-66567007D01*
X149709684Y-66543803D01*
X149706174Y-66520142D01*
X149705000Y-66496250D01*
X149705000Y-65583750D01*
X149706174Y-65559858D01*
X149709684Y-65536197D01*
X149715496Y-65512993D01*
X149723554Y-65490471D01*
X149733782Y-65468847D01*
X149746079Y-65448330D01*
X149760329Y-65429117D01*
X149776393Y-65411393D01*
X149794117Y-65395329D01*
X149813330Y-65381079D01*
X149833847Y-65368782D01*
X149855471Y-65358554D01*
X149877993Y-65350496D01*
X149901197Y-65344684D01*
X149924858Y-65341174D01*
X149948750Y-65340000D01*
X150436250Y-65340000D01*
X150460142Y-65341174D01*
X150460142Y-65341174D01*
G37*
D13*
X150192500Y-66040000D03*
D12*
G36*
X152335142Y-65341174D02*
G01*
X152358803Y-65344684D01*
X152382007Y-65350496D01*
X152404529Y-65358554D01*
X152426153Y-65368782D01*
X152446670Y-65381079D01*
X152465883Y-65395329D01*
X152483607Y-65411393D01*
X152499671Y-65429117D01*
X152513921Y-65448330D01*
X152526218Y-65468847D01*
X152536446Y-65490471D01*
X152544504Y-65512993D01*
X152550316Y-65536197D01*
X152553826Y-65559858D01*
X152555000Y-65583750D01*
X152555000Y-66496250D01*
X152553826Y-66520142D01*
X152550316Y-66543803D01*
X152544504Y-66567007D01*
X152536446Y-66589529D01*
X152526218Y-66611153D01*
X152513921Y-66631670D01*
X152499671Y-66650883D01*
X152483607Y-66668607D01*
X152465883Y-66684671D01*
X152446670Y-66698921D01*
X152426153Y-66711218D01*
X152404529Y-66721446D01*
X152382007Y-66729504D01*
X152358803Y-66735316D01*
X152335142Y-66738826D01*
X152311250Y-66740000D01*
X151823750Y-66740000D01*
X151799858Y-66738826D01*
X151776197Y-66735316D01*
X151752993Y-66729504D01*
X151730471Y-66721446D01*
X151708847Y-66711218D01*
X151688330Y-66698921D01*
X151669117Y-66684671D01*
X151651393Y-66668607D01*
X151635329Y-66650883D01*
X151621079Y-66631670D01*
X151608782Y-66611153D01*
X151598554Y-66589529D01*
X151590496Y-66567007D01*
X151584684Y-66543803D01*
X151581174Y-66520142D01*
X151580000Y-66496250D01*
X151580000Y-65583750D01*
X151581174Y-65559858D01*
X151584684Y-65536197D01*
X151590496Y-65512993D01*
X151598554Y-65490471D01*
X151608782Y-65468847D01*
X151621079Y-65448330D01*
X151635329Y-65429117D01*
X151651393Y-65411393D01*
X151669117Y-65395329D01*
X151688330Y-65381079D01*
X151708847Y-65368782D01*
X151730471Y-65358554D01*
X151752993Y-65350496D01*
X151776197Y-65344684D01*
X151799858Y-65341174D01*
X151823750Y-65340000D01*
X152311250Y-65340000D01*
X152335142Y-65341174D01*
X152335142Y-65341174D01*
G37*
D13*
X152067500Y-66040000D03*
D12*
G36*
X162162642Y-79311174D02*
G01*
X162186303Y-79314684D01*
X162209507Y-79320496D01*
X162232029Y-79328554D01*
X162253653Y-79338782D01*
X162274170Y-79351079D01*
X162293383Y-79365329D01*
X162311107Y-79381393D01*
X162327171Y-79399117D01*
X162341421Y-79418330D01*
X162353718Y-79438847D01*
X162363946Y-79460471D01*
X162372004Y-79482993D01*
X162377816Y-79506197D01*
X162381326Y-79529858D01*
X162382500Y-79553750D01*
X162382500Y-80466250D01*
X162381326Y-80490142D01*
X162377816Y-80513803D01*
X162372004Y-80537007D01*
X162363946Y-80559529D01*
X162353718Y-80581153D01*
X162341421Y-80601670D01*
X162327171Y-80620883D01*
X162311107Y-80638607D01*
X162293383Y-80654671D01*
X162274170Y-80668921D01*
X162253653Y-80681218D01*
X162232029Y-80691446D01*
X162209507Y-80699504D01*
X162186303Y-80705316D01*
X162162642Y-80708826D01*
X162138750Y-80710000D01*
X161651250Y-80710000D01*
X161627358Y-80708826D01*
X161603697Y-80705316D01*
X161580493Y-80699504D01*
X161557971Y-80691446D01*
X161536347Y-80681218D01*
X161515830Y-80668921D01*
X161496617Y-80654671D01*
X161478893Y-80638607D01*
X161462829Y-80620883D01*
X161448579Y-80601670D01*
X161436282Y-80581153D01*
X161426054Y-80559529D01*
X161417996Y-80537007D01*
X161412184Y-80513803D01*
X161408674Y-80490142D01*
X161407500Y-80466250D01*
X161407500Y-79553750D01*
X161408674Y-79529858D01*
X161412184Y-79506197D01*
X161417996Y-79482993D01*
X161426054Y-79460471D01*
X161436282Y-79438847D01*
X161448579Y-79418330D01*
X161462829Y-79399117D01*
X161478893Y-79381393D01*
X161496617Y-79365329D01*
X161515830Y-79351079D01*
X161536347Y-79338782D01*
X161557971Y-79328554D01*
X161580493Y-79320496D01*
X161603697Y-79314684D01*
X161627358Y-79311174D01*
X161651250Y-79310000D01*
X162138750Y-79310000D01*
X162162642Y-79311174D01*
X162162642Y-79311174D01*
G37*
D13*
X161895000Y-80010000D03*
D12*
G36*
X160287642Y-79311174D02*
G01*
X160311303Y-79314684D01*
X160334507Y-79320496D01*
X160357029Y-79328554D01*
X160378653Y-79338782D01*
X160399170Y-79351079D01*
X160418383Y-79365329D01*
X160436107Y-79381393D01*
X160452171Y-79399117D01*
X160466421Y-79418330D01*
X160478718Y-79438847D01*
X160488946Y-79460471D01*
X160497004Y-79482993D01*
X160502816Y-79506197D01*
X160506326Y-79529858D01*
X160507500Y-79553750D01*
X160507500Y-80466250D01*
X160506326Y-80490142D01*
X160502816Y-80513803D01*
X160497004Y-80537007D01*
X160488946Y-80559529D01*
X160478718Y-80581153D01*
X160466421Y-80601670D01*
X160452171Y-80620883D01*
X160436107Y-80638607D01*
X160418383Y-80654671D01*
X160399170Y-80668921D01*
X160378653Y-80681218D01*
X160357029Y-80691446D01*
X160334507Y-80699504D01*
X160311303Y-80705316D01*
X160287642Y-80708826D01*
X160263750Y-80710000D01*
X159776250Y-80710000D01*
X159752358Y-80708826D01*
X159728697Y-80705316D01*
X159705493Y-80699504D01*
X159682971Y-80691446D01*
X159661347Y-80681218D01*
X159640830Y-80668921D01*
X159621617Y-80654671D01*
X159603893Y-80638607D01*
X159587829Y-80620883D01*
X159573579Y-80601670D01*
X159561282Y-80581153D01*
X159551054Y-80559529D01*
X159542996Y-80537007D01*
X159537184Y-80513803D01*
X159533674Y-80490142D01*
X159532500Y-80466250D01*
X159532500Y-79553750D01*
X159533674Y-79529858D01*
X159537184Y-79506197D01*
X159542996Y-79482993D01*
X159551054Y-79460471D01*
X159561282Y-79438847D01*
X159573579Y-79418330D01*
X159587829Y-79399117D01*
X159603893Y-79381393D01*
X159621617Y-79365329D01*
X159640830Y-79351079D01*
X159661347Y-79338782D01*
X159682971Y-79328554D01*
X159705493Y-79320496D01*
X159728697Y-79314684D01*
X159752358Y-79311174D01*
X159776250Y-79310000D01*
X160263750Y-79310000D01*
X160287642Y-79311174D01*
X160287642Y-79311174D01*
G37*
D13*
X160020000Y-80010000D03*
D12*
G36*
X152335142Y-74231174D02*
G01*
X152358803Y-74234684D01*
X152382007Y-74240496D01*
X152404529Y-74248554D01*
X152426153Y-74258782D01*
X152446670Y-74271079D01*
X152465883Y-74285329D01*
X152483607Y-74301393D01*
X152499671Y-74319117D01*
X152513921Y-74338330D01*
X152526218Y-74358847D01*
X152536446Y-74380471D01*
X152544504Y-74402993D01*
X152550316Y-74426197D01*
X152553826Y-74449858D01*
X152555000Y-74473750D01*
X152555000Y-75386250D01*
X152553826Y-75410142D01*
X152550316Y-75433803D01*
X152544504Y-75457007D01*
X152536446Y-75479529D01*
X152526218Y-75501153D01*
X152513921Y-75521670D01*
X152499671Y-75540883D01*
X152483607Y-75558607D01*
X152465883Y-75574671D01*
X152446670Y-75588921D01*
X152426153Y-75601218D01*
X152404529Y-75611446D01*
X152382007Y-75619504D01*
X152358803Y-75625316D01*
X152335142Y-75628826D01*
X152311250Y-75630000D01*
X151823750Y-75630000D01*
X151799858Y-75628826D01*
X151776197Y-75625316D01*
X151752993Y-75619504D01*
X151730471Y-75611446D01*
X151708847Y-75601218D01*
X151688330Y-75588921D01*
X151669117Y-75574671D01*
X151651393Y-75558607D01*
X151635329Y-75540883D01*
X151621079Y-75521670D01*
X151608782Y-75501153D01*
X151598554Y-75479529D01*
X151590496Y-75457007D01*
X151584684Y-75433803D01*
X151581174Y-75410142D01*
X151580000Y-75386250D01*
X151580000Y-74473750D01*
X151581174Y-74449858D01*
X151584684Y-74426197D01*
X151590496Y-74402993D01*
X151598554Y-74380471D01*
X151608782Y-74358847D01*
X151621079Y-74338330D01*
X151635329Y-74319117D01*
X151651393Y-74301393D01*
X151669117Y-74285329D01*
X151688330Y-74271079D01*
X151708847Y-74258782D01*
X151730471Y-74248554D01*
X151752993Y-74240496D01*
X151776197Y-74234684D01*
X151799858Y-74231174D01*
X151823750Y-74230000D01*
X152311250Y-74230000D01*
X152335142Y-74231174D01*
X152335142Y-74231174D01*
G37*
D13*
X152067500Y-74930000D03*
D12*
G36*
X150460142Y-74231174D02*
G01*
X150483803Y-74234684D01*
X150507007Y-74240496D01*
X150529529Y-74248554D01*
X150551153Y-74258782D01*
X150571670Y-74271079D01*
X150590883Y-74285329D01*
X150608607Y-74301393D01*
X150624671Y-74319117D01*
X150638921Y-74338330D01*
X150651218Y-74358847D01*
X150661446Y-74380471D01*
X150669504Y-74402993D01*
X150675316Y-74426197D01*
X150678826Y-74449858D01*
X150680000Y-74473750D01*
X150680000Y-75386250D01*
X150678826Y-75410142D01*
X150675316Y-75433803D01*
X150669504Y-75457007D01*
X150661446Y-75479529D01*
X150651218Y-75501153D01*
X150638921Y-75521670D01*
X150624671Y-75540883D01*
X150608607Y-75558607D01*
X150590883Y-75574671D01*
X150571670Y-75588921D01*
X150551153Y-75601218D01*
X150529529Y-75611446D01*
X150507007Y-75619504D01*
X150483803Y-75625316D01*
X150460142Y-75628826D01*
X150436250Y-75630000D01*
X149948750Y-75630000D01*
X149924858Y-75628826D01*
X149901197Y-75625316D01*
X149877993Y-75619504D01*
X149855471Y-75611446D01*
X149833847Y-75601218D01*
X149813330Y-75588921D01*
X149794117Y-75574671D01*
X149776393Y-75558607D01*
X149760329Y-75540883D01*
X149746079Y-75521670D01*
X149733782Y-75501153D01*
X149723554Y-75479529D01*
X149715496Y-75457007D01*
X149709684Y-75433803D01*
X149706174Y-75410142D01*
X149705000Y-75386250D01*
X149705000Y-74473750D01*
X149706174Y-74449858D01*
X149709684Y-74426197D01*
X149715496Y-74402993D01*
X149723554Y-74380471D01*
X149733782Y-74358847D01*
X149746079Y-74338330D01*
X149760329Y-74319117D01*
X149776393Y-74301393D01*
X149794117Y-74285329D01*
X149813330Y-74271079D01*
X149833847Y-74258782D01*
X149855471Y-74248554D01*
X149877993Y-74240496D01*
X149901197Y-74234684D01*
X149924858Y-74231174D01*
X149948750Y-74230000D01*
X150436250Y-74230000D01*
X150460142Y-74231174D01*
X150460142Y-74231174D01*
G37*
D13*
X150192500Y-74930000D03*
D12*
G36*
X171385142Y-71691174D02*
G01*
X171408803Y-71694684D01*
X171432007Y-71700496D01*
X171454529Y-71708554D01*
X171476153Y-71718782D01*
X171496670Y-71731079D01*
X171515883Y-71745329D01*
X171533607Y-71761393D01*
X171549671Y-71779117D01*
X171563921Y-71798330D01*
X171576218Y-71818847D01*
X171586446Y-71840471D01*
X171594504Y-71862993D01*
X171600316Y-71886197D01*
X171603826Y-71909858D01*
X171605000Y-71933750D01*
X171605000Y-72846250D01*
X171603826Y-72870142D01*
X171600316Y-72893803D01*
X171594504Y-72917007D01*
X171586446Y-72939529D01*
X171576218Y-72961153D01*
X171563921Y-72981670D01*
X171549671Y-73000883D01*
X171533607Y-73018607D01*
X171515883Y-73034671D01*
X171496670Y-73048921D01*
X171476153Y-73061218D01*
X171454529Y-73071446D01*
X171432007Y-73079504D01*
X171408803Y-73085316D01*
X171385142Y-73088826D01*
X171361250Y-73090000D01*
X170873750Y-73090000D01*
X170849858Y-73088826D01*
X170826197Y-73085316D01*
X170802993Y-73079504D01*
X170780471Y-73071446D01*
X170758847Y-73061218D01*
X170738330Y-73048921D01*
X170719117Y-73034671D01*
X170701393Y-73018607D01*
X170685329Y-73000883D01*
X170671079Y-72981670D01*
X170658782Y-72961153D01*
X170648554Y-72939529D01*
X170640496Y-72917007D01*
X170634684Y-72893803D01*
X170631174Y-72870142D01*
X170630000Y-72846250D01*
X170630000Y-71933750D01*
X170631174Y-71909858D01*
X170634684Y-71886197D01*
X170640496Y-71862993D01*
X170648554Y-71840471D01*
X170658782Y-71818847D01*
X170671079Y-71798330D01*
X170685329Y-71779117D01*
X170701393Y-71761393D01*
X170719117Y-71745329D01*
X170738330Y-71731079D01*
X170758847Y-71718782D01*
X170780471Y-71708554D01*
X170802993Y-71700496D01*
X170826197Y-71694684D01*
X170849858Y-71691174D01*
X170873750Y-71690000D01*
X171361250Y-71690000D01*
X171385142Y-71691174D01*
X171385142Y-71691174D01*
G37*
D13*
X171117500Y-72390000D03*
D12*
G36*
X169510142Y-71691174D02*
G01*
X169533803Y-71694684D01*
X169557007Y-71700496D01*
X169579529Y-71708554D01*
X169601153Y-71718782D01*
X169621670Y-71731079D01*
X169640883Y-71745329D01*
X169658607Y-71761393D01*
X169674671Y-71779117D01*
X169688921Y-71798330D01*
X169701218Y-71818847D01*
X169711446Y-71840471D01*
X169719504Y-71862993D01*
X169725316Y-71886197D01*
X169728826Y-71909858D01*
X169730000Y-71933750D01*
X169730000Y-72846250D01*
X169728826Y-72870142D01*
X169725316Y-72893803D01*
X169719504Y-72917007D01*
X169711446Y-72939529D01*
X169701218Y-72961153D01*
X169688921Y-72981670D01*
X169674671Y-73000883D01*
X169658607Y-73018607D01*
X169640883Y-73034671D01*
X169621670Y-73048921D01*
X169601153Y-73061218D01*
X169579529Y-73071446D01*
X169557007Y-73079504D01*
X169533803Y-73085316D01*
X169510142Y-73088826D01*
X169486250Y-73090000D01*
X168998750Y-73090000D01*
X168974858Y-73088826D01*
X168951197Y-73085316D01*
X168927993Y-73079504D01*
X168905471Y-73071446D01*
X168883847Y-73061218D01*
X168863330Y-73048921D01*
X168844117Y-73034671D01*
X168826393Y-73018607D01*
X168810329Y-73000883D01*
X168796079Y-72981670D01*
X168783782Y-72961153D01*
X168773554Y-72939529D01*
X168765496Y-72917007D01*
X168759684Y-72893803D01*
X168756174Y-72870142D01*
X168755000Y-72846250D01*
X168755000Y-71933750D01*
X168756174Y-71909858D01*
X168759684Y-71886197D01*
X168765496Y-71862993D01*
X168773554Y-71840471D01*
X168783782Y-71818847D01*
X168796079Y-71798330D01*
X168810329Y-71779117D01*
X168826393Y-71761393D01*
X168844117Y-71745329D01*
X168863330Y-71731079D01*
X168883847Y-71718782D01*
X168905471Y-71708554D01*
X168927993Y-71700496D01*
X168951197Y-71694684D01*
X168974858Y-71691174D01*
X168998750Y-71690000D01*
X169486250Y-71690000D01*
X169510142Y-71691174D01*
X169510142Y-71691174D01*
G37*
D13*
X169242500Y-72390000D03*
D12*
G36*
X169510142Y-64071174D02*
G01*
X169533803Y-64074684D01*
X169557007Y-64080496D01*
X169579529Y-64088554D01*
X169601153Y-64098782D01*
X169621670Y-64111079D01*
X169640883Y-64125329D01*
X169658607Y-64141393D01*
X169674671Y-64159117D01*
X169688921Y-64178330D01*
X169701218Y-64198847D01*
X169711446Y-64220471D01*
X169719504Y-64242993D01*
X169725316Y-64266197D01*
X169728826Y-64289858D01*
X169730000Y-64313750D01*
X169730000Y-65226250D01*
X169728826Y-65250142D01*
X169725316Y-65273803D01*
X169719504Y-65297007D01*
X169711446Y-65319529D01*
X169701218Y-65341153D01*
X169688921Y-65361670D01*
X169674671Y-65380883D01*
X169658607Y-65398607D01*
X169640883Y-65414671D01*
X169621670Y-65428921D01*
X169601153Y-65441218D01*
X169579529Y-65451446D01*
X169557007Y-65459504D01*
X169533803Y-65465316D01*
X169510142Y-65468826D01*
X169486250Y-65470000D01*
X168998750Y-65470000D01*
X168974858Y-65468826D01*
X168951197Y-65465316D01*
X168927993Y-65459504D01*
X168905471Y-65451446D01*
X168883847Y-65441218D01*
X168863330Y-65428921D01*
X168844117Y-65414671D01*
X168826393Y-65398607D01*
X168810329Y-65380883D01*
X168796079Y-65361670D01*
X168783782Y-65341153D01*
X168773554Y-65319529D01*
X168765496Y-65297007D01*
X168759684Y-65273803D01*
X168756174Y-65250142D01*
X168755000Y-65226250D01*
X168755000Y-64313750D01*
X168756174Y-64289858D01*
X168759684Y-64266197D01*
X168765496Y-64242993D01*
X168773554Y-64220471D01*
X168783782Y-64198847D01*
X168796079Y-64178330D01*
X168810329Y-64159117D01*
X168826393Y-64141393D01*
X168844117Y-64125329D01*
X168863330Y-64111079D01*
X168883847Y-64098782D01*
X168905471Y-64088554D01*
X168927993Y-64080496D01*
X168951197Y-64074684D01*
X168974858Y-64071174D01*
X168998750Y-64070000D01*
X169486250Y-64070000D01*
X169510142Y-64071174D01*
X169510142Y-64071174D01*
G37*
D13*
X169242500Y-64770000D03*
D12*
G36*
X171385142Y-64071174D02*
G01*
X171408803Y-64074684D01*
X171432007Y-64080496D01*
X171454529Y-64088554D01*
X171476153Y-64098782D01*
X171496670Y-64111079D01*
X171515883Y-64125329D01*
X171533607Y-64141393D01*
X171549671Y-64159117D01*
X171563921Y-64178330D01*
X171576218Y-64198847D01*
X171586446Y-64220471D01*
X171594504Y-64242993D01*
X171600316Y-64266197D01*
X171603826Y-64289858D01*
X171605000Y-64313750D01*
X171605000Y-65226250D01*
X171603826Y-65250142D01*
X171600316Y-65273803D01*
X171594504Y-65297007D01*
X171586446Y-65319529D01*
X171576218Y-65341153D01*
X171563921Y-65361670D01*
X171549671Y-65380883D01*
X171533607Y-65398607D01*
X171515883Y-65414671D01*
X171496670Y-65428921D01*
X171476153Y-65441218D01*
X171454529Y-65451446D01*
X171432007Y-65459504D01*
X171408803Y-65465316D01*
X171385142Y-65468826D01*
X171361250Y-65470000D01*
X170873750Y-65470000D01*
X170849858Y-65468826D01*
X170826197Y-65465316D01*
X170802993Y-65459504D01*
X170780471Y-65451446D01*
X170758847Y-65441218D01*
X170738330Y-65428921D01*
X170719117Y-65414671D01*
X170701393Y-65398607D01*
X170685329Y-65380883D01*
X170671079Y-65361670D01*
X170658782Y-65341153D01*
X170648554Y-65319529D01*
X170640496Y-65297007D01*
X170634684Y-65273803D01*
X170631174Y-65250142D01*
X170630000Y-65226250D01*
X170630000Y-64313750D01*
X170631174Y-64289858D01*
X170634684Y-64266197D01*
X170640496Y-64242993D01*
X170648554Y-64220471D01*
X170658782Y-64198847D01*
X170671079Y-64178330D01*
X170685329Y-64159117D01*
X170701393Y-64141393D01*
X170719117Y-64125329D01*
X170738330Y-64111079D01*
X170758847Y-64098782D01*
X170780471Y-64088554D01*
X170802993Y-64080496D01*
X170826197Y-64074684D01*
X170849858Y-64071174D01*
X170873750Y-64070000D01*
X171361250Y-64070000D01*
X171385142Y-64071174D01*
X171385142Y-64071174D01*
G37*
D13*
X171117500Y-64770000D03*
D14*
X158590000Y-66675000D03*
X158590000Y-67945000D03*
X158590000Y-69215000D03*
X158590000Y-70485000D03*
X163990000Y-70485000D03*
X163990000Y-69215000D03*
X163990000Y-66675000D03*
D15*
X163990000Y-67225000D02*
X163990000Y-66675000D01*
X160730000Y-70485000D02*
X163990000Y-67225000D01*
X158590000Y-70485000D02*
X160730000Y-70485000D01*
X168686263Y-71833763D02*
X169242500Y-72390000D01*
X166712499Y-69859999D02*
X168686263Y-71833763D01*
X162974997Y-69859999D02*
X166712499Y-69859999D01*
X162889999Y-69775001D02*
X162974997Y-69859999D01*
X162889999Y-68325001D02*
X162889999Y-69775001D01*
X163990000Y-67225000D02*
X162889999Y-68325001D01*
X164016400Y-83000010D02*
X141420010Y-83000010D01*
X159065000Y-70485000D02*
X159690001Y-69859999D01*
X158590000Y-70485000D02*
X159065000Y-70485000D01*
X159690001Y-69859999D02*
X165025001Y-69859999D01*
X165025001Y-69859999D02*
X166820010Y-71655008D01*
X166820010Y-71655008D02*
X166820010Y-80196400D01*
X166820010Y-80196400D02*
X164016400Y-83000010D01*
X138430000Y-80010000D02*
X138430000Y-77450000D01*
X141420010Y-83000010D02*
X138430000Y-80010000D01*
X138430000Y-62250000D02*
X135630000Y-62250000D01*
X135630000Y-62250000D02*
X135610000Y-62230000D01*
X135610000Y-62230000D02*
X134620000Y-62230000D01*
X134620000Y-62230000D02*
X132080000Y-64770000D01*
X132080000Y-64770000D02*
X132080000Y-74930000D01*
X132080000Y-74930000D02*
X134620000Y-77470000D01*
X134640000Y-77450000D02*
X138430000Y-77450000D01*
X134620000Y-77470000D02*
X134640000Y-77450000D01*
X146030000Y-62250000D02*
X184150000Y-62250000D01*
X138430000Y-69850000D02*
X146030000Y-62250000D01*
X182930000Y-62230000D02*
X185420000Y-62230000D01*
X185420000Y-62230000D02*
X187960000Y-64770000D01*
X187960000Y-64770000D02*
X187960000Y-74930000D01*
X187960000Y-74930000D02*
X185420000Y-77470000D01*
X185400000Y-77450000D02*
X181610000Y-77450000D01*
X185420000Y-77470000D02*
X185400000Y-77450000D01*
X158505000Y-66040000D02*
X158590000Y-66125000D01*
X152067500Y-66040000D02*
X158505000Y-66040000D01*
X151511263Y-74373763D02*
X152067500Y-74930000D01*
X149379990Y-72242490D02*
X152781263Y-75643763D01*
X149379990Y-65348160D02*
X149379990Y-72242490D01*
X149958150Y-64770000D02*
X149379990Y-65348160D01*
X150797500Y-64770000D02*
X149958150Y-64770000D01*
X152067500Y-66040000D02*
X150797500Y-64770000D01*
X158590000Y-66675000D02*
X158590000Y-66125000D01*
X157147500Y-80010000D02*
X160020000Y-80010000D01*
X152067500Y-74930000D02*
X157147500Y-80010000D01*
X161665009Y-63049991D02*
X158590000Y-66125000D01*
X181610000Y-69850000D02*
X174809991Y-63049991D01*
X174809991Y-63049991D02*
X161665009Y-63049991D01*
X166672500Y-69215000D02*
X163990000Y-69215000D01*
X171117500Y-64770000D02*
X166672500Y-69215000D01*
X152097500Y-67945000D02*
X158590000Y-67945000D01*
X150192500Y-66040000D02*
X152097500Y-67945000D01*
X163990000Y-68665000D02*
X163990000Y-69215000D01*
X165090001Y-67564999D02*
X163990000Y-68665000D01*
X165090001Y-66114999D02*
X165090001Y-67564999D01*
X165025001Y-66049999D02*
X165090001Y-66114999D01*
X162954999Y-66049999D02*
X165025001Y-66049999D01*
X161059998Y-67945000D02*
X162954999Y-66049999D01*
X158590000Y-67945000D02*
X161059998Y-67945000D01*
X158115000Y-69215000D02*
X158590000Y-69215000D01*
X157489999Y-69840001D02*
X158115000Y-69215000D01*
X157489999Y-75604999D02*
X157489999Y-69840001D01*
X161895000Y-80010000D02*
X157489999Y-75604999D01*
X157812500Y-82550000D02*
X163830000Y-82550000D01*
X163830000Y-82550000D02*
X166370000Y-80010000D01*
X166370000Y-80010000D02*
X166370000Y-72390000D01*
X164465000Y-70485000D02*
X163990000Y-70485000D01*
X166370000Y-72390000D02*
X164465000Y-70485000D01*
X150192500Y-74930000D02*
X153201250Y-77938750D01*
X151462500Y-76200000D02*
X153201250Y-77938750D01*
X153201250Y-77938750D02*
X157812500Y-82550000D01*
X171673737Y-71833763D02*
X171117500Y-72390000D01*
X171930010Y-71577490D02*
X171673737Y-71833763D01*
X171930010Y-64078160D02*
X171930010Y-71577490D01*
X171351850Y-63500000D02*
X171930010Y-64078160D01*
X170512500Y-63500000D02*
X171351850Y-63500000D01*
X169242500Y-64770000D02*
X170512500Y-63500000D01*
M02*
