G04 #@! TF.GenerationSoftware,KiCad,Pcbnew,(5.1.4)-1*
G04 #@! TF.CreationDate,2021-09-27T23:37:41-07:00*
G04 #@! TF.ProjectId,IntroProj,496e7472-6f50-4726-9f6a-2e6b69636164,rev?*
G04 #@! TF.SameCoordinates,Original*
G04 #@! TF.FileFunction,Legend,Top*
G04 #@! TF.FilePolarity,Positive*
%FSLAX46Y46*%
G04 Gerber Fmt 4.6, Leading zero omitted, Abs format (unit mm)*
G04 Created by KiCad (PCBNEW (5.1.4)-1) date 2021-09-27 23:37:41*
%MOMM*%
%LPD*%
G04 APERTURE LIST*
%ADD10C,0.300000*%
%ADD11C,0.100000*%
%ADD12C,0.120000*%
%ADD13C,0.150000*%
G04 APERTURE END LIST*
D10*
X130618571Y-57828571D02*
X130618571Y-56328571D01*
X131332857Y-56828571D02*
X131332857Y-57828571D01*
X131332857Y-56971428D02*
X131404285Y-56900000D01*
X131547142Y-56828571D01*
X131761428Y-56828571D01*
X131904285Y-56900000D01*
X131975714Y-57042857D01*
X131975714Y-57828571D01*
X132475714Y-56828571D02*
X133047142Y-56828571D01*
X132690000Y-56328571D02*
X132690000Y-57614285D01*
X132761428Y-57757142D01*
X132904285Y-57828571D01*
X133047142Y-57828571D01*
X133547142Y-57828571D02*
X133547142Y-56828571D01*
X133547142Y-57114285D02*
X133618571Y-56971428D01*
X133690000Y-56900000D01*
X133832857Y-56828571D01*
X133975714Y-56828571D01*
X134690000Y-57828571D02*
X134547142Y-57757142D01*
X134475714Y-57685714D01*
X134404285Y-57542857D01*
X134404285Y-57114285D01*
X134475714Y-56971428D01*
X134547142Y-56900000D01*
X134690000Y-56828571D01*
X134904285Y-56828571D01*
X135047142Y-56900000D01*
X135118571Y-56971428D01*
X135190000Y-57114285D01*
X135190000Y-57542857D01*
X135118571Y-57685714D01*
X135047142Y-57757142D01*
X134904285Y-57828571D01*
X134690000Y-57828571D01*
X136975714Y-57828571D02*
X136975714Y-56328571D01*
X137547142Y-56328571D01*
X137690000Y-56400000D01*
X137761428Y-56471428D01*
X137832857Y-56614285D01*
X137832857Y-56828571D01*
X137761428Y-56971428D01*
X137690000Y-57042857D01*
X137547142Y-57114285D01*
X136975714Y-57114285D01*
X138475714Y-57828571D02*
X138475714Y-56828571D01*
X138475714Y-57114285D02*
X138547142Y-56971428D01*
X138618571Y-56900000D01*
X138761428Y-56828571D01*
X138904285Y-56828571D01*
X139618571Y-57828571D02*
X139475714Y-57757142D01*
X139404285Y-57685714D01*
X139332857Y-57542857D01*
X139332857Y-57114285D01*
X139404285Y-56971428D01*
X139475714Y-56900000D01*
X139618571Y-56828571D01*
X139832857Y-56828571D01*
X139975714Y-56900000D01*
X140047142Y-56971428D01*
X140118571Y-57114285D01*
X140118571Y-57542857D01*
X140047142Y-57685714D01*
X139975714Y-57757142D01*
X139832857Y-57828571D01*
X139618571Y-57828571D01*
X140761428Y-56828571D02*
X140761428Y-58114285D01*
X140690000Y-58257142D01*
X140547142Y-58328571D01*
X140475714Y-58328571D01*
X140761428Y-56328571D02*
X140690000Y-56400000D01*
X140761428Y-56471428D01*
X140832857Y-56400000D01*
X140761428Y-56328571D01*
X140761428Y-56471428D01*
X142047142Y-57757142D02*
X141904285Y-57828571D01*
X141618571Y-57828571D01*
X141475714Y-57757142D01*
X141404285Y-57614285D01*
X141404285Y-57042857D01*
X141475714Y-56900000D01*
X141618571Y-56828571D01*
X141904285Y-56828571D01*
X142047142Y-56900000D01*
X142118571Y-57042857D01*
X142118571Y-57185714D01*
X141404285Y-57328571D01*
X143404285Y-57757142D02*
X143261428Y-57828571D01*
X142975714Y-57828571D01*
X142832857Y-57757142D01*
X142761428Y-57685714D01*
X142690000Y-57542857D01*
X142690000Y-57114285D01*
X142761428Y-56971428D01*
X142832857Y-56900000D01*
X142975714Y-56828571D01*
X143261428Y-56828571D01*
X143404285Y-56900000D01*
X143832857Y-56828571D02*
X144404285Y-56828571D01*
X144047142Y-56328571D02*
X144047142Y-57614285D01*
X144118571Y-57757142D01*
X144261428Y-57828571D01*
X144404285Y-57828571D01*
X146761428Y-57828571D02*
X146047142Y-57828571D01*
X146047142Y-56328571D01*
X147261428Y-57828571D02*
X147261428Y-56328571D01*
X147761428Y-57400000D01*
X148261428Y-56328571D01*
X148261428Y-57828571D01*
X149690000Y-56328571D02*
X148975714Y-56328571D01*
X148904285Y-57042857D01*
X148975714Y-56971428D01*
X149118571Y-56900000D01*
X149475714Y-56900000D01*
X149618571Y-56971428D01*
X149690000Y-57042857D01*
X149761428Y-57185714D01*
X149761428Y-57542857D01*
X149690000Y-57685714D01*
X149618571Y-57757142D01*
X149475714Y-57828571D01*
X149118571Y-57828571D01*
X148975714Y-57757142D01*
X148904285Y-57685714D01*
X151118571Y-56328571D02*
X150404285Y-56328571D01*
X150332857Y-57042857D01*
X150404285Y-56971428D01*
X150547142Y-56900000D01*
X150904285Y-56900000D01*
X151047142Y-56971428D01*
X151118571Y-57042857D01*
X151190000Y-57185714D01*
X151190000Y-57542857D01*
X151118571Y-57685714D01*
X151047142Y-57757142D01*
X150904285Y-57828571D01*
X150547142Y-57828571D01*
X150404285Y-57757142D01*
X150332857Y-57685714D01*
X152547142Y-56328571D02*
X151832857Y-56328571D01*
X151761428Y-57042857D01*
X151832857Y-56971428D01*
X151975714Y-56900000D01*
X152332857Y-56900000D01*
X152475714Y-56971428D01*
X152547142Y-57042857D01*
X152618571Y-57185714D01*
X152618571Y-57542857D01*
X152547142Y-57685714D01*
X152475714Y-57757142D01*
X152332857Y-57828571D01*
X151975714Y-57828571D01*
X151832857Y-57757142D01*
X151761428Y-57685714D01*
X154404285Y-57042857D02*
X154904285Y-57042857D01*
X155118571Y-57828571D02*
X154404285Y-57828571D01*
X154404285Y-56328571D01*
X155118571Y-56328571D01*
X155761428Y-57828571D02*
X155761428Y-56828571D01*
X155761428Y-57114285D02*
X155832857Y-56971428D01*
X155904285Y-56900000D01*
X156047142Y-56828571D01*
X156190000Y-56828571D01*
X156690000Y-57828571D02*
X156690000Y-56828571D01*
X156690000Y-56328571D02*
X156618571Y-56400000D01*
X156690000Y-56471428D01*
X156761428Y-56400000D01*
X156690000Y-56328571D01*
X156690000Y-56471428D01*
X157404285Y-57828571D02*
X157404285Y-56328571D01*
X157547142Y-57257142D02*
X157975714Y-57828571D01*
X157975714Y-56828571D02*
X157404285Y-57400000D01*
X160618571Y-57685714D02*
X160547142Y-57757142D01*
X160332857Y-57828571D01*
X160190000Y-57828571D01*
X159975714Y-57757142D01*
X159832857Y-57614285D01*
X159761428Y-57471428D01*
X159690000Y-57185714D01*
X159690000Y-56971428D01*
X159761428Y-56685714D01*
X159832857Y-56542857D01*
X159975714Y-56400000D01*
X160190000Y-56328571D01*
X160332857Y-56328571D01*
X160547142Y-56400000D01*
X160618571Y-56471428D01*
X161261428Y-57828571D02*
X161261428Y-56328571D01*
X161904285Y-57828571D02*
X161904285Y-57042857D01*
X161832857Y-56900000D01*
X161690000Y-56828571D01*
X161475714Y-56828571D01*
X161332857Y-56900000D01*
X161261428Y-56971428D01*
X163261428Y-57828571D02*
X163261428Y-57042857D01*
X163190000Y-56900000D01*
X163047142Y-56828571D01*
X162761428Y-56828571D01*
X162618571Y-56900000D01*
X163261428Y-57757142D02*
X163118571Y-57828571D01*
X162761428Y-57828571D01*
X162618571Y-57757142D01*
X162547142Y-57614285D01*
X162547142Y-57471428D01*
X162618571Y-57328571D01*
X162761428Y-57257142D01*
X163118571Y-57257142D01*
X163261428Y-57185714D01*
X163832857Y-56828571D02*
X164190000Y-57828571D01*
X164547142Y-56828571D01*
X165761428Y-57828571D02*
X165761428Y-57042857D01*
X165690000Y-56900000D01*
X165547142Y-56828571D01*
X165261428Y-56828571D01*
X165118571Y-56900000D01*
X165761428Y-57757142D02*
X165618571Y-57828571D01*
X165261428Y-57828571D01*
X165118571Y-57757142D01*
X165047142Y-57614285D01*
X165047142Y-57471428D01*
X165118571Y-57328571D01*
X165261428Y-57257142D01*
X165618571Y-57257142D01*
X165761428Y-57185714D01*
X166475714Y-57828571D02*
X166475714Y-56828571D01*
X166475714Y-57114285D02*
X166547142Y-56971428D01*
X166618571Y-56900000D01*
X166761428Y-56828571D01*
X166904285Y-56828571D01*
X167404285Y-57828571D02*
X167404285Y-56828571D01*
X167404285Y-56328571D02*
X167332857Y-56400000D01*
X167404285Y-56471428D01*
X167475714Y-56400000D01*
X167404285Y-56328571D01*
X167404285Y-56471428D01*
X168118571Y-56828571D02*
X168118571Y-57828571D01*
X168118571Y-56971428D02*
X168190000Y-56900000D01*
X168332857Y-56828571D01*
X168547142Y-56828571D01*
X168690000Y-56900000D01*
X168761428Y-57042857D01*
X168761428Y-57828571D01*
X171475714Y-57828571D02*
X170975714Y-57114285D01*
X170618571Y-57828571D02*
X170618571Y-56328571D01*
X171190000Y-56328571D01*
X171332857Y-56400000D01*
X171404285Y-56471428D01*
X171475714Y-56614285D01*
X171475714Y-56828571D01*
X171404285Y-56971428D01*
X171332857Y-57042857D01*
X171190000Y-57114285D01*
X170618571Y-57114285D01*
X172690000Y-57757142D02*
X172547142Y-57828571D01*
X172261428Y-57828571D01*
X172118571Y-57757142D01*
X172047142Y-57614285D01*
X172047142Y-57042857D01*
X172118571Y-56900000D01*
X172261428Y-56828571D01*
X172547142Y-56828571D01*
X172690000Y-56900000D01*
X172761428Y-57042857D01*
X172761428Y-57185714D01*
X172047142Y-57328571D01*
X173261428Y-56828571D02*
X173618571Y-57828571D01*
X173975714Y-56828571D01*
X174547142Y-57685714D02*
X174618571Y-57757142D01*
X174547142Y-57828571D01*
X174475714Y-57757142D01*
X174547142Y-57685714D01*
X174547142Y-57828571D01*
X177190000Y-57828571D02*
X176332857Y-57828571D01*
X176761428Y-57828571D02*
X176761428Y-56328571D01*
X176618571Y-56542857D01*
X176475714Y-56685714D01*
X176332857Y-56757142D01*
X177832857Y-57685714D02*
X177904285Y-57757142D01*
X177832857Y-57828571D01*
X177761428Y-57757142D01*
X177832857Y-57685714D01*
X177832857Y-57828571D01*
X178832857Y-56328571D02*
X178975714Y-56328571D01*
X179118571Y-56400000D01*
X179190000Y-56471428D01*
X179261428Y-56614285D01*
X179332857Y-56900000D01*
X179332857Y-57257142D01*
X179261428Y-57542857D01*
X179190000Y-57685714D01*
X179118571Y-57757142D01*
X178975714Y-57828571D01*
X178832857Y-57828571D01*
X178690000Y-57757142D01*
X178618571Y-57685714D01*
X178547142Y-57542857D01*
X178475714Y-57257142D01*
X178475714Y-56900000D01*
X178547142Y-56614285D01*
X178618571Y-56471428D01*
X178690000Y-56400000D01*
X178832857Y-56328571D01*
D11*
X135580000Y-76400000D02*
X134230000Y-75250000D01*
X135580000Y-63300000D02*
X134230000Y-64450000D01*
X142830000Y-64950000D02*
X142830000Y-66850000D01*
X142830000Y-74750000D02*
X142830000Y-72850000D01*
X142830000Y-74750000D02*
X141180000Y-76400000D01*
X141180000Y-63300000D02*
X142830000Y-64950000D01*
X133733542Y-72351694D02*
G75*
G03X134230000Y-75250000I2296458J-1098306D01*
G01*
X133732393Y-67345902D02*
G75*
G02X134230000Y-64450000I2297607J1095902D01*
G01*
X176912393Y-67345902D02*
G75*
G02X177410000Y-64450000I2297607J1095902D01*
G01*
X176913542Y-72351694D02*
G75*
G03X177410000Y-75250000I2296458J-1098306D01*
G01*
X184360000Y-63300000D02*
X186010000Y-64950000D01*
X186010000Y-74750000D02*
X184360000Y-76400000D01*
X186010000Y-74750000D02*
X186010000Y-72850000D01*
X186010000Y-64950000D02*
X186010000Y-66850000D01*
X178760000Y-63300000D02*
X177410000Y-64450000D01*
X178760000Y-76400000D02*
X177410000Y-75250000D01*
D12*
X150871422Y-65330000D02*
X151388578Y-65330000D01*
X150871422Y-66750000D02*
X151388578Y-66750000D01*
X159272500Y-80970000D02*
X161957500Y-80970000D01*
X159272500Y-79050000D02*
X159272500Y-80970000D01*
X161957500Y-79050000D02*
X159272500Y-79050000D01*
X150871422Y-75640000D02*
X151388578Y-75640000D01*
X150871422Y-74220000D02*
X151388578Y-74220000D01*
X169921422Y-73100000D02*
X170438578Y-73100000D01*
X169921422Y-71680000D02*
X170438578Y-71680000D01*
X169921422Y-64060000D02*
X170438578Y-64060000D01*
X169921422Y-65480000D02*
X170438578Y-65480000D01*
D13*
X159215000Y-66005000D02*
X159215000Y-66055000D01*
X163365000Y-66005000D02*
X163365000Y-66150000D01*
X163365000Y-71155000D02*
X163365000Y-71010000D01*
X159215000Y-71155000D02*
X159215000Y-71010000D01*
X159215000Y-66005000D02*
X163365000Y-66005000D01*
X159215000Y-71155000D02*
X163365000Y-71155000D01*
X159215000Y-66055000D02*
X157815000Y-66055000D01*
X132358571Y-70635714D02*
X132406190Y-70492857D01*
X132453809Y-70445238D01*
X132549047Y-70397619D01*
X132691904Y-70397619D01*
X132787142Y-70445238D01*
X132834761Y-70492857D01*
X132882380Y-70588095D01*
X132882380Y-70969047D01*
X131882380Y-70969047D01*
X131882380Y-70635714D01*
X131930000Y-70540476D01*
X131977619Y-70492857D01*
X132072857Y-70445238D01*
X132168095Y-70445238D01*
X132263333Y-70492857D01*
X132310952Y-70540476D01*
X132358571Y-70635714D01*
X132358571Y-70969047D01*
X131882380Y-70111904D02*
X131882380Y-69540476D01*
X132882380Y-69826190D02*
X131882380Y-69826190D01*
X132882380Y-68683333D02*
X132882380Y-69254761D01*
X132882380Y-68969047D02*
X131882380Y-68969047D01*
X132025238Y-69064285D01*
X132120476Y-69159523D01*
X132168095Y-69254761D01*
X175538571Y-70635714D02*
X175586190Y-70492857D01*
X175633809Y-70445238D01*
X175729047Y-70397619D01*
X175871904Y-70397619D01*
X175967142Y-70445238D01*
X176014761Y-70492857D01*
X176062380Y-70588095D01*
X176062380Y-70969047D01*
X175062380Y-70969047D01*
X175062380Y-70635714D01*
X175110000Y-70540476D01*
X175157619Y-70492857D01*
X175252857Y-70445238D01*
X175348095Y-70445238D01*
X175443333Y-70492857D01*
X175490952Y-70540476D01*
X175538571Y-70635714D01*
X175538571Y-70969047D01*
X175062380Y-70111904D02*
X175062380Y-69540476D01*
X176062380Y-69826190D02*
X175062380Y-69826190D01*
X175157619Y-69254761D02*
X175110000Y-69207142D01*
X175062380Y-69111904D01*
X175062380Y-68873809D01*
X175110000Y-68778571D01*
X175157619Y-68730952D01*
X175252857Y-68683333D01*
X175348095Y-68683333D01*
X175490952Y-68730952D01*
X176062380Y-69302380D01*
X176062380Y-68683333D01*
X150963333Y-64747142D02*
X150915714Y-64794761D01*
X150772857Y-64842380D01*
X150677619Y-64842380D01*
X150534761Y-64794761D01*
X150439523Y-64699523D01*
X150391904Y-64604285D01*
X150344285Y-64413809D01*
X150344285Y-64270952D01*
X150391904Y-64080476D01*
X150439523Y-63985238D01*
X150534761Y-63890000D01*
X150677619Y-63842380D01*
X150772857Y-63842380D01*
X150915714Y-63890000D01*
X150963333Y-63937619D01*
X151915714Y-64842380D02*
X151344285Y-64842380D01*
X151630000Y-64842380D02*
X151630000Y-63842380D01*
X151534761Y-63985238D01*
X151439523Y-64080476D01*
X151344285Y-64128095D01*
X160219404Y-78812380D02*
X160219404Y-77812380D01*
X160457500Y-77812380D01*
X160600357Y-77860000D01*
X160695595Y-77955238D01*
X160743214Y-78050476D01*
X160790833Y-78240952D01*
X160790833Y-78383809D01*
X160743214Y-78574285D01*
X160695595Y-78669523D01*
X160600357Y-78764761D01*
X160457500Y-78812380D01*
X160219404Y-78812380D01*
X161743214Y-78812380D02*
X161171785Y-78812380D01*
X161457500Y-78812380D02*
X161457500Y-77812380D01*
X161362261Y-77955238D01*
X161267023Y-78050476D01*
X161171785Y-78098095D01*
X148344285Y-73065714D02*
X148725238Y-73065714D01*
X148487142Y-73732380D02*
X148487142Y-72875238D01*
X148534761Y-72780000D01*
X148630000Y-72732380D01*
X148725238Y-72732380D01*
X148963333Y-73065714D02*
X149201428Y-73732380D01*
X149439523Y-73065714D01*
X149582380Y-73827619D02*
X150344285Y-73827619D01*
X151010952Y-73065714D02*
X151010952Y-73875238D01*
X150963333Y-73970476D01*
X150915714Y-74018095D01*
X150820476Y-74065714D01*
X150677619Y-74065714D01*
X150582380Y-74018095D01*
X151010952Y-73684761D02*
X150915714Y-73732380D01*
X150725238Y-73732380D01*
X150630000Y-73684761D01*
X150582380Y-73637142D01*
X150534761Y-73541904D01*
X150534761Y-73256190D01*
X150582380Y-73160952D01*
X150630000Y-73113333D01*
X150725238Y-73065714D01*
X150915714Y-73065714D01*
X151010952Y-73113333D01*
X151487142Y-73065714D02*
X151487142Y-73732380D01*
X151487142Y-73160952D02*
X151534761Y-73113333D01*
X151630000Y-73065714D01*
X151772857Y-73065714D01*
X151868095Y-73113333D01*
X151915714Y-73208571D01*
X151915714Y-73732380D01*
X152820476Y-73732380D02*
X152820476Y-72732380D01*
X152820476Y-73684761D02*
X152725238Y-73732380D01*
X152534761Y-73732380D01*
X152439523Y-73684761D01*
X152391904Y-73637142D01*
X152344285Y-73541904D01*
X152344285Y-73256190D01*
X152391904Y-73160952D01*
X152439523Y-73113333D01*
X152534761Y-73065714D01*
X152725238Y-73065714D01*
X152820476Y-73113333D01*
X153820476Y-73732380D02*
X153249047Y-73732380D01*
X153534761Y-73732380D02*
X153534761Y-72732380D01*
X153439523Y-72875238D01*
X153344285Y-72970476D01*
X153249047Y-73018095D01*
X169203809Y-71192380D02*
X168870476Y-70716190D01*
X168632380Y-71192380D02*
X168632380Y-70192380D01*
X169013333Y-70192380D01*
X169108571Y-70240000D01*
X169156190Y-70287619D01*
X169203809Y-70382857D01*
X169203809Y-70525714D01*
X169156190Y-70620952D01*
X169108571Y-70668571D01*
X169013333Y-70716190D01*
X168632380Y-70716190D01*
X169394285Y-71287619D02*
X170156190Y-71287619D01*
X170346666Y-70906666D02*
X170822857Y-70906666D01*
X170251428Y-71192380D02*
X170584761Y-70192380D01*
X170918095Y-71192380D01*
X171775238Y-71192380D02*
X171203809Y-71192380D01*
X171489523Y-71192380D02*
X171489523Y-70192380D01*
X171394285Y-70335238D01*
X171299047Y-70430476D01*
X171203809Y-70478095D01*
X169132380Y-63572380D02*
X168799047Y-63096190D01*
X168560952Y-63572380D02*
X168560952Y-62572380D01*
X168941904Y-62572380D01*
X169037142Y-62620000D01*
X169084761Y-62667619D01*
X169132380Y-62762857D01*
X169132380Y-62905714D01*
X169084761Y-63000952D01*
X169037142Y-63048571D01*
X168941904Y-63096190D01*
X168560952Y-63096190D01*
X169322857Y-63667619D02*
X170084761Y-63667619D01*
X170656190Y-63048571D02*
X170799047Y-63096190D01*
X170846666Y-63143809D01*
X170894285Y-63239047D01*
X170894285Y-63381904D01*
X170846666Y-63477142D01*
X170799047Y-63524761D01*
X170703809Y-63572380D01*
X170322857Y-63572380D01*
X170322857Y-62572380D01*
X170656190Y-62572380D01*
X170751428Y-62620000D01*
X170799047Y-62667619D01*
X170846666Y-62762857D01*
X170846666Y-62858095D01*
X170799047Y-62953333D01*
X170751428Y-63000952D01*
X170656190Y-63048571D01*
X170322857Y-63048571D01*
X171846666Y-63572380D02*
X171275238Y-63572380D01*
X171560952Y-63572380D02*
X171560952Y-62572380D01*
X171465714Y-62715238D01*
X171370476Y-62810476D01*
X171275238Y-62858095D01*
X160528095Y-64532380D02*
X160528095Y-65341904D01*
X160575714Y-65437142D01*
X160623333Y-65484761D01*
X160718571Y-65532380D01*
X160909047Y-65532380D01*
X161004285Y-65484761D01*
X161051904Y-65437142D01*
X161099523Y-65341904D01*
X161099523Y-64532380D01*
X162099523Y-65532380D02*
X161528095Y-65532380D01*
X161813809Y-65532380D02*
X161813809Y-64532380D01*
X161718571Y-64675238D01*
X161623333Y-64770476D01*
X161528095Y-64818095D01*
M02*
