%TF.GenerationSoftware,KiCad,Pcbnew,(5.1.10)-1*%
%TF.CreationDate,2021-10-03T18:06:06-07:00*%
%TF.ProjectId,intro_project,696e7472-6f5f-4707-926f-6a6563742e6b,rev?*%
%TF.SameCoordinates,Original*%
%TF.FileFunction,Soldermask,Top*%
%TF.FilePolarity,Negative*%
%FSLAX46Y46*%
G04 Gerber Fmt 4.6, Leading zero omitted, Abs format (unit mm)*
G04 Created by KiCad (PCBNEW (5.1.10)-1) date 2021-10-03 18:06:06*
%MOMM*%
%LPD*%
G01*
G04 APERTURE LIST*
%ADD10R,0.450000X1.450000*%
%ADD11R,5.100000X2.500000*%
%ADD12C,10.200000*%
G04 APERTURE END LIST*
D10*
%TO.C,U1*%
X130160000Y-92370000D03*
X130810000Y-92370000D03*
X131460000Y-92370000D03*
X132110000Y-92370000D03*
X132110000Y-87970000D03*
X131460000Y-87970000D03*
X130810000Y-87970000D03*
X130160000Y-87970000D03*
%TD*%
D11*
%TO.C,BT1*%
X114300000Y-83840000D03*
X114300000Y-99040000D03*
D12*
X114300000Y-91440000D03*
%TD*%
%TO.C,BT2*%
X142240000Y-91420000D03*
D11*
X142240000Y-99020000D03*
X142240000Y-83820000D03*
%TD*%
%TO.C,C1*%
G36*
G01*
X123665000Y-93297500D02*
X122715000Y-93297500D01*
G75*
G02*
X122465000Y-93047500I0J250000D01*
G01*
X122465000Y-92372500D01*
G75*
G02*
X122715000Y-92122500I250000J0D01*
G01*
X123665000Y-92122500D01*
G75*
G02*
X123915000Y-92372500I0J-250000D01*
G01*
X123915000Y-93047500D01*
G75*
G02*
X123665000Y-93297500I-250000J0D01*
G01*
G37*
G36*
G01*
X123665000Y-95372500D02*
X122715000Y-95372500D01*
G75*
G02*
X122465000Y-95122500I0J250000D01*
G01*
X122465000Y-94447500D01*
G75*
G02*
X122715000Y-94197500I250000J0D01*
G01*
X123665000Y-94197500D01*
G75*
G02*
X123915000Y-94447500I0J-250000D01*
G01*
X123915000Y-95122500D01*
G75*
G02*
X123665000Y-95372500I-250000J0D01*
G01*
G37*
%TD*%
%TO.C,C2*%
G36*
G01*
X123665000Y-88217500D02*
X122715000Y-88217500D01*
G75*
G02*
X122465000Y-87967500I0J250000D01*
G01*
X122465000Y-87292500D01*
G75*
G02*
X122715000Y-87042500I250000J0D01*
G01*
X123665000Y-87042500D01*
G75*
G02*
X123915000Y-87292500I0J-250000D01*
G01*
X123915000Y-87967500D01*
G75*
G02*
X123665000Y-88217500I-250000J0D01*
G01*
G37*
G36*
G01*
X123665000Y-90292500D02*
X122715000Y-90292500D01*
G75*
G02*
X122465000Y-90042500I0J250000D01*
G01*
X122465000Y-89367500D01*
G75*
G02*
X122715000Y-89117500I250000J0D01*
G01*
X123665000Y-89117500D01*
G75*
G02*
X123915000Y-89367500I0J-250000D01*
G01*
X123915000Y-90042500D01*
G75*
G02*
X123665000Y-90292500I-250000J0D01*
G01*
G37*
%TD*%
%TO.C,D1*%
G36*
G01*
X129455000Y-84270001D02*
X129455000Y-83369999D01*
G75*
G02*
X129704999Y-83120000I249999J0D01*
G01*
X130355001Y-83120000D01*
G75*
G02*
X130605000Y-83369999I0J-249999D01*
G01*
X130605000Y-84270001D01*
G75*
G02*
X130355001Y-84520000I-249999J0D01*
G01*
X129704999Y-84520000D01*
G75*
G02*
X129455000Y-84270001I0J249999D01*
G01*
G37*
G36*
G01*
X131505000Y-84270001D02*
X131505000Y-83369999D01*
G75*
G02*
X131754999Y-83120000I249999J0D01*
G01*
X132405001Y-83120000D01*
G75*
G02*
X132655000Y-83369999I0J-249999D01*
G01*
X132655000Y-84270001D01*
G75*
G02*
X132405001Y-84520000I-249999J0D01*
G01*
X131754999Y-84520000D01*
G75*
G02*
X131505000Y-84270001I0J249999D01*
G01*
G37*
%TD*%
%TO.C,R1*%
G36*
G01*
X132210000Y-98240001D02*
X132210000Y-97339999D01*
G75*
G02*
X132459999Y-97090000I249999J0D01*
G01*
X133160001Y-97090000D01*
G75*
G02*
X133410000Y-97339999I0J-249999D01*
G01*
X133410000Y-98240001D01*
G75*
G02*
X133160001Y-98490000I-249999J0D01*
G01*
X132459999Y-98490000D01*
G75*
G02*
X132210000Y-98240001I0J249999D01*
G01*
G37*
G36*
G01*
X130210000Y-98240001D02*
X130210000Y-97339999D01*
G75*
G02*
X130459999Y-97090000I249999J0D01*
G01*
X131160001Y-97090000D01*
G75*
G02*
X131410000Y-97339999I0J-249999D01*
G01*
X131410000Y-98240001D01*
G75*
G02*
X131160001Y-98490000I-249999J0D01*
G01*
X130459999Y-98490000D01*
G75*
G02*
X130210000Y-98240001I0J249999D01*
G01*
G37*
%TD*%
%TO.C,R2*%
G36*
G01*
X123860000Y-98240001D02*
X123860000Y-97339999D01*
G75*
G02*
X124109999Y-97090000I249999J0D01*
G01*
X124810001Y-97090000D01*
G75*
G02*
X125060000Y-97339999I0J-249999D01*
G01*
X125060000Y-98240001D01*
G75*
G02*
X124810001Y-98490000I-249999J0D01*
G01*
X124109999Y-98490000D01*
G75*
G02*
X123860000Y-98240001I0J249999D01*
G01*
G37*
G36*
G01*
X125860000Y-98240001D02*
X125860000Y-97339999D01*
G75*
G02*
X126109999Y-97090000I249999J0D01*
G01*
X126810001Y-97090000D01*
G75*
G02*
X127060000Y-97339999I0J-249999D01*
G01*
X127060000Y-98240001D01*
G75*
G02*
X126810001Y-98490000I-249999J0D01*
G01*
X126109999Y-98490000D01*
G75*
G02*
X125860000Y-98240001I0J249999D01*
G01*
G37*
%TD*%
M02*
