%TF.GenerationSoftware,KiCad,Pcbnew,(6.0.2)*%
%TF.CreationDate,2022-02-27T09:47:09-08:00*%
%TF.ProjectId,intro project,696e7472-6f20-4707-926f-6a6563742e6b,rev?*%
%TF.SameCoordinates,Original*%
%TF.FileFunction,Legend,Top*%
%TF.FilePolarity,Positive*%
%FSLAX46Y46*%
G04 Gerber Fmt 4.6, Leading zero omitted, Abs format (unit mm)*
G04 Created by KiCad (PCBNEW (6.0.2)) date 2022-02-27 09:47:09*
%MOMM*%
%LPD*%
G01*
G04 APERTURE LIST*
%ADD10C,0.150000*%
%ADD11C,0.120000*%
G04 APERTURE END LIST*
D10*
%TO.C,U1*%
X116078095Y-74792380D02*
X116078095Y-75601904D01*
X116125714Y-75697142D01*
X116173333Y-75744761D01*
X116268571Y-75792380D01*
X116459047Y-75792380D01*
X116554285Y-75744761D01*
X116601904Y-75697142D01*
X116649523Y-75601904D01*
X116649523Y-74792380D01*
X117649523Y-75792380D02*
X117078095Y-75792380D01*
X117363809Y-75792380D02*
X117363809Y-74792380D01*
X117268571Y-74935238D01*
X117173333Y-75030476D01*
X117078095Y-75078095D01*
%TO.C,R2*%
X146859047Y-89217860D02*
X146525714Y-88741670D01*
X146287618Y-89217860D02*
X146287618Y-88217860D01*
X146668571Y-88217860D01*
X146763809Y-88265480D01*
X146811428Y-88313099D01*
X146859047Y-88408337D01*
X146859047Y-88551194D01*
X146811428Y-88646432D01*
X146763809Y-88694051D01*
X146668571Y-88741670D01*
X146287618Y-88741670D01*
X147239999Y-88313099D02*
X147287618Y-88265480D01*
X147382856Y-88217860D01*
X147620952Y-88217860D01*
X147716190Y-88265480D01*
X147763809Y-88313099D01*
X147811428Y-88408337D01*
X147811428Y-88503575D01*
X147763809Y-88646432D01*
X147192380Y-89217860D01*
X147811428Y-89217860D01*
%TO.C,R1*%
X134453333Y-75002380D02*
X134120000Y-74526190D01*
X133881904Y-75002380D02*
X133881904Y-74002380D01*
X134262857Y-74002380D01*
X134358095Y-74050000D01*
X134405714Y-74097619D01*
X134453333Y-74192857D01*
X134453333Y-74335714D01*
X134405714Y-74430952D01*
X134358095Y-74478571D01*
X134262857Y-74526190D01*
X133881904Y-74526190D01*
X135405714Y-75002380D02*
X134834285Y-75002380D01*
X135120000Y-75002380D02*
X135120000Y-74002380D01*
X135024761Y-74145238D01*
X134929523Y-74240476D01*
X134834285Y-74288095D01*
%TO.C,D1*%
X98321904Y-77542380D02*
X98321904Y-76542380D01*
X98560000Y-76542380D01*
X98702857Y-76590000D01*
X98798095Y-76685238D01*
X98845714Y-76780476D01*
X98893333Y-76970952D01*
X98893333Y-77113809D01*
X98845714Y-77304285D01*
X98798095Y-77399523D01*
X98702857Y-77494761D01*
X98560000Y-77542380D01*
X98321904Y-77542380D01*
X99845714Y-77542380D02*
X99274285Y-77542380D01*
X99560000Y-77542380D02*
X99560000Y-76542380D01*
X99464761Y-76685238D01*
X99369523Y-76780476D01*
X99274285Y-76828095D01*
%TO.C,C2*%
X103973333Y-87577142D02*
X103925714Y-87624761D01*
X103782857Y-87672380D01*
X103687619Y-87672380D01*
X103544761Y-87624761D01*
X103449523Y-87529523D01*
X103401904Y-87434285D01*
X103354285Y-87243809D01*
X103354285Y-87100952D01*
X103401904Y-86910476D01*
X103449523Y-86815238D01*
X103544761Y-86720000D01*
X103687619Y-86672380D01*
X103782857Y-86672380D01*
X103925714Y-86720000D01*
X103973333Y-86767619D01*
X104354285Y-86767619D02*
X104401904Y-86720000D01*
X104497142Y-86672380D01*
X104735238Y-86672380D01*
X104830476Y-86720000D01*
X104878095Y-86767619D01*
X104925714Y-86862857D01*
X104925714Y-86958095D01*
X104878095Y-87100952D01*
X104306666Y-87672380D01*
X104925714Y-87672380D01*
%TO.C,C1*%
X119213333Y-87577142D02*
X119165714Y-87624761D01*
X119022857Y-87672380D01*
X118927619Y-87672380D01*
X118784761Y-87624761D01*
X118689523Y-87529523D01*
X118641904Y-87434285D01*
X118594285Y-87243809D01*
X118594285Y-87100952D01*
X118641904Y-86910476D01*
X118689523Y-86815238D01*
X118784761Y-86720000D01*
X118927619Y-86672380D01*
X119022857Y-86672380D01*
X119165714Y-86720000D01*
X119213333Y-86767619D01*
X120165714Y-87672380D02*
X119594285Y-87672380D01*
X119880000Y-87672380D02*
X119880000Y-86672380D01*
X119784761Y-86815238D01*
X119689523Y-86910476D01*
X119594285Y-86958095D01*
%TO.C,BT2*%
X105894285Y-69428571D02*
X106037142Y-69476190D01*
X106084761Y-69523809D01*
X106132380Y-69619047D01*
X106132380Y-69761904D01*
X106084761Y-69857142D01*
X106037142Y-69904761D01*
X105941904Y-69952380D01*
X105560952Y-69952380D01*
X105560952Y-68952380D01*
X105894285Y-68952380D01*
X105989523Y-69000000D01*
X106037142Y-69047619D01*
X106084761Y-69142857D01*
X106084761Y-69238095D01*
X106037142Y-69333333D01*
X105989523Y-69380952D01*
X105894285Y-69428571D01*
X105560952Y-69428571D01*
X106418095Y-68952380D02*
X106989523Y-68952380D01*
X106703809Y-69952380D02*
X106703809Y-68952380D01*
X107275238Y-69047619D02*
X107322857Y-69000000D01*
X107418095Y-68952380D01*
X107656190Y-68952380D01*
X107751428Y-69000000D01*
X107799047Y-69047619D01*
X107846666Y-69142857D01*
X107846666Y-69238095D01*
X107799047Y-69380952D01*
X107227619Y-69952380D01*
X107846666Y-69952380D01*
%TO.C,BT1*%
X136374285Y-69428571D02*
X136517142Y-69476190D01*
X136564761Y-69523809D01*
X136612380Y-69619047D01*
X136612380Y-69761904D01*
X136564761Y-69857142D01*
X136517142Y-69904761D01*
X136421904Y-69952380D01*
X136040952Y-69952380D01*
X136040952Y-68952380D01*
X136374285Y-68952380D01*
X136469523Y-69000000D01*
X136517142Y-69047619D01*
X136564761Y-69142857D01*
X136564761Y-69238095D01*
X136517142Y-69333333D01*
X136469523Y-69380952D01*
X136374285Y-69428571D01*
X136040952Y-69428571D01*
X136898095Y-68952380D02*
X137469523Y-68952380D01*
X137183809Y-69952380D02*
X137183809Y-68952380D01*
X138326666Y-69952380D02*
X137755238Y-69952380D01*
X138040952Y-69952380D02*
X138040952Y-68952380D01*
X137945714Y-69095238D01*
X137850476Y-69190476D01*
X137755238Y-69238095D01*
D11*
%TO.C,U1*%
X116840000Y-76180000D02*
X118790000Y-76180000D01*
X116840000Y-81300000D02*
X118790000Y-81300000D01*
X116840000Y-76180000D02*
X113390000Y-76180000D01*
X116840000Y-81300000D02*
X114890000Y-81300000D01*
%TO.C,R2*%
X146798650Y-89680480D02*
X147252778Y-89680480D01*
X146798650Y-91150480D02*
X147252778Y-91150480D01*
%TO.C,R1*%
X134392936Y-75465000D02*
X134847064Y-75465000D01*
X134392936Y-76935000D02*
X134847064Y-76935000D01*
%TO.C,D1*%
X100060000Y-77780000D02*
X97375000Y-77780000D01*
X97375000Y-77780000D02*
X97375000Y-79700000D01*
X97375000Y-79700000D02*
X100060000Y-79700000D01*
%TO.C,C2*%
X103878748Y-89635000D02*
X104401252Y-89635000D01*
X103878748Y-88165000D02*
X104401252Y-88165000D01*
%TO.C,C1*%
X119118748Y-88165000D02*
X119641252Y-88165000D01*
X119118748Y-89635000D02*
X119641252Y-89635000D01*
%TO.C,BT2*%
X111580000Y-59100000D02*
X113230000Y-60750000D01*
X111580000Y-59100000D02*
X109680000Y-59100000D01*
X113230000Y-66350000D02*
X112080000Y-67700000D01*
X100130000Y-60750000D02*
X101780000Y-59100000D01*
X101780000Y-59100000D02*
X103680000Y-59100000D01*
X100130000Y-66350000D02*
X101280000Y-67700000D01*
X101280000Y-67700000D02*
G75*
G03*
X104175902Y-68197607I1800000J1800000D01*
G01*
X109181694Y-68196459D02*
G75*
G03*
X112080000Y-67700000I1098306J2296461D01*
G01*
%TO.C,BT1*%
X142060000Y-59100000D02*
X143710000Y-60750000D01*
X142060000Y-59100000D02*
X140160000Y-59100000D01*
X143710000Y-66350000D02*
X142560000Y-67700000D01*
X130610000Y-60750000D02*
X132260000Y-59100000D01*
X132260000Y-59100000D02*
X134160000Y-59100000D01*
X130610000Y-66350000D02*
X131760000Y-67700000D01*
X131760000Y-67700000D02*
G75*
G03*
X134655902Y-68197607I1800000J1800000D01*
G01*
X139661694Y-68196459D02*
G75*
G03*
X142560000Y-67700000I1098306J2296461D01*
G01*
%TD*%
M02*
