%TF.GenerationSoftware,KiCad,Pcbnew,(5.1.10-1-10_14)*%
%TF.CreationDate,2021-09-30T18:11:30-07:00*%
%TF.ProjectId,JaredTimer,4a617265-6454-4696-9d65-722e6b696361,rev?*%
%TF.SameCoordinates,Original*%
%TF.FileFunction,Legend,Top*%
%TF.FilePolarity,Positive*%
%FSLAX46Y46*%
G04 Gerber Fmt 4.6, Leading zero omitted, Abs format (unit mm)*
G04 Created by KiCad (PCBNEW (5.1.10-1-10_14)) date 2021-09-30 18:11:30*
%MOMM*%
%LPD*%
G01*
G04 APERTURE LIST*
%ADD10C,0.150000*%
%ADD11C,0.120000*%
G04 APERTURE END LIST*
D10*
X110269523Y-68032380D02*
X109793333Y-68032380D01*
X109745714Y-68508571D01*
X109793333Y-68460952D01*
X109888571Y-68413333D01*
X110126666Y-68413333D01*
X110221904Y-68460952D01*
X110269523Y-68508571D01*
X110317142Y-68603809D01*
X110317142Y-68841904D01*
X110269523Y-68937142D01*
X110221904Y-68984761D01*
X110126666Y-69032380D01*
X109888571Y-69032380D01*
X109793333Y-68984761D01*
X109745714Y-68937142D01*
X111221904Y-68032380D02*
X110745714Y-68032380D01*
X110698095Y-68508571D01*
X110745714Y-68460952D01*
X110840952Y-68413333D01*
X111079047Y-68413333D01*
X111174285Y-68460952D01*
X111221904Y-68508571D01*
X111269523Y-68603809D01*
X111269523Y-68841904D01*
X111221904Y-68937142D01*
X111174285Y-68984761D01*
X111079047Y-69032380D01*
X110840952Y-69032380D01*
X110745714Y-68984761D01*
X110698095Y-68937142D01*
X112174285Y-68032380D02*
X111698095Y-68032380D01*
X111650476Y-68508571D01*
X111698095Y-68460952D01*
X111793333Y-68413333D01*
X112031428Y-68413333D01*
X112126666Y-68460952D01*
X112174285Y-68508571D01*
X112221904Y-68603809D01*
X112221904Y-68841904D01*
X112174285Y-68937142D01*
X112126666Y-68984761D01*
X112031428Y-69032380D01*
X111793333Y-69032380D01*
X111698095Y-68984761D01*
X111650476Y-68937142D01*
X113364761Y-68746666D02*
X113840952Y-68746666D01*
X113269523Y-69032380D02*
X113602857Y-68032380D01*
X113936190Y-69032380D01*
X114221904Y-68984761D02*
X114317142Y-69032380D01*
X114507619Y-69032380D01*
X114602857Y-68984761D01*
X114650476Y-68889523D01*
X114650476Y-68841904D01*
X114602857Y-68746666D01*
X114507619Y-68699047D01*
X114364761Y-68699047D01*
X114269523Y-68651428D01*
X114221904Y-68556190D01*
X114221904Y-68508571D01*
X114269523Y-68413333D01*
X114364761Y-68365714D01*
X114507619Y-68365714D01*
X114602857Y-68413333D01*
X114936190Y-68365714D02*
X115317142Y-68365714D01*
X115079047Y-68032380D02*
X115079047Y-68889523D01*
X115126666Y-68984761D01*
X115221904Y-69032380D01*
X115317142Y-69032380D01*
X116079047Y-69032380D02*
X116079047Y-68508571D01*
X116031428Y-68413333D01*
X115936190Y-68365714D01*
X115745714Y-68365714D01*
X115650476Y-68413333D01*
X116079047Y-68984761D02*
X115983809Y-69032380D01*
X115745714Y-69032380D01*
X115650476Y-68984761D01*
X115602857Y-68889523D01*
X115602857Y-68794285D01*
X115650476Y-68699047D01*
X115745714Y-68651428D01*
X115983809Y-68651428D01*
X116079047Y-68603809D01*
X116555238Y-69032380D02*
X116555238Y-68032380D01*
X116555238Y-68413333D02*
X116650476Y-68365714D01*
X116840952Y-68365714D01*
X116936190Y-68413333D01*
X116983809Y-68460952D01*
X117031428Y-68556190D01*
X117031428Y-68841904D01*
X116983809Y-68937142D01*
X116936190Y-68984761D01*
X116840952Y-69032380D01*
X116650476Y-69032380D01*
X116555238Y-68984761D01*
X117602857Y-69032380D02*
X117507619Y-68984761D01*
X117460000Y-68889523D01*
X117460000Y-68032380D01*
X118364761Y-68984761D02*
X118269523Y-69032380D01*
X118079047Y-69032380D01*
X117983809Y-68984761D01*
X117936190Y-68889523D01*
X117936190Y-68508571D01*
X117983809Y-68413333D01*
X118079047Y-68365714D01*
X118269523Y-68365714D01*
X118364761Y-68413333D01*
X118412380Y-68508571D01*
X118412380Y-68603809D01*
X117936190Y-68699047D01*
X119460000Y-68032380D02*
X120031428Y-68032380D01*
X119745714Y-69032380D02*
X119745714Y-68032380D01*
X120364761Y-69032380D02*
X120364761Y-68365714D01*
X120364761Y-68032380D02*
X120317142Y-68080000D01*
X120364761Y-68127619D01*
X120412380Y-68080000D01*
X120364761Y-68032380D01*
X120364761Y-68127619D01*
X120840952Y-69032380D02*
X120840952Y-68365714D01*
X120840952Y-68460952D02*
X120888571Y-68413333D01*
X120983809Y-68365714D01*
X121126666Y-68365714D01*
X121221904Y-68413333D01*
X121269523Y-68508571D01*
X121269523Y-69032380D01*
X121269523Y-68508571D02*
X121317142Y-68413333D01*
X121412380Y-68365714D01*
X121555238Y-68365714D01*
X121650476Y-68413333D01*
X121698095Y-68508571D01*
X121698095Y-69032380D01*
X122555238Y-68984761D02*
X122460000Y-69032380D01*
X122269523Y-69032380D01*
X122174285Y-68984761D01*
X122126666Y-68889523D01*
X122126666Y-68508571D01*
X122174285Y-68413333D01*
X122269523Y-68365714D01*
X122460000Y-68365714D01*
X122555238Y-68413333D01*
X122602857Y-68508571D01*
X122602857Y-68603809D01*
X122126666Y-68699047D01*
X123031428Y-69032380D02*
X123031428Y-68365714D01*
X123031428Y-68556190D02*
X123079047Y-68460952D01*
X123126666Y-68413333D01*
X123221904Y-68365714D01*
X123317142Y-68365714D01*
X124698095Y-68032380D02*
X124698095Y-68746666D01*
X124650476Y-68889523D01*
X124555238Y-68984761D01*
X124412380Y-69032380D01*
X124317142Y-69032380D01*
X125602857Y-69032380D02*
X125602857Y-68508571D01*
X125555238Y-68413333D01*
X125459999Y-68365714D01*
X125269523Y-68365714D01*
X125174285Y-68413333D01*
X125602857Y-68984761D02*
X125507619Y-69032380D01*
X125269523Y-69032380D01*
X125174285Y-68984761D01*
X125126666Y-68889523D01*
X125126666Y-68794285D01*
X125174285Y-68699047D01*
X125269523Y-68651428D01*
X125507619Y-68651428D01*
X125602857Y-68603809D01*
X126079047Y-69032380D02*
X126079047Y-68365714D01*
X126079047Y-68556190D02*
X126126666Y-68460952D01*
X126174285Y-68413333D01*
X126269523Y-68365714D01*
X126364761Y-68365714D01*
X127079047Y-68984761D02*
X126983809Y-69032380D01*
X126793333Y-69032380D01*
X126698095Y-68984761D01*
X126650476Y-68889523D01*
X126650476Y-68508571D01*
X126698095Y-68413333D01*
X126793333Y-68365714D01*
X126983809Y-68365714D01*
X127079047Y-68413333D01*
X127126666Y-68508571D01*
X127126666Y-68603809D01*
X126650476Y-68699047D01*
X127983809Y-69032380D02*
X127983809Y-68032380D01*
X127983809Y-68984761D02*
X127888571Y-69032380D01*
X127698095Y-69032380D01*
X127602857Y-68984761D01*
X127555238Y-68937142D01*
X127507619Y-68841904D01*
X127507619Y-68556190D01*
X127555238Y-68460952D01*
X127602857Y-68413333D01*
X127698095Y-68365714D01*
X127888571Y-68365714D01*
X127983809Y-68413333D01*
X129745714Y-68080000D02*
X129650476Y-68032380D01*
X129507619Y-68032380D01*
X129364761Y-68080000D01*
X129269523Y-68175238D01*
X129221904Y-68270476D01*
X129174285Y-68460952D01*
X129174285Y-68603809D01*
X129221904Y-68794285D01*
X129269523Y-68889523D01*
X129364761Y-68984761D01*
X129507619Y-69032380D01*
X129602857Y-69032380D01*
X129745714Y-68984761D01*
X129793333Y-68937142D01*
X129793333Y-68603809D01*
X129602857Y-68603809D01*
X130650476Y-68365714D02*
X130650476Y-69032380D01*
X130221904Y-68365714D02*
X130221904Y-68889523D01*
X130269523Y-68984761D01*
X130364761Y-69032380D01*
X130507619Y-69032380D01*
X130602857Y-68984761D01*
X130650476Y-68937142D01*
X131507619Y-68984761D02*
X131412380Y-69032380D01*
X131221904Y-69032380D01*
X131126666Y-68984761D01*
X131079047Y-68889523D01*
X131079047Y-68508571D01*
X131126666Y-68413333D01*
X131221904Y-68365714D01*
X131412380Y-68365714D01*
X131507619Y-68413333D01*
X131555238Y-68508571D01*
X131555238Y-68603809D01*
X131079047Y-68699047D01*
X131983809Y-69032380D02*
X131983809Y-68365714D01*
X131983809Y-68556190D02*
X132031428Y-68460952D01*
X132079047Y-68413333D01*
X132174285Y-68365714D01*
X132269523Y-68365714D01*
X132602857Y-69032380D02*
X132602857Y-68365714D01*
X132602857Y-68556190D02*
X132650476Y-68460952D01*
X132698095Y-68413333D01*
X132793333Y-68365714D01*
X132888571Y-68365714D01*
X133602857Y-68984761D02*
X133507619Y-69032380D01*
X133317142Y-69032380D01*
X133221904Y-68984761D01*
X133174285Y-68889523D01*
X133174285Y-68508571D01*
X133221904Y-68413333D01*
X133317142Y-68365714D01*
X133507619Y-68365714D01*
X133602857Y-68413333D01*
X133650476Y-68508571D01*
X133650476Y-68603809D01*
X133174285Y-68699047D01*
X134079047Y-69032380D02*
X134079047Y-68365714D01*
X134079047Y-68556190D02*
X134126666Y-68460952D01*
X134174285Y-68413333D01*
X134269523Y-68365714D01*
X134364761Y-68365714D01*
X134840952Y-69032380D02*
X134745714Y-68984761D01*
X134698095Y-68937142D01*
X134650476Y-68841904D01*
X134650476Y-68556190D01*
X134698095Y-68460952D01*
X134745714Y-68413333D01*
X134840952Y-68365714D01*
X134983809Y-68365714D01*
X135079047Y-68413333D01*
X135126666Y-68460952D01*
X135174285Y-68556190D01*
X135174285Y-68841904D01*
X135126666Y-68937142D01*
X135079047Y-68984761D01*
X134983809Y-69032380D01*
X134840952Y-69032380D01*
X136221904Y-68032380D02*
X136555238Y-69032380D01*
X136888571Y-68032380D01*
X137745714Y-69032380D02*
X137174285Y-69032380D01*
X137460000Y-69032380D02*
X137460000Y-68032380D01*
X137364761Y-68175238D01*
X137269523Y-68270476D01*
X137174285Y-68318095D01*
X138174285Y-68937142D02*
X138221904Y-68984761D01*
X138174285Y-69032380D01*
X138126666Y-68984761D01*
X138174285Y-68937142D01*
X138174285Y-69032380D01*
X138840952Y-68032380D02*
X138936190Y-68032380D01*
X139031428Y-68080000D01*
X139079047Y-68127619D01*
X139126666Y-68222857D01*
X139174285Y-68413333D01*
X139174285Y-68651428D01*
X139126666Y-68841904D01*
X139079047Y-68937142D01*
X139031428Y-68984761D01*
X138936190Y-69032380D01*
X138840952Y-69032380D01*
X138745714Y-68984761D01*
X138698095Y-68937142D01*
X138650476Y-68841904D01*
X138602857Y-68651428D01*
X138602857Y-68413333D01*
X138650476Y-68222857D01*
X138698095Y-68127619D01*
X138745714Y-68080000D01*
X138840952Y-68032380D01*
D11*
%TO.C,BT1*%
X106990000Y-73460000D02*
X108340000Y-74610000D01*
X106990000Y-86560000D02*
X108340000Y-85410000D01*
X99740000Y-84910000D02*
X99740000Y-83010000D01*
X99740000Y-75110000D02*
X99740000Y-77010000D01*
X99740000Y-75110000D02*
X101390000Y-73460000D01*
X101390000Y-86560000D02*
X99740000Y-84910000D01*
X108836458Y-77508306D02*
G75*
G03*
X108340000Y-74610000I-2296458J1098306D01*
G01*
X108837607Y-82514098D02*
G75*
G02*
X108340000Y-85410000I-2297607J-1095902D01*
G01*
%TO.C,BT2*%
X148800000Y-76000000D02*
X150450000Y-77650000D01*
X150450000Y-87450000D02*
X148800000Y-89100000D01*
X150450000Y-87450000D02*
X150450000Y-85550000D01*
X150450000Y-77650000D02*
X150450000Y-79550000D01*
X143200000Y-76000000D02*
X141850000Y-77150000D01*
X143200000Y-89100000D02*
X141850000Y-87950000D01*
X141352393Y-80045902D02*
G75*
G02*
X141850000Y-77150000I2297607J1095902D01*
G01*
X141353542Y-85051694D02*
G75*
G03*
X141850000Y-87950000I2296458J-1098306D01*
G01*
%TO.C,C1*%
X117375000Y-77731252D02*
X117375000Y-77208748D01*
X118845000Y-77731252D02*
X118845000Y-77208748D01*
%TO.C,C2*%
X118845000Y-82811252D02*
X118845000Y-82288748D01*
X117375000Y-82811252D02*
X117375000Y-82288748D01*
%TO.C,D1*%
X124770000Y-71390000D02*
X124770000Y-74075000D01*
X124770000Y-74075000D02*
X126690000Y-74075000D01*
X126690000Y-74075000D02*
X126690000Y-71390000D01*
%TO.C,R1*%
X134085000Y-90397064D02*
X134085000Y-89942936D01*
X132615000Y-90397064D02*
X132615000Y-89942936D01*
%TO.C,R2*%
X124995000Y-90397064D02*
X124995000Y-89942936D01*
X126465000Y-90397064D02*
X126465000Y-89942936D01*
%TO.C,U1*%
X129560000Y-81280000D02*
X129560000Y-79330000D01*
X129560000Y-81280000D02*
X129560000Y-83230000D01*
X124440000Y-81280000D02*
X124440000Y-79330000D01*
X124440000Y-81280000D02*
X124440000Y-84730000D01*
%TO.C,BT1*%
D10*
X110068571Y-80795714D02*
X110116190Y-80652857D01*
X110163809Y-80605238D01*
X110259047Y-80557619D01*
X110401904Y-80557619D01*
X110497142Y-80605238D01*
X110544761Y-80652857D01*
X110592380Y-80748095D01*
X110592380Y-81129047D01*
X109592380Y-81129047D01*
X109592380Y-80795714D01*
X109640000Y-80700476D01*
X109687619Y-80652857D01*
X109782857Y-80605238D01*
X109878095Y-80605238D01*
X109973333Y-80652857D01*
X110020952Y-80700476D01*
X110068571Y-80795714D01*
X110068571Y-81129047D01*
X109592380Y-80271904D02*
X109592380Y-79700476D01*
X110592380Y-79986190D02*
X109592380Y-79986190D01*
X110592380Y-78843333D02*
X110592380Y-79414761D01*
X110592380Y-79129047D02*
X109592380Y-79129047D01*
X109735238Y-79224285D01*
X109830476Y-79319523D01*
X109878095Y-79414761D01*
%TO.C,BT2*%
X139978571Y-83335714D02*
X140026190Y-83192857D01*
X140073809Y-83145238D01*
X140169047Y-83097619D01*
X140311904Y-83097619D01*
X140407142Y-83145238D01*
X140454761Y-83192857D01*
X140502380Y-83288095D01*
X140502380Y-83669047D01*
X139502380Y-83669047D01*
X139502380Y-83335714D01*
X139550000Y-83240476D01*
X139597619Y-83192857D01*
X139692857Y-83145238D01*
X139788095Y-83145238D01*
X139883333Y-83192857D01*
X139930952Y-83240476D01*
X139978571Y-83335714D01*
X139978571Y-83669047D01*
X139502380Y-82811904D02*
X139502380Y-82240476D01*
X140502380Y-82526190D02*
X139502380Y-82526190D01*
X139597619Y-81954761D02*
X139550000Y-81907142D01*
X139502380Y-81811904D01*
X139502380Y-81573809D01*
X139550000Y-81478571D01*
X139597619Y-81430952D01*
X139692857Y-81383333D01*
X139788095Y-81383333D01*
X139930952Y-81430952D01*
X140502380Y-82002380D01*
X140502380Y-81383333D01*
%TO.C,C1*%
X116787142Y-77636666D02*
X116834761Y-77684285D01*
X116882380Y-77827142D01*
X116882380Y-77922380D01*
X116834761Y-78065238D01*
X116739523Y-78160476D01*
X116644285Y-78208095D01*
X116453809Y-78255714D01*
X116310952Y-78255714D01*
X116120476Y-78208095D01*
X116025238Y-78160476D01*
X115930000Y-78065238D01*
X115882380Y-77922380D01*
X115882380Y-77827142D01*
X115930000Y-77684285D01*
X115977619Y-77636666D01*
X116882380Y-76684285D02*
X116882380Y-77255714D01*
X116882380Y-76970000D02*
X115882380Y-76970000D01*
X116025238Y-77065238D01*
X116120476Y-77160476D01*
X116168095Y-77255714D01*
%TO.C,C2*%
X116787142Y-82716666D02*
X116834761Y-82764285D01*
X116882380Y-82907142D01*
X116882380Y-83002380D01*
X116834761Y-83145238D01*
X116739523Y-83240476D01*
X116644285Y-83288095D01*
X116453809Y-83335714D01*
X116310952Y-83335714D01*
X116120476Y-83288095D01*
X116025238Y-83240476D01*
X115930000Y-83145238D01*
X115882380Y-83002380D01*
X115882380Y-82907142D01*
X115930000Y-82764285D01*
X115977619Y-82716666D01*
X115977619Y-82335714D02*
X115930000Y-82288095D01*
X115882380Y-82192857D01*
X115882380Y-81954761D01*
X115930000Y-81859523D01*
X115977619Y-81811904D01*
X116072857Y-81764285D01*
X116168095Y-81764285D01*
X116310952Y-81811904D01*
X116882380Y-82383333D01*
X116882380Y-81764285D01*
%TO.C,D1*%
X124532380Y-73128095D02*
X123532380Y-73128095D01*
X123532380Y-72890000D01*
X123580000Y-72747142D01*
X123675238Y-72651904D01*
X123770476Y-72604285D01*
X123960952Y-72556666D01*
X124103809Y-72556666D01*
X124294285Y-72604285D01*
X124389523Y-72651904D01*
X124484761Y-72747142D01*
X124532380Y-72890000D01*
X124532380Y-73128095D01*
X124532380Y-71604285D02*
X124532380Y-72175714D01*
X124532380Y-71890000D02*
X123532380Y-71890000D01*
X123675238Y-71985238D01*
X123770476Y-72080476D01*
X123818095Y-72175714D01*
%TO.C,R1*%
X132152380Y-90336666D02*
X131676190Y-90670000D01*
X132152380Y-90908095D02*
X131152380Y-90908095D01*
X131152380Y-90527142D01*
X131200000Y-90431904D01*
X131247619Y-90384285D01*
X131342857Y-90336666D01*
X131485714Y-90336666D01*
X131580952Y-90384285D01*
X131628571Y-90431904D01*
X131676190Y-90527142D01*
X131676190Y-90908095D01*
X132152380Y-89384285D02*
X132152380Y-89955714D01*
X132152380Y-89670000D02*
X131152380Y-89670000D01*
X131295238Y-89765238D01*
X131390476Y-89860476D01*
X131438095Y-89955714D01*
%TO.C,R2*%
X124532380Y-90336666D02*
X124056190Y-90670000D01*
X124532380Y-90908095D02*
X123532380Y-90908095D01*
X123532380Y-90527142D01*
X123580000Y-90431904D01*
X123627619Y-90384285D01*
X123722857Y-90336666D01*
X123865714Y-90336666D01*
X123960952Y-90384285D01*
X124008571Y-90431904D01*
X124056190Y-90527142D01*
X124056190Y-90908095D01*
X123627619Y-89955714D02*
X123580000Y-89908095D01*
X123532380Y-89812857D01*
X123532380Y-89574761D01*
X123580000Y-89479523D01*
X123627619Y-89431904D01*
X123722857Y-89384285D01*
X123818095Y-89384285D01*
X123960952Y-89431904D01*
X124532380Y-90003333D01*
X124532380Y-89384285D01*
%TO.C,U1*%
X123052380Y-82041904D02*
X123861904Y-82041904D01*
X123957142Y-81994285D01*
X124004761Y-81946666D01*
X124052380Y-81851428D01*
X124052380Y-81660952D01*
X124004761Y-81565714D01*
X123957142Y-81518095D01*
X123861904Y-81470476D01*
X123052380Y-81470476D01*
X124052380Y-80470476D02*
X124052380Y-81041904D01*
X124052380Y-80756190D02*
X123052380Y-80756190D01*
X123195238Y-80851428D01*
X123290476Y-80946666D01*
X123338095Y-81041904D01*
%TD*%
M02*
