%TF.GenerationSoftware,KiCad,Pcbnew,(5.1.10)-1*%
%TF.CreationDate,2021-09-27T22:12:15-07:00*%
%TF.ProjectId,KiCad_IntroProject_SG,4b694361-645f-4496-9e74-726f50726f6a,rev?*%
%TF.SameCoordinates,Original*%
%TF.FileFunction,Copper,L1,Top*%
%TF.FilePolarity,Positive*%
%FSLAX46Y46*%
G04 Gerber Fmt 4.6, Leading zero omitted, Abs format (unit mm)*
G04 Created by KiCad (PCBNEW (5.1.10)-1) date 2021-09-27 22:12:15*
%MOMM*%
%LPD*%
G01*
G04 APERTURE LIST*
%TA.AperFunction,NonConductor*%
%ADD10C,0.300000*%
%TD*%
%TA.AperFunction,SMDPad,CuDef*%
%ADD11R,2.500000X5.100000*%
%TD*%
%TA.AperFunction,SMDPad,CuDef*%
%ADD12C,10.200000*%
%TD*%
%TA.AperFunction,Conductor*%
%ADD13C,0.250000*%
%TD*%
G04 APERTURE END LIST*
D10*
X124302857Y-77918571D02*
X123588571Y-77918571D01*
X123517142Y-78632857D01*
X123588571Y-78561428D01*
X123731428Y-78490000D01*
X124088571Y-78490000D01*
X124231428Y-78561428D01*
X124302857Y-78632857D01*
X124374285Y-78775714D01*
X124374285Y-79132857D01*
X124302857Y-79275714D01*
X124231428Y-79347142D01*
X124088571Y-79418571D01*
X123731428Y-79418571D01*
X123588571Y-79347142D01*
X123517142Y-79275714D01*
X125731428Y-77918571D02*
X125017142Y-77918571D01*
X124945714Y-78632857D01*
X125017142Y-78561428D01*
X125160000Y-78490000D01*
X125517142Y-78490000D01*
X125660000Y-78561428D01*
X125731428Y-78632857D01*
X125802857Y-78775714D01*
X125802857Y-79132857D01*
X125731428Y-79275714D01*
X125660000Y-79347142D01*
X125517142Y-79418571D01*
X125160000Y-79418571D01*
X125017142Y-79347142D01*
X124945714Y-79275714D01*
X127160000Y-77918571D02*
X126445714Y-77918571D01*
X126374285Y-78632857D01*
X126445714Y-78561428D01*
X126588571Y-78490000D01*
X126945714Y-78490000D01*
X127088571Y-78561428D01*
X127160000Y-78632857D01*
X127231428Y-78775714D01*
X127231428Y-79132857D01*
X127160000Y-79275714D01*
X127088571Y-79347142D01*
X126945714Y-79418571D01*
X126588571Y-79418571D01*
X126445714Y-79347142D01*
X126374285Y-79275714D01*
X128945714Y-78990000D02*
X129660000Y-78990000D01*
X128802857Y-79418571D02*
X129302857Y-77918571D01*
X129802857Y-79418571D01*
X130231428Y-79347142D02*
X130374285Y-79418571D01*
X130660000Y-79418571D01*
X130802857Y-79347142D01*
X130874285Y-79204285D01*
X130874285Y-79132857D01*
X130802857Y-78990000D01*
X130660000Y-78918571D01*
X130445714Y-78918571D01*
X130302857Y-78847142D01*
X130231428Y-78704285D01*
X130231428Y-78632857D01*
X130302857Y-78490000D01*
X130445714Y-78418571D01*
X130660000Y-78418571D01*
X130802857Y-78490000D01*
X131302857Y-78418571D02*
X131874285Y-78418571D01*
X131517142Y-77918571D02*
X131517142Y-79204285D01*
X131588571Y-79347142D01*
X131731428Y-79418571D01*
X131874285Y-79418571D01*
X133017142Y-79418571D02*
X133017142Y-78632857D01*
X132945714Y-78490000D01*
X132802857Y-78418571D01*
X132517142Y-78418571D01*
X132374285Y-78490000D01*
X133017142Y-79347142D02*
X132874285Y-79418571D01*
X132517142Y-79418571D01*
X132374285Y-79347142D01*
X132302857Y-79204285D01*
X132302857Y-79061428D01*
X132374285Y-78918571D01*
X132517142Y-78847142D01*
X132874285Y-78847142D01*
X133017142Y-78775714D01*
X133731428Y-79418571D02*
X133731428Y-77918571D01*
X133731428Y-78490000D02*
X133874285Y-78418571D01*
X134160000Y-78418571D01*
X134302857Y-78490000D01*
X134374285Y-78561428D01*
X134445714Y-78704285D01*
X134445714Y-79132857D01*
X134374285Y-79275714D01*
X134302857Y-79347142D01*
X134160000Y-79418571D01*
X133874285Y-79418571D01*
X133731428Y-79347142D01*
X135302857Y-79418571D02*
X135160000Y-79347142D01*
X135088571Y-79204285D01*
X135088571Y-77918571D01*
X136445714Y-79347142D02*
X136302857Y-79418571D01*
X136017142Y-79418571D01*
X135874285Y-79347142D01*
X135802857Y-79204285D01*
X135802857Y-78632857D01*
X135874285Y-78490000D01*
X136017142Y-78418571D01*
X136302857Y-78418571D01*
X136445714Y-78490000D01*
X136517142Y-78632857D01*
X136517142Y-78775714D01*
X135802857Y-78918571D01*
X138088571Y-77918571D02*
X138945714Y-77918571D01*
X138517142Y-79418571D02*
X138517142Y-77918571D01*
X139445714Y-79418571D02*
X139445714Y-78418571D01*
X139445714Y-77918571D02*
X139374285Y-77990000D01*
X139445714Y-78061428D01*
X139517142Y-77990000D01*
X139445714Y-77918571D01*
X139445714Y-78061428D01*
X140160000Y-79418571D02*
X140160000Y-78418571D01*
X140160000Y-78561428D02*
X140231428Y-78490000D01*
X140374285Y-78418571D01*
X140588571Y-78418571D01*
X140731428Y-78490000D01*
X140802857Y-78632857D01*
X140802857Y-79418571D01*
X140802857Y-78632857D02*
X140874285Y-78490000D01*
X141017142Y-78418571D01*
X141231428Y-78418571D01*
X141374285Y-78490000D01*
X141445714Y-78632857D01*
X141445714Y-79418571D01*
X142731428Y-79347142D02*
X142588571Y-79418571D01*
X142302857Y-79418571D01*
X142160000Y-79347142D01*
X142088571Y-79204285D01*
X142088571Y-78632857D01*
X142160000Y-78490000D01*
X142302857Y-78418571D01*
X142588571Y-78418571D01*
X142731428Y-78490000D01*
X142802857Y-78632857D01*
X142802857Y-78775714D01*
X142088571Y-78918571D01*
X143445714Y-79418571D02*
X143445714Y-78418571D01*
X143445714Y-78704285D02*
X143517142Y-78561428D01*
X143588571Y-78490000D01*
X143731428Y-78418571D01*
X143874285Y-78418571D01*
X145517142Y-78847142D02*
X146660000Y-78847142D01*
X148445714Y-79347142D02*
X148660000Y-79418571D01*
X149017142Y-79418571D01*
X149160000Y-79347142D01*
X149231428Y-79275714D01*
X149302857Y-79132857D01*
X149302857Y-78990000D01*
X149231428Y-78847142D01*
X149160000Y-78775714D01*
X149017142Y-78704285D01*
X148731428Y-78632857D01*
X148588571Y-78561428D01*
X148517142Y-78490000D01*
X148445714Y-78347142D01*
X148445714Y-78204285D01*
X148517142Y-78061428D01*
X148588571Y-77990000D01*
X148731428Y-77918571D01*
X149088571Y-77918571D01*
X149302857Y-77990000D01*
X150731428Y-77990000D02*
X150588571Y-77918571D01*
X150374285Y-77918571D01*
X150160000Y-77990000D01*
X150017142Y-78132857D01*
X149945714Y-78275714D01*
X149874285Y-78561428D01*
X149874285Y-78775714D01*
X149945714Y-79061428D01*
X150017142Y-79204285D01*
X150160000Y-79347142D01*
X150374285Y-79418571D01*
X150517142Y-79418571D01*
X150731428Y-79347142D01*
X150802857Y-79275714D01*
X150802857Y-78775714D01*
X150517142Y-78775714D01*
D11*
%TO.P,BT1,1*%
%TO.N,Net-(BT1-Pad1)*%
X128775001Y-89325001D03*
X143975001Y-89325001D03*
D12*
%TO.P,BT1,2*%
%TO.N,GND*%
X136375001Y-89325001D03*
%TD*%
%TO.P,BT2,2*%
%TO.N,Net-(BT1-Pad1)*%
X156125001Y-89325001D03*
D11*
%TO.P,BT2,1*%
%TO.N,VCC*%
X163725001Y-89325001D03*
X148525001Y-89325001D03*
%TD*%
%TO.P,C1,2*%
%TO.N,GND*%
%TA.AperFunction,SMDPad,CuDef*%
G36*
G01*
X137625001Y-98580001D02*
X137625001Y-97630001D01*
G75*
G02*
X137875001Y-97380001I250000J0D01*
G01*
X138375001Y-97380001D01*
G75*
G02*
X138625001Y-97630001I0J-250000D01*
G01*
X138625001Y-98580001D01*
G75*
G02*
X138375001Y-98830001I-250000J0D01*
G01*
X137875001Y-98830001D01*
G75*
G02*
X137625001Y-98580001I0J250000D01*
G01*
G37*
%TD.AperFunction*%
%TO.P,C1,1*%
%TO.N,Net-(C1-Pad1)*%
%TA.AperFunction,SMDPad,CuDef*%
G36*
G01*
X135725001Y-98580001D02*
X135725001Y-97630001D01*
G75*
G02*
X135975001Y-97380001I250000J0D01*
G01*
X136475001Y-97380001D01*
G75*
G02*
X136725001Y-97630001I0J-250000D01*
G01*
X136725001Y-98580001D01*
G75*
G02*
X136475001Y-98830001I-250000J0D01*
G01*
X135975001Y-98830001D01*
G75*
G02*
X135725001Y-98580001I0J250000D01*
G01*
G37*
%TD.AperFunction*%
%TD*%
%TO.P,C2,1*%
%TO.N,Net-(C2-Pad1)*%
%TA.AperFunction,SMDPad,CuDef*%
G36*
G01*
X140175001Y-98580001D02*
X140175001Y-97630001D01*
G75*
G02*
X140425001Y-97380001I250000J0D01*
G01*
X140925001Y-97380001D01*
G75*
G02*
X141175001Y-97630001I0J-250000D01*
G01*
X141175001Y-98580001D01*
G75*
G02*
X140925001Y-98830001I-250000J0D01*
G01*
X140425001Y-98830001D01*
G75*
G02*
X140175001Y-98580001I0J250000D01*
G01*
G37*
%TD.AperFunction*%
%TO.P,C2,2*%
%TO.N,GND*%
%TA.AperFunction,SMDPad,CuDef*%
G36*
G01*
X142075001Y-98580001D02*
X142075001Y-97630001D01*
G75*
G02*
X142325001Y-97380001I250000J0D01*
G01*
X142825001Y-97380001D01*
G75*
G02*
X143075001Y-97630001I0J-250000D01*
G01*
X143075001Y-98580001D01*
G75*
G02*
X142825001Y-98830001I-250000J0D01*
G01*
X142325001Y-98830001D01*
G75*
G02*
X142075001Y-98580001I0J250000D01*
G01*
G37*
%TD.AperFunction*%
%TD*%
%TO.P,D1,1*%
%TO.N,GND*%
%TA.AperFunction,SMDPad,CuDef*%
G36*
G01*
X144670001Y-98576251D02*
X144670001Y-97663751D01*
G75*
G02*
X144913751Y-97420001I243750J0D01*
G01*
X145401251Y-97420001D01*
G75*
G02*
X145645001Y-97663751I0J-243750D01*
G01*
X145645001Y-98576251D01*
G75*
G02*
X145401251Y-98820001I-243750J0D01*
G01*
X144913751Y-98820001D01*
G75*
G02*
X144670001Y-98576251I0J243750D01*
G01*
G37*
%TD.AperFunction*%
%TO.P,D1,2*%
%TO.N,Net-(D1-Pad2)*%
%TA.AperFunction,SMDPad,CuDef*%
G36*
G01*
X146545001Y-98576251D02*
X146545001Y-97663751D01*
G75*
G02*
X146788751Y-97420001I243750J0D01*
G01*
X147276251Y-97420001D01*
G75*
G02*
X147520001Y-97663751I0J-243750D01*
G01*
X147520001Y-98576251D01*
G75*
G02*
X147276251Y-98820001I-243750J0D01*
G01*
X146788751Y-98820001D01*
G75*
G02*
X146545001Y-98576251I0J243750D01*
G01*
G37*
%TD.AperFunction*%
%TD*%
%TO.P,R1,1*%
%TO.N,Net-(R1-Pad1)*%
%TA.AperFunction,SMDPad,CuDef*%
G36*
G01*
X149080001Y-98525002D02*
X149080001Y-97625000D01*
G75*
G02*
X149330000Y-97375001I249999J0D01*
G01*
X149855002Y-97375001D01*
G75*
G02*
X150105001Y-97625000I0J-249999D01*
G01*
X150105001Y-98525002D01*
G75*
G02*
X149855002Y-98775001I-249999J0D01*
G01*
X149330000Y-98775001D01*
G75*
G02*
X149080001Y-98525002I0J249999D01*
G01*
G37*
%TD.AperFunction*%
%TO.P,R1,2*%
%TO.N,Net-(C1-Pad1)*%
%TA.AperFunction,SMDPad,CuDef*%
G36*
G01*
X150905001Y-98525002D02*
X150905001Y-97625000D01*
G75*
G02*
X151155000Y-97375001I249999J0D01*
G01*
X151680002Y-97375001D01*
G75*
G02*
X151930001Y-97625000I0J-249999D01*
G01*
X151930001Y-98525002D01*
G75*
G02*
X151680002Y-98775001I-249999J0D01*
G01*
X151155000Y-98775001D01*
G75*
G02*
X150905001Y-98525002I0J249999D01*
G01*
G37*
%TD.AperFunction*%
%TD*%
%TO.P,R2,2*%
%TO.N,Net-(R1-Pad1)*%
%TA.AperFunction,SMDPad,CuDef*%
G36*
G01*
X150905001Y-101475002D02*
X150905001Y-100575000D01*
G75*
G02*
X151155000Y-100325001I249999J0D01*
G01*
X151680002Y-100325001D01*
G75*
G02*
X151930001Y-100575000I0J-249999D01*
G01*
X151930001Y-101475002D01*
G75*
G02*
X151680002Y-101725001I-249999J0D01*
G01*
X151155000Y-101725001D01*
G75*
G02*
X150905001Y-101475002I0J249999D01*
G01*
G37*
%TD.AperFunction*%
%TO.P,R2,1*%
%TO.N,VCC*%
%TA.AperFunction,SMDPad,CuDef*%
G36*
G01*
X149080001Y-101475002D02*
X149080001Y-100575000D01*
G75*
G02*
X149330000Y-100325001I249999J0D01*
G01*
X149855002Y-100325001D01*
G75*
G02*
X150105001Y-100575000I0J-249999D01*
G01*
X150105001Y-101475002D01*
G75*
G02*
X149855002Y-101725001I-249999J0D01*
G01*
X149330000Y-101725001D01*
G75*
G02*
X149080001Y-101475002I0J249999D01*
G01*
G37*
%TD.AperFunction*%
%TD*%
%TO.P,U1,1*%
%TO.N,GND*%
%TA.AperFunction,SMDPad,CuDef*%
G36*
G01*
X127275001Y-98070001D02*
X127275001Y-97770001D01*
G75*
G02*
X127425001Y-97620001I150000J0D01*
G01*
X129075001Y-97620001D01*
G75*
G02*
X129225001Y-97770001I0J-150000D01*
G01*
X129225001Y-98070001D01*
G75*
G02*
X129075001Y-98220001I-150000J0D01*
G01*
X127425001Y-98220001D01*
G75*
G02*
X127275001Y-98070001I0J150000D01*
G01*
G37*
%TD.AperFunction*%
%TO.P,U1,2*%
%TO.N,Net-(C1-Pad1)*%
%TA.AperFunction,SMDPad,CuDef*%
G36*
G01*
X127275001Y-99340001D02*
X127275001Y-99040001D01*
G75*
G02*
X127425001Y-98890001I150000J0D01*
G01*
X129075001Y-98890001D01*
G75*
G02*
X129225001Y-99040001I0J-150000D01*
G01*
X129225001Y-99340001D01*
G75*
G02*
X129075001Y-99490001I-150000J0D01*
G01*
X127425001Y-99490001D01*
G75*
G02*
X127275001Y-99340001I0J150000D01*
G01*
G37*
%TD.AperFunction*%
%TO.P,U1,3*%
%TO.N,Net-(D1-Pad2)*%
%TA.AperFunction,SMDPad,CuDef*%
G36*
G01*
X127275001Y-100610001D02*
X127275001Y-100310001D01*
G75*
G02*
X127425001Y-100160001I150000J0D01*
G01*
X129075001Y-100160001D01*
G75*
G02*
X129225001Y-100310001I0J-150000D01*
G01*
X129225001Y-100610001D01*
G75*
G02*
X129075001Y-100760001I-150000J0D01*
G01*
X127425001Y-100760001D01*
G75*
G02*
X127275001Y-100610001I0J150000D01*
G01*
G37*
%TD.AperFunction*%
%TO.P,U1,4*%
%TO.N,VCC*%
%TA.AperFunction,SMDPad,CuDef*%
G36*
G01*
X127275001Y-101880001D02*
X127275001Y-101580001D01*
G75*
G02*
X127425001Y-101430001I150000J0D01*
G01*
X129075001Y-101430001D01*
G75*
G02*
X129225001Y-101580001I0J-150000D01*
G01*
X129225001Y-101880001D01*
G75*
G02*
X129075001Y-102030001I-150000J0D01*
G01*
X127425001Y-102030001D01*
G75*
G02*
X127275001Y-101880001I0J150000D01*
G01*
G37*
%TD.AperFunction*%
%TO.P,U1,5*%
%TO.N,Net-(C2-Pad1)*%
%TA.AperFunction,SMDPad,CuDef*%
G36*
G01*
X132225001Y-101880001D02*
X132225001Y-101580001D01*
G75*
G02*
X132375001Y-101430001I150000J0D01*
G01*
X134025001Y-101430001D01*
G75*
G02*
X134175001Y-101580001I0J-150000D01*
G01*
X134175001Y-101880001D01*
G75*
G02*
X134025001Y-102030001I-150000J0D01*
G01*
X132375001Y-102030001D01*
G75*
G02*
X132225001Y-101880001I0J150000D01*
G01*
G37*
%TD.AperFunction*%
%TO.P,U1,6*%
%TO.N,Net-(C1-Pad1)*%
%TA.AperFunction,SMDPad,CuDef*%
G36*
G01*
X132225001Y-100610001D02*
X132225001Y-100310001D01*
G75*
G02*
X132375001Y-100160001I150000J0D01*
G01*
X134025001Y-100160001D01*
G75*
G02*
X134175001Y-100310001I0J-150000D01*
G01*
X134175001Y-100610001D01*
G75*
G02*
X134025001Y-100760001I-150000J0D01*
G01*
X132375001Y-100760001D01*
G75*
G02*
X132225001Y-100610001I0J150000D01*
G01*
G37*
%TD.AperFunction*%
%TO.P,U1,7*%
%TO.N,Net-(R1-Pad1)*%
%TA.AperFunction,SMDPad,CuDef*%
G36*
G01*
X132225001Y-99340001D02*
X132225001Y-99040001D01*
G75*
G02*
X132375001Y-98890001I150000J0D01*
G01*
X134025001Y-98890001D01*
G75*
G02*
X134175001Y-99040001I0J-150000D01*
G01*
X134175001Y-99340001D01*
G75*
G02*
X134025001Y-99490001I-150000J0D01*
G01*
X132375001Y-99490001D01*
G75*
G02*
X132225001Y-99340001I0J150000D01*
G01*
G37*
%TD.AperFunction*%
%TO.P,U1,8*%
%TO.N,VCC*%
%TA.AperFunction,SMDPad,CuDef*%
G36*
G01*
X132225001Y-98070001D02*
X132225001Y-97770001D01*
G75*
G02*
X132375001Y-97620001I150000J0D01*
G01*
X134025001Y-97620001D01*
G75*
G02*
X134175001Y-97770001I0J-150000D01*
G01*
X134175001Y-98070001D01*
G75*
G02*
X134025001Y-98220001I-150000J0D01*
G01*
X132375001Y-98220001D01*
G75*
G02*
X132225001Y-98070001I0J150000D01*
G01*
G37*
%TD.AperFunction*%
%TD*%
D13*
%TO.N,Net-(BT1-Pad1)*%
X150700000Y-83900000D02*
X156125001Y-89325001D01*
X128775001Y-86525001D02*
X131400002Y-83900000D01*
X128775001Y-89325001D02*
X128775001Y-86525001D01*
X143975001Y-89325001D02*
X143975001Y-84285001D01*
X144360002Y-83900000D02*
X144700000Y-83900000D01*
X143975001Y-84285001D02*
X144360002Y-83900000D01*
X144700000Y-83900000D02*
X150700000Y-83900000D01*
X131400002Y-83900000D02*
X144700000Y-83900000D01*
%TO.N,GND*%
X136375001Y-89325001D02*
X132990002Y-92710000D01*
X128270000Y-97900002D02*
X128250001Y-97920001D01*
X138125001Y-98105001D02*
X138125001Y-96824999D01*
X138125001Y-96824999D02*
X138430000Y-96520000D01*
X138430000Y-96520000D02*
X142240000Y-96520000D01*
X142240000Y-97770000D02*
X142575001Y-98105001D01*
X142240000Y-96520000D02*
X142240000Y-97770000D01*
X143557500Y-96520000D02*
X145157501Y-98120001D01*
X142240000Y-96520000D02*
X143557500Y-96520000D01*
X146182511Y-97094991D02*
X147894991Y-97094991D01*
X145157501Y-98120001D02*
X146182511Y-97094991D01*
X147894991Y-98761861D02*
X142516852Y-104140000D01*
X147894991Y-97094991D02*
X147894991Y-98761861D01*
X142516852Y-104140000D02*
X128270000Y-104140000D01*
X128270000Y-104140000D02*
X125730000Y-101600000D01*
X128250001Y-97450001D02*
X136375001Y-89325001D01*
X128250001Y-97920001D02*
X128250001Y-97450001D01*
X127236823Y-97920001D02*
X128250001Y-97920001D01*
X125730000Y-99426824D02*
X127236823Y-97920001D01*
X125730000Y-101600000D02*
X125730000Y-99426824D01*
%TO.N,VCC*%
X148525001Y-92125001D02*
X148525001Y-89325001D01*
X163725001Y-92125001D02*
X161100000Y-94750002D01*
X163725001Y-89325001D02*
X163725001Y-92125001D01*
X151900002Y-94750002D02*
X151150002Y-94750002D01*
X161100000Y-94750002D02*
X151900002Y-94750002D01*
X127275001Y-101730001D02*
X126949991Y-101404991D01*
X128250001Y-101730001D02*
X127275001Y-101730001D01*
X132555011Y-98564991D02*
X133200001Y-97920001D01*
X127228243Y-98564991D02*
X132555011Y-98564991D01*
X126949991Y-98843243D02*
X127228243Y-98564991D01*
X126949991Y-101404991D02*
X126949991Y-98843243D01*
X147320000Y-93980000D02*
X148850000Y-92450000D01*
X139700000Y-93980000D02*
X147320000Y-93980000D01*
X148850000Y-92450000D02*
X148525001Y-92125001D01*
X151150002Y-94750002D02*
X148850000Y-92450000D01*
X138929998Y-94750002D02*
X139700000Y-93980000D01*
X135070009Y-96069991D02*
X136389998Y-94750002D01*
X136389998Y-94750002D02*
X138929998Y-94750002D01*
X135050011Y-96069991D02*
X135070009Y-96069991D01*
X133200001Y-97920001D02*
X135050011Y-96069991D01*
X153799991Y-102050011D02*
X161100000Y-94750002D01*
X150617511Y-102050011D02*
X153799991Y-102050011D01*
X149592501Y-101025001D02*
X150617511Y-102050011D01*
%TO.N,Net-(C1-Pad1)*%
X133870001Y-100460001D02*
X136225001Y-98105001D01*
X133200001Y-100460001D02*
X133870001Y-100460001D01*
X136225001Y-98088589D02*
X136225001Y-98105001D01*
X136526410Y-97803592D02*
X136225001Y-98105001D01*
X132225001Y-100460001D02*
X133200001Y-100460001D01*
X130955001Y-99190001D02*
X132225001Y-100460001D01*
X128250001Y-99190001D02*
X130955001Y-99190001D01*
X149862500Y-96520000D02*
X151417501Y-98075001D01*
X144780000Y-96520000D02*
X149862500Y-96520000D01*
X144329990Y-96069990D02*
X144780000Y-96520000D01*
X138243600Y-96069990D02*
X144329990Y-96069990D01*
X137674992Y-96638598D02*
X138243600Y-96069990D01*
X137674992Y-96655010D02*
X137674992Y-96638598D01*
X136225001Y-98105001D02*
X137674992Y-96655010D01*
%TO.N,Net-(C2-Pad1)*%
X137050001Y-101730001D02*
X140675001Y-98105001D01*
X133200001Y-101730001D02*
X137050001Y-101730001D01*
%TO.N,Net-(D1-Pad2)*%
X142282502Y-102870000D02*
X147032501Y-98120001D01*
X132693232Y-102870000D02*
X142282502Y-102870000D01*
X130283233Y-100460001D02*
X132693232Y-102870000D01*
X128250001Y-100460001D02*
X130283233Y-100460001D01*
%TO.N,Net-(R1-Pad1)*%
X151417501Y-99900001D02*
X149592501Y-98075001D01*
X151417501Y-101025001D02*
X151417501Y-99900001D01*
X149592501Y-98075001D02*
X149592501Y-97375001D01*
X134175001Y-99190001D02*
X133200001Y-99190001D01*
X151417501Y-101025001D02*
X152400000Y-100042502D01*
X152400000Y-97531810D02*
X151388190Y-96520000D01*
X135774991Y-96520000D02*
X134620000Y-97674991D01*
X152400000Y-100042502D02*
X152400000Y-97531810D01*
X151388190Y-96520000D02*
X150498910Y-96520000D01*
X134620000Y-97674991D02*
X134620000Y-98745002D01*
X150498910Y-96520000D02*
X150048900Y-96069990D01*
X150048900Y-96069990D02*
X144966400Y-96069990D01*
X144966400Y-96069990D02*
X144516390Y-95619980D01*
X144516390Y-95619980D02*
X143879980Y-95619980D01*
X143879980Y-95619980D02*
X143510000Y-95250000D01*
X143510000Y-95250000D02*
X137160000Y-95250000D01*
X134620000Y-98745002D02*
X134175001Y-99190001D01*
X137160000Y-95250000D02*
X135890000Y-96520000D01*
X135890000Y-96520000D02*
X135774991Y-96520000D01*
%TD*%
M02*
