%TF.GenerationSoftware,KiCad,Pcbnew,(5.1.10)-1*%
%TF.CreationDate,2021-09-27T22:12:15-07:00*%
%TF.ProjectId,KiCad_IntroProject_SG,4b694361-645f-4496-9e74-726f50726f6a,rev?*%
%TF.SameCoordinates,Original*%
%TF.FileFunction,Paste,Top*%
%TF.FilePolarity,Positive*%
%FSLAX46Y46*%
G04 Gerber Fmt 4.6, Leading zero omitted, Abs format (unit mm)*
G04 Created by KiCad (PCBNEW (5.1.10)-1) date 2021-09-27 22:12:15*
%MOMM*%
%LPD*%
G01*
G04 APERTURE LIST*
%ADD10R,2.500000X5.100000*%
G04 APERTURE END LIST*
D10*
%TO.C,BT1*%
X128775001Y-89325001D03*
X143975001Y-89325001D03*
%TD*%
%TO.C,BT2*%
X163725001Y-89325001D03*
X148525001Y-89325001D03*
%TD*%
%TO.C,C1*%
G36*
G01*
X137625001Y-98580001D02*
X137625001Y-97630001D01*
G75*
G02*
X137875001Y-97380001I250000J0D01*
G01*
X138375001Y-97380001D01*
G75*
G02*
X138625001Y-97630001I0J-250000D01*
G01*
X138625001Y-98580001D01*
G75*
G02*
X138375001Y-98830001I-250000J0D01*
G01*
X137875001Y-98830001D01*
G75*
G02*
X137625001Y-98580001I0J250000D01*
G01*
G37*
G36*
G01*
X135725001Y-98580001D02*
X135725001Y-97630001D01*
G75*
G02*
X135975001Y-97380001I250000J0D01*
G01*
X136475001Y-97380001D01*
G75*
G02*
X136725001Y-97630001I0J-250000D01*
G01*
X136725001Y-98580001D01*
G75*
G02*
X136475001Y-98830001I-250000J0D01*
G01*
X135975001Y-98830001D01*
G75*
G02*
X135725001Y-98580001I0J250000D01*
G01*
G37*
%TD*%
%TO.C,C2*%
G36*
G01*
X140175001Y-98580001D02*
X140175001Y-97630001D01*
G75*
G02*
X140425001Y-97380001I250000J0D01*
G01*
X140925001Y-97380001D01*
G75*
G02*
X141175001Y-97630001I0J-250000D01*
G01*
X141175001Y-98580001D01*
G75*
G02*
X140925001Y-98830001I-250000J0D01*
G01*
X140425001Y-98830001D01*
G75*
G02*
X140175001Y-98580001I0J250000D01*
G01*
G37*
G36*
G01*
X142075001Y-98580001D02*
X142075001Y-97630001D01*
G75*
G02*
X142325001Y-97380001I250000J0D01*
G01*
X142825001Y-97380001D01*
G75*
G02*
X143075001Y-97630001I0J-250000D01*
G01*
X143075001Y-98580001D01*
G75*
G02*
X142825001Y-98830001I-250000J0D01*
G01*
X142325001Y-98830001D01*
G75*
G02*
X142075001Y-98580001I0J250000D01*
G01*
G37*
%TD*%
%TO.C,D1*%
G36*
G01*
X144670001Y-98576251D02*
X144670001Y-97663751D01*
G75*
G02*
X144913751Y-97420001I243750J0D01*
G01*
X145401251Y-97420001D01*
G75*
G02*
X145645001Y-97663751I0J-243750D01*
G01*
X145645001Y-98576251D01*
G75*
G02*
X145401251Y-98820001I-243750J0D01*
G01*
X144913751Y-98820001D01*
G75*
G02*
X144670001Y-98576251I0J243750D01*
G01*
G37*
G36*
G01*
X146545001Y-98576251D02*
X146545001Y-97663751D01*
G75*
G02*
X146788751Y-97420001I243750J0D01*
G01*
X147276251Y-97420001D01*
G75*
G02*
X147520001Y-97663751I0J-243750D01*
G01*
X147520001Y-98576251D01*
G75*
G02*
X147276251Y-98820001I-243750J0D01*
G01*
X146788751Y-98820001D01*
G75*
G02*
X146545001Y-98576251I0J243750D01*
G01*
G37*
%TD*%
%TO.C,R1*%
G36*
G01*
X149080001Y-98525002D02*
X149080001Y-97625000D01*
G75*
G02*
X149330000Y-97375001I249999J0D01*
G01*
X149855002Y-97375001D01*
G75*
G02*
X150105001Y-97625000I0J-249999D01*
G01*
X150105001Y-98525002D01*
G75*
G02*
X149855002Y-98775001I-249999J0D01*
G01*
X149330000Y-98775001D01*
G75*
G02*
X149080001Y-98525002I0J249999D01*
G01*
G37*
G36*
G01*
X150905001Y-98525002D02*
X150905001Y-97625000D01*
G75*
G02*
X151155000Y-97375001I249999J0D01*
G01*
X151680002Y-97375001D01*
G75*
G02*
X151930001Y-97625000I0J-249999D01*
G01*
X151930001Y-98525002D01*
G75*
G02*
X151680002Y-98775001I-249999J0D01*
G01*
X151155000Y-98775001D01*
G75*
G02*
X150905001Y-98525002I0J249999D01*
G01*
G37*
%TD*%
%TO.C,R2*%
G36*
G01*
X150905001Y-101475002D02*
X150905001Y-100575000D01*
G75*
G02*
X151155000Y-100325001I249999J0D01*
G01*
X151680002Y-100325001D01*
G75*
G02*
X151930001Y-100575000I0J-249999D01*
G01*
X151930001Y-101475002D01*
G75*
G02*
X151680002Y-101725001I-249999J0D01*
G01*
X151155000Y-101725001D01*
G75*
G02*
X150905001Y-101475002I0J249999D01*
G01*
G37*
G36*
G01*
X149080001Y-101475002D02*
X149080001Y-100575000D01*
G75*
G02*
X149330000Y-100325001I249999J0D01*
G01*
X149855002Y-100325001D01*
G75*
G02*
X150105001Y-100575000I0J-249999D01*
G01*
X150105001Y-101475002D01*
G75*
G02*
X149855002Y-101725001I-249999J0D01*
G01*
X149330000Y-101725001D01*
G75*
G02*
X149080001Y-101475002I0J249999D01*
G01*
G37*
%TD*%
%TO.C,U1*%
G36*
G01*
X127275001Y-98070001D02*
X127275001Y-97770001D01*
G75*
G02*
X127425001Y-97620001I150000J0D01*
G01*
X129075001Y-97620001D01*
G75*
G02*
X129225001Y-97770001I0J-150000D01*
G01*
X129225001Y-98070001D01*
G75*
G02*
X129075001Y-98220001I-150000J0D01*
G01*
X127425001Y-98220001D01*
G75*
G02*
X127275001Y-98070001I0J150000D01*
G01*
G37*
G36*
G01*
X127275001Y-99340001D02*
X127275001Y-99040001D01*
G75*
G02*
X127425001Y-98890001I150000J0D01*
G01*
X129075001Y-98890001D01*
G75*
G02*
X129225001Y-99040001I0J-150000D01*
G01*
X129225001Y-99340001D01*
G75*
G02*
X129075001Y-99490001I-150000J0D01*
G01*
X127425001Y-99490001D01*
G75*
G02*
X127275001Y-99340001I0J150000D01*
G01*
G37*
G36*
G01*
X127275001Y-100610001D02*
X127275001Y-100310001D01*
G75*
G02*
X127425001Y-100160001I150000J0D01*
G01*
X129075001Y-100160001D01*
G75*
G02*
X129225001Y-100310001I0J-150000D01*
G01*
X129225001Y-100610001D01*
G75*
G02*
X129075001Y-100760001I-150000J0D01*
G01*
X127425001Y-100760001D01*
G75*
G02*
X127275001Y-100610001I0J150000D01*
G01*
G37*
G36*
G01*
X127275001Y-101880001D02*
X127275001Y-101580001D01*
G75*
G02*
X127425001Y-101430001I150000J0D01*
G01*
X129075001Y-101430001D01*
G75*
G02*
X129225001Y-101580001I0J-150000D01*
G01*
X129225001Y-101880001D01*
G75*
G02*
X129075001Y-102030001I-150000J0D01*
G01*
X127425001Y-102030001D01*
G75*
G02*
X127275001Y-101880001I0J150000D01*
G01*
G37*
G36*
G01*
X132225001Y-101880001D02*
X132225001Y-101580001D01*
G75*
G02*
X132375001Y-101430001I150000J0D01*
G01*
X134025001Y-101430001D01*
G75*
G02*
X134175001Y-101580001I0J-150000D01*
G01*
X134175001Y-101880001D01*
G75*
G02*
X134025001Y-102030001I-150000J0D01*
G01*
X132375001Y-102030001D01*
G75*
G02*
X132225001Y-101880001I0J150000D01*
G01*
G37*
G36*
G01*
X132225001Y-100610001D02*
X132225001Y-100310001D01*
G75*
G02*
X132375001Y-100160001I150000J0D01*
G01*
X134025001Y-100160001D01*
G75*
G02*
X134175001Y-100310001I0J-150000D01*
G01*
X134175001Y-100610001D01*
G75*
G02*
X134025001Y-100760001I-150000J0D01*
G01*
X132375001Y-100760001D01*
G75*
G02*
X132225001Y-100610001I0J150000D01*
G01*
G37*
G36*
G01*
X132225001Y-99340001D02*
X132225001Y-99040001D01*
G75*
G02*
X132375001Y-98890001I150000J0D01*
G01*
X134025001Y-98890001D01*
G75*
G02*
X134175001Y-99040001I0J-150000D01*
G01*
X134175001Y-99340001D01*
G75*
G02*
X134025001Y-99490001I-150000J0D01*
G01*
X132375001Y-99490001D01*
G75*
G02*
X132225001Y-99340001I0J150000D01*
G01*
G37*
G36*
G01*
X132225001Y-98070001D02*
X132225001Y-97770001D01*
G75*
G02*
X132375001Y-97620001I150000J0D01*
G01*
X134025001Y-97620001D01*
G75*
G02*
X134175001Y-97770001I0J-150000D01*
G01*
X134175001Y-98070001D01*
G75*
G02*
X134025001Y-98220001I-150000J0D01*
G01*
X132375001Y-98220001D01*
G75*
G02*
X132225001Y-98070001I0J150000D01*
G01*
G37*
%TD*%
M02*
