%TF.GenerationSoftware,KiCad,Pcbnew,(5.1.10)-1*%
%TF.CreationDate,2021-10-03T20:45:00-07:00*%
%TF.ProjectId,IntroProject,496e7472-6f50-4726-9f6a-6563742e6b69,rev?*%
%TF.SameCoordinates,Original*%
%TF.FileFunction,Soldermask,Top*%
%TF.FilePolarity,Negative*%
%FSLAX46Y46*%
G04 Gerber Fmt 4.6, Leading zero omitted, Abs format (unit mm)*
G04 Created by KiCad (PCBNEW (5.1.10)-1) date 2021-10-03 20:45:00*
%MOMM*%
%LPD*%
G01*
G04 APERTURE LIST*
%ADD10R,5.100000X2.500000*%
%ADD11C,10.200000*%
G04 APERTURE END LIST*
D10*
%TO.C,BT1*%
X139700000Y-99040000D03*
X139700000Y-83840000D03*
D11*
X139700000Y-91440000D03*
%TD*%
%TO.C,BT2*%
X177800000Y-91440000D03*
D10*
X177800000Y-83840000D03*
X177800000Y-99040000D03*
%TD*%
%TO.C,C1*%
G36*
G01*
X154145000Y-89720000D02*
X153195000Y-89720000D01*
G75*
G02*
X152945000Y-89470000I0J250000D01*
G01*
X152945000Y-88970000D01*
G75*
G02*
X153195000Y-88720000I250000J0D01*
G01*
X154145000Y-88720000D01*
G75*
G02*
X154395000Y-88970000I0J-250000D01*
G01*
X154395000Y-89470000D01*
G75*
G02*
X154145000Y-89720000I-250000J0D01*
G01*
G37*
G36*
G01*
X154145000Y-91620000D02*
X153195000Y-91620000D01*
G75*
G02*
X152945000Y-91370000I0J250000D01*
G01*
X152945000Y-90870000D01*
G75*
G02*
X153195000Y-90620000I250000J0D01*
G01*
X154145000Y-90620000D01*
G75*
G02*
X154395000Y-90870000I0J-250000D01*
G01*
X154395000Y-91370000D01*
G75*
G02*
X154145000Y-91620000I-250000J0D01*
G01*
G37*
%TD*%
%TO.C,C2*%
G36*
G01*
X154145000Y-96700000D02*
X153195000Y-96700000D01*
G75*
G02*
X152945000Y-96450000I0J250000D01*
G01*
X152945000Y-95950000D01*
G75*
G02*
X153195000Y-95700000I250000J0D01*
G01*
X154145000Y-95700000D01*
G75*
G02*
X154395000Y-95950000I0J-250000D01*
G01*
X154395000Y-96450000D01*
G75*
G02*
X154145000Y-96700000I-250000J0D01*
G01*
G37*
G36*
G01*
X154145000Y-94800000D02*
X153195000Y-94800000D01*
G75*
G02*
X152945000Y-94550000I0J250000D01*
G01*
X152945000Y-94050000D01*
G75*
G02*
X153195000Y-93800000I250000J0D01*
G01*
X154145000Y-93800000D01*
G75*
G02*
X154395000Y-94050000I0J-250000D01*
G01*
X154395000Y-94550000D01*
G75*
G02*
X154145000Y-94800000I-250000J0D01*
G01*
G37*
%TD*%
%TO.C,D1*%
G36*
G01*
X163016250Y-86182500D02*
X162103750Y-86182500D01*
G75*
G02*
X161860000Y-85938750I0J243750D01*
G01*
X161860000Y-85451250D01*
G75*
G02*
X162103750Y-85207500I243750J0D01*
G01*
X163016250Y-85207500D01*
G75*
G02*
X163260000Y-85451250I0J-243750D01*
G01*
X163260000Y-85938750D01*
G75*
G02*
X163016250Y-86182500I-243750J0D01*
G01*
G37*
G36*
G01*
X163016250Y-84307500D02*
X162103750Y-84307500D01*
G75*
G02*
X161860000Y-84063750I0J243750D01*
G01*
X161860000Y-83576250D01*
G75*
G02*
X162103750Y-83332500I243750J0D01*
G01*
X163016250Y-83332500D01*
G75*
G02*
X163260000Y-83576250I0J-243750D01*
G01*
X163260000Y-84063750D01*
G75*
G02*
X163016250Y-84307500I-243750J0D01*
G01*
G37*
%TD*%
%TO.C,R1*%
G36*
G01*
X164280001Y-101755000D02*
X163379999Y-101755000D01*
G75*
G02*
X163130000Y-101505001I0J249999D01*
G01*
X163130000Y-100979999D01*
G75*
G02*
X163379999Y-100730000I249999J0D01*
G01*
X164280001Y-100730000D01*
G75*
G02*
X164530000Y-100979999I0J-249999D01*
G01*
X164530000Y-101505001D01*
G75*
G02*
X164280001Y-101755000I-249999J0D01*
G01*
G37*
G36*
G01*
X164280001Y-99930000D02*
X163379999Y-99930000D01*
G75*
G02*
X163130000Y-99680001I0J249999D01*
G01*
X163130000Y-99154999D01*
G75*
G02*
X163379999Y-98905000I249999J0D01*
G01*
X164280001Y-98905000D01*
G75*
G02*
X164530000Y-99154999I0J-249999D01*
G01*
X164530000Y-99680001D01*
G75*
G02*
X164280001Y-99930000I-249999J0D01*
G01*
G37*
%TD*%
%TO.C,R2*%
G36*
G01*
X154120001Y-99930000D02*
X153219999Y-99930000D01*
G75*
G02*
X152970000Y-99680001I0J249999D01*
G01*
X152970000Y-99154999D01*
G75*
G02*
X153219999Y-98905000I249999J0D01*
G01*
X154120001Y-98905000D01*
G75*
G02*
X154370000Y-99154999I0J-249999D01*
G01*
X154370000Y-99680001D01*
G75*
G02*
X154120001Y-99930000I-249999J0D01*
G01*
G37*
G36*
G01*
X154120001Y-101755000D02*
X153219999Y-101755000D01*
G75*
G02*
X152970000Y-101505001I0J249999D01*
G01*
X152970000Y-100979999D01*
G75*
G02*
X153219999Y-100730000I249999J0D01*
G01*
X154120001Y-100730000D01*
G75*
G02*
X154370000Y-100979999I0J-249999D01*
G01*
X154370000Y-101505001D01*
G75*
G02*
X154120001Y-101755000I-249999J0D01*
G01*
G37*
%TD*%
%TO.C,U1*%
G36*
G01*
X164315000Y-89260000D02*
X164615000Y-89260000D01*
G75*
G02*
X164765000Y-89410000I0J-150000D01*
G01*
X164765000Y-91060000D01*
G75*
G02*
X164615000Y-91210000I-150000J0D01*
G01*
X164315000Y-91210000D01*
G75*
G02*
X164165000Y-91060000I0J150000D01*
G01*
X164165000Y-89410000D01*
G75*
G02*
X164315000Y-89260000I150000J0D01*
G01*
G37*
G36*
G01*
X163045000Y-89260000D02*
X163345000Y-89260000D01*
G75*
G02*
X163495000Y-89410000I0J-150000D01*
G01*
X163495000Y-91060000D01*
G75*
G02*
X163345000Y-91210000I-150000J0D01*
G01*
X163045000Y-91210000D01*
G75*
G02*
X162895000Y-91060000I0J150000D01*
G01*
X162895000Y-89410000D01*
G75*
G02*
X163045000Y-89260000I150000J0D01*
G01*
G37*
G36*
G01*
X161775000Y-89260000D02*
X162075000Y-89260000D01*
G75*
G02*
X162225000Y-89410000I0J-150000D01*
G01*
X162225000Y-91060000D01*
G75*
G02*
X162075000Y-91210000I-150000J0D01*
G01*
X161775000Y-91210000D01*
G75*
G02*
X161625000Y-91060000I0J150000D01*
G01*
X161625000Y-89410000D01*
G75*
G02*
X161775000Y-89260000I150000J0D01*
G01*
G37*
G36*
G01*
X160505000Y-89260000D02*
X160805000Y-89260000D01*
G75*
G02*
X160955000Y-89410000I0J-150000D01*
G01*
X160955000Y-91060000D01*
G75*
G02*
X160805000Y-91210000I-150000J0D01*
G01*
X160505000Y-91210000D01*
G75*
G02*
X160355000Y-91060000I0J150000D01*
G01*
X160355000Y-89410000D01*
G75*
G02*
X160505000Y-89260000I150000J0D01*
G01*
G37*
G36*
G01*
X160505000Y-94210000D02*
X160805000Y-94210000D01*
G75*
G02*
X160955000Y-94360000I0J-150000D01*
G01*
X160955000Y-96010000D01*
G75*
G02*
X160805000Y-96160000I-150000J0D01*
G01*
X160505000Y-96160000D01*
G75*
G02*
X160355000Y-96010000I0J150000D01*
G01*
X160355000Y-94360000D01*
G75*
G02*
X160505000Y-94210000I150000J0D01*
G01*
G37*
G36*
G01*
X161775000Y-94210000D02*
X162075000Y-94210000D01*
G75*
G02*
X162225000Y-94360000I0J-150000D01*
G01*
X162225000Y-96010000D01*
G75*
G02*
X162075000Y-96160000I-150000J0D01*
G01*
X161775000Y-96160000D01*
G75*
G02*
X161625000Y-96010000I0J150000D01*
G01*
X161625000Y-94360000D01*
G75*
G02*
X161775000Y-94210000I150000J0D01*
G01*
G37*
G36*
G01*
X163045000Y-94210000D02*
X163345000Y-94210000D01*
G75*
G02*
X163495000Y-94360000I0J-150000D01*
G01*
X163495000Y-96010000D01*
G75*
G02*
X163345000Y-96160000I-150000J0D01*
G01*
X163045000Y-96160000D01*
G75*
G02*
X162895000Y-96010000I0J150000D01*
G01*
X162895000Y-94360000D01*
G75*
G02*
X163045000Y-94210000I150000J0D01*
G01*
G37*
G36*
G01*
X164315000Y-94210000D02*
X164615000Y-94210000D01*
G75*
G02*
X164765000Y-94360000I0J-150000D01*
G01*
X164765000Y-96010000D01*
G75*
G02*
X164615000Y-96160000I-150000J0D01*
G01*
X164315000Y-96160000D01*
G75*
G02*
X164165000Y-96010000I0J150000D01*
G01*
X164165000Y-94360000D01*
G75*
G02*
X164315000Y-94210000I150000J0D01*
G01*
G37*
%TD*%
M02*
