%TF.GenerationSoftware,KiCad,Pcbnew,(6.0.7)*%
%TF.CreationDate,2022-10-01T22:51:18-07:00*%
%TF.ProjectId,Intro Project,496e7472-6f20-4507-926f-6a6563742e6b,rev?*%
%TF.SameCoordinates,Original*%
%TF.FileFunction,Legend,Top*%
%TF.FilePolarity,Positive*%
%FSLAX46Y46*%
G04 Gerber Fmt 4.6, Leading zero omitted, Abs format (unit mm)*
G04 Created by KiCad (PCBNEW (6.0.7)) date 2022-10-01 22:51:18*
%MOMM*%
%LPD*%
G01*
G04 APERTURE LIST*
%ADD10C,0.150000*%
%ADD11C,0.120000*%
G04 APERTURE END LIST*
D10*
%TO.C,BT1*%
X201508571Y-71905714D02*
X201556190Y-71762857D01*
X201603809Y-71715238D01*
X201699047Y-71667619D01*
X201841904Y-71667619D01*
X201937142Y-71715238D01*
X201984761Y-71762857D01*
X202032380Y-71858095D01*
X202032380Y-72239047D01*
X201032380Y-72239047D01*
X201032380Y-71905714D01*
X201080000Y-71810476D01*
X201127619Y-71762857D01*
X201222857Y-71715238D01*
X201318095Y-71715238D01*
X201413333Y-71762857D01*
X201460952Y-71810476D01*
X201508571Y-71905714D01*
X201508571Y-72239047D01*
X201032380Y-71381904D02*
X201032380Y-70810476D01*
X202032380Y-71096190D02*
X201032380Y-71096190D01*
X202032380Y-69953333D02*
X202032380Y-70524761D01*
X202032380Y-70239047D02*
X201032380Y-70239047D01*
X201175238Y-70334285D01*
X201270476Y-70429523D01*
X201318095Y-70524761D01*
%TO.C,10k1*%
X179268571Y-80082380D02*
X178697142Y-80082380D01*
X178982857Y-80082380D02*
X178982857Y-79082380D01*
X178887619Y-79225238D01*
X178792380Y-79320476D01*
X178697142Y-79368095D01*
X179887619Y-79082380D02*
X179982857Y-79082380D01*
X180078095Y-79130000D01*
X180125714Y-79177619D01*
X180173333Y-79272857D01*
X180220952Y-79463333D01*
X180220952Y-79701428D01*
X180173333Y-79891904D01*
X180125714Y-79987142D01*
X180078095Y-80034761D01*
X179982857Y-80082380D01*
X179887619Y-80082380D01*
X179792380Y-80034761D01*
X179744761Y-79987142D01*
X179697142Y-79891904D01*
X179649523Y-79701428D01*
X179649523Y-79463333D01*
X179697142Y-79272857D01*
X179744761Y-79177619D01*
X179792380Y-79130000D01*
X179887619Y-79082380D01*
X180649523Y-80082380D02*
X180649523Y-79082380D01*
X180744761Y-79701428D02*
X181030476Y-80082380D01*
X181030476Y-79415714D02*
X180649523Y-79796666D01*
X181982857Y-80082380D02*
X181411428Y-80082380D01*
X181697142Y-80082380D02*
X181697142Y-79082380D01*
X181601904Y-79225238D01*
X181506666Y-79320476D01*
X181411428Y-79368095D01*
%TO.C,BT2*%
X160868571Y-71905714D02*
X160916190Y-71762857D01*
X160963809Y-71715238D01*
X161059047Y-71667619D01*
X161201904Y-71667619D01*
X161297142Y-71715238D01*
X161344761Y-71762857D01*
X161392380Y-71858095D01*
X161392380Y-72239047D01*
X160392380Y-72239047D01*
X160392380Y-71905714D01*
X160440000Y-71810476D01*
X160487619Y-71762857D01*
X160582857Y-71715238D01*
X160678095Y-71715238D01*
X160773333Y-71762857D01*
X160820952Y-71810476D01*
X160868571Y-71905714D01*
X160868571Y-72239047D01*
X160392380Y-71381904D02*
X160392380Y-70810476D01*
X161392380Y-71096190D02*
X160392380Y-71096190D01*
X160487619Y-70524761D02*
X160440000Y-70477142D01*
X160392380Y-70381904D01*
X160392380Y-70143809D01*
X160440000Y-70048571D01*
X160487619Y-70000952D01*
X160582857Y-69953333D01*
X160678095Y-69953333D01*
X160820952Y-70000952D01*
X161392380Y-70572380D01*
X161392380Y-69953333D01*
%TO.C,D1*%
X174521904Y-64842380D02*
X174521904Y-63842380D01*
X174760000Y-63842380D01*
X174902857Y-63890000D01*
X174998095Y-63985238D01*
X175045714Y-64080476D01*
X175093333Y-64270952D01*
X175093333Y-64413809D01*
X175045714Y-64604285D01*
X174998095Y-64699523D01*
X174902857Y-64794761D01*
X174760000Y-64842380D01*
X174521904Y-64842380D01*
X176045714Y-64842380D02*
X175474285Y-64842380D01*
X175760000Y-64842380D02*
X175760000Y-63842380D01*
X175664761Y-63985238D01*
X175569523Y-64080476D01*
X175474285Y-64128095D01*
%TO.C,C1*%
X167473333Y-83317142D02*
X167425714Y-83364761D01*
X167282857Y-83412380D01*
X167187619Y-83412380D01*
X167044761Y-83364761D01*
X166949523Y-83269523D01*
X166901904Y-83174285D01*
X166854285Y-82983809D01*
X166854285Y-82840952D01*
X166901904Y-82650476D01*
X166949523Y-82555238D01*
X167044761Y-82460000D01*
X167187619Y-82412380D01*
X167282857Y-82412380D01*
X167425714Y-82460000D01*
X167473333Y-82507619D01*
X168425714Y-83412380D02*
X167854285Y-83412380D01*
X168140000Y-83412380D02*
X168140000Y-82412380D01*
X168044761Y-82555238D01*
X167949523Y-82650476D01*
X167854285Y-82698095D01*
%TO.C,U1*%
X174498095Y-69712380D02*
X174498095Y-70521904D01*
X174545714Y-70617142D01*
X174593333Y-70664761D01*
X174688571Y-70712380D01*
X174879047Y-70712380D01*
X174974285Y-70664761D01*
X175021904Y-70617142D01*
X175069523Y-70521904D01*
X175069523Y-69712380D01*
X176069523Y-70712380D02*
X175498095Y-70712380D01*
X175783809Y-70712380D02*
X175783809Y-69712380D01*
X175688571Y-69855238D01*
X175593333Y-69950476D01*
X175498095Y-69998095D01*
%TO.C,C2*%
X167473333Y-87577142D02*
X167425714Y-87624761D01*
X167282857Y-87672380D01*
X167187619Y-87672380D01*
X167044761Y-87624761D01*
X166949523Y-87529523D01*
X166901904Y-87434285D01*
X166854285Y-87243809D01*
X166854285Y-87100952D01*
X166901904Y-86910476D01*
X166949523Y-86815238D01*
X167044761Y-86720000D01*
X167187619Y-86672380D01*
X167282857Y-86672380D01*
X167425714Y-86720000D01*
X167473333Y-86767619D01*
X167854285Y-86767619D02*
X167901904Y-86720000D01*
X167997142Y-86672380D01*
X168235238Y-86672380D01*
X168330476Y-86720000D01*
X168378095Y-86767619D01*
X168425714Y-86862857D01*
X168425714Y-86958095D01*
X168378095Y-87100952D01*
X167806666Y-87672380D01*
X168425714Y-87672380D01*
%TO.C,5k1*%
X179697142Y-86702380D02*
X179220952Y-86702380D01*
X179173333Y-87178571D01*
X179220952Y-87130952D01*
X179316190Y-87083333D01*
X179554285Y-87083333D01*
X179649523Y-87130952D01*
X179697142Y-87178571D01*
X179744761Y-87273809D01*
X179744761Y-87511904D01*
X179697142Y-87607142D01*
X179649523Y-87654761D01*
X179554285Y-87702380D01*
X179316190Y-87702380D01*
X179220952Y-87654761D01*
X179173333Y-87607142D01*
X180173333Y-87702380D02*
X180173333Y-86702380D01*
X180268571Y-87321428D02*
X180554285Y-87702380D01*
X180554285Y-87035714D02*
X180173333Y-87416666D01*
X181506666Y-87702380D02*
X180935238Y-87702380D01*
X181220952Y-87702380D02*
X181220952Y-86702380D01*
X181125714Y-86845238D01*
X181030476Y-86940476D01*
X180935238Y-86988095D01*
D11*
%TO.C,BT1*%
X191180000Y-66220000D02*
X191180000Y-68120000D01*
X198430000Y-77670000D02*
X199780000Y-76520000D01*
X198430000Y-64570000D02*
X199780000Y-65720000D01*
X191180000Y-66220000D02*
X192830000Y-64570000D01*
X192830000Y-77670000D02*
X191180000Y-76020000D01*
X191180000Y-76020000D02*
X191180000Y-74120000D01*
X200276459Y-68618306D02*
G75*
G03*
X199780000Y-65720000I-2296459J1098306D01*
G01*
X199780000Y-76520000D02*
G75*
G03*
X200277607Y-73624098I-1800000J1800000D01*
G01*
%TO.C,10k1*%
X180112936Y-82015000D02*
X180567064Y-82015000D01*
X180112936Y-80545000D02*
X180567064Y-80545000D01*
%TO.C,BT2*%
X157790000Y-77670000D02*
X159140000Y-76520000D01*
X157790000Y-64570000D02*
X159140000Y-65720000D01*
X150540000Y-66220000D02*
X152190000Y-64570000D01*
X150540000Y-76020000D02*
X150540000Y-74120000D01*
X150540000Y-66220000D02*
X150540000Y-68120000D01*
X152190000Y-77670000D02*
X150540000Y-76020000D01*
X159140000Y-76520000D02*
G75*
G03*
X159637607Y-73624098I-1800000J1800000D01*
G01*
X159636459Y-68618306D02*
G75*
G03*
X159140000Y-65720000I-2296459J1098306D01*
G01*
%TO.C,D1*%
X173575000Y-65080000D02*
X173575000Y-67000000D01*
X176260000Y-65080000D02*
X173575000Y-65080000D01*
X173575000Y-67000000D02*
X176260000Y-67000000D01*
%TO.C,C1*%
X167901252Y-82015000D02*
X167378748Y-82015000D01*
X167901252Y-80545000D02*
X167378748Y-80545000D01*
%TO.C,U1*%
X175260000Y-76220000D02*
X173310000Y-76220000D01*
X175260000Y-71100000D02*
X171810000Y-71100000D01*
X175260000Y-76220000D02*
X177210000Y-76220000D01*
X175260000Y-71100000D02*
X177210000Y-71100000D01*
%TO.C,C2*%
X167378748Y-88165000D02*
X167901252Y-88165000D01*
X167378748Y-89635000D02*
X167901252Y-89635000D01*
%TO.C,5k1*%
X180112936Y-89635000D02*
X180567064Y-89635000D01*
X180112936Y-88165000D02*
X180567064Y-88165000D01*
%TD*%
M02*
