G04 #@! TF.GenerationSoftware,KiCad,Pcbnew,(5.1.5)-3*
G04 #@! TF.CreationDate,2021-08-24T20:05:06-07:00*
G04 #@! TF.ProjectId,Intro_Project,496e7472-6f5f-4507-926f-6a6563742e6b,rev?*
G04 #@! TF.SameCoordinates,Original*
G04 #@! TF.FileFunction,Soldermask,Top*
G04 #@! TF.FilePolarity,Negative*
%FSLAX46Y46*%
G04 Gerber Fmt 4.6, Leading zero omitted, Abs format (unit mm)*
G04 Created by KiCad (PCBNEW (5.1.5)-3) date 2021-08-24 20:05:06*
%MOMM*%
%LPD*%
G04 APERTURE LIST*
%ADD10C,0.100000*%
G04 APERTURE END LIST*
D10*
G36*
X123314500Y-84720000D02*
G01*
X118112500Y-84720000D01*
X118112500Y-82118000D01*
X123314500Y-82118000D01*
X123314500Y-84720000D01*
G37*
G36*
X148968500Y-84656500D02*
G01*
X143766500Y-84656500D01*
X143766500Y-82054500D01*
X148968500Y-82054500D01*
X148968500Y-84656500D01*
G37*
G36*
X130005468Y-80597065D02*
G01*
X130044138Y-80608796D01*
X130079777Y-80627846D01*
X130111017Y-80653483D01*
X130136654Y-80684723D01*
X130155704Y-80720362D01*
X130167435Y-80759032D01*
X130172000Y-80805388D01*
X130172000Y-81881612D01*
X130167435Y-81927968D01*
X130155704Y-81966638D01*
X130136654Y-82002277D01*
X130111017Y-82033517D01*
X130079777Y-82059154D01*
X130044138Y-82078204D01*
X130005468Y-82089935D01*
X129959112Y-82094500D01*
X129307888Y-82094500D01*
X129261532Y-82089935D01*
X129222862Y-82078204D01*
X129187223Y-82059154D01*
X129155983Y-82033517D01*
X129130346Y-82002277D01*
X129111296Y-81966638D01*
X129099565Y-81927968D01*
X129095000Y-81881612D01*
X129095000Y-80805388D01*
X129099565Y-80759032D01*
X129111296Y-80720362D01*
X129130346Y-80684723D01*
X129155983Y-80653483D01*
X129187223Y-80627846D01*
X129222862Y-80608796D01*
X129261532Y-80597065D01*
X129307888Y-80592500D01*
X129959112Y-80592500D01*
X130005468Y-80597065D01*
G37*
G36*
X131880468Y-80597065D02*
G01*
X131919138Y-80608796D01*
X131954777Y-80627846D01*
X131986017Y-80653483D01*
X132011654Y-80684723D01*
X132030704Y-80720362D01*
X132042435Y-80759032D01*
X132047000Y-80805388D01*
X132047000Y-81881612D01*
X132042435Y-81927968D01*
X132030704Y-81966638D01*
X132011654Y-82002277D01*
X131986017Y-82033517D01*
X131954777Y-82059154D01*
X131919138Y-82078204D01*
X131880468Y-82089935D01*
X131834112Y-82094500D01*
X131182888Y-82094500D01*
X131136532Y-82089935D01*
X131097862Y-82078204D01*
X131062223Y-82059154D01*
X131030983Y-82033517D01*
X131005346Y-82002277D01*
X130986296Y-81966638D01*
X130974565Y-81927968D01*
X130970000Y-81881612D01*
X130970000Y-80805388D01*
X130974565Y-80759032D01*
X130986296Y-80720362D01*
X131005346Y-80684723D01*
X131030983Y-80653483D01*
X131062223Y-80627846D01*
X131097862Y-80608796D01*
X131136532Y-80597065D01*
X131182888Y-80592500D01*
X131834112Y-80592500D01*
X131880468Y-80597065D01*
G37*
G36*
X137277968Y-80597065D02*
G01*
X137316638Y-80608796D01*
X137352277Y-80627846D01*
X137383517Y-80653483D01*
X137409154Y-80684723D01*
X137428204Y-80720362D01*
X137439935Y-80759032D01*
X137444500Y-80805388D01*
X137444500Y-81881612D01*
X137439935Y-81927968D01*
X137428204Y-81966638D01*
X137409154Y-82002277D01*
X137383517Y-82033517D01*
X137352277Y-82059154D01*
X137316638Y-82078204D01*
X137277968Y-82089935D01*
X137231612Y-82094500D01*
X136580388Y-82094500D01*
X136534032Y-82089935D01*
X136495362Y-82078204D01*
X136459723Y-82059154D01*
X136428483Y-82033517D01*
X136402846Y-82002277D01*
X136383796Y-81966638D01*
X136372065Y-81927968D01*
X136367500Y-81881612D01*
X136367500Y-80805388D01*
X136372065Y-80759032D01*
X136383796Y-80720362D01*
X136402846Y-80684723D01*
X136428483Y-80653483D01*
X136459723Y-80627846D01*
X136495362Y-80608796D01*
X136534032Y-80597065D01*
X136580388Y-80592500D01*
X137231612Y-80592500D01*
X137277968Y-80597065D01*
G37*
G36*
X135402968Y-80597065D02*
G01*
X135441638Y-80608796D01*
X135477277Y-80627846D01*
X135508517Y-80653483D01*
X135534154Y-80684723D01*
X135553204Y-80720362D01*
X135564935Y-80759032D01*
X135569500Y-80805388D01*
X135569500Y-81881612D01*
X135564935Y-81927968D01*
X135553204Y-81966638D01*
X135534154Y-82002277D01*
X135508517Y-82033517D01*
X135477277Y-82059154D01*
X135441638Y-82078204D01*
X135402968Y-82089935D01*
X135356612Y-82094500D01*
X134705388Y-82094500D01*
X134659032Y-82089935D01*
X134620362Y-82078204D01*
X134584723Y-82059154D01*
X134553483Y-82033517D01*
X134527846Y-82002277D01*
X134508796Y-81966638D01*
X134497065Y-81927968D01*
X134492500Y-81881612D01*
X134492500Y-80805388D01*
X134497065Y-80759032D01*
X134508796Y-80720362D01*
X134527846Y-80684723D01*
X134553483Y-80653483D01*
X134584723Y-80627846D01*
X134620362Y-80608796D01*
X134659032Y-80597065D01*
X134705388Y-80592500D01*
X135356612Y-80592500D01*
X135402968Y-80597065D01*
G37*
G36*
X122215990Y-70865950D02*
G01*
X122765120Y-71093407D01*
X123153413Y-71254243D01*
X123997071Y-71817957D01*
X124714543Y-72535429D01*
X125278257Y-73379087D01*
X125439093Y-73767380D01*
X125666550Y-74316510D01*
X125864500Y-75311669D01*
X125864500Y-76326331D01*
X125666550Y-77321490D01*
X125439093Y-77870620D01*
X125278257Y-78258913D01*
X124714543Y-79102571D01*
X123997071Y-79820043D01*
X123153413Y-80383757D01*
X122765120Y-80544593D01*
X122215990Y-80772050D01*
X121220831Y-80970000D01*
X120206169Y-80970000D01*
X119211010Y-80772050D01*
X118661880Y-80544593D01*
X118273587Y-80383757D01*
X117429929Y-79820043D01*
X116712457Y-79102571D01*
X116148743Y-78258913D01*
X115987907Y-77870620D01*
X115760450Y-77321490D01*
X115562500Y-76326331D01*
X115562500Y-75311669D01*
X115760450Y-74316510D01*
X115987907Y-73767380D01*
X116148743Y-73379087D01*
X116712457Y-72535429D01*
X117429929Y-71817957D01*
X118273587Y-71254243D01*
X118661880Y-71093407D01*
X119211010Y-70865950D01*
X120206169Y-70668000D01*
X121220831Y-70668000D01*
X122215990Y-70865950D01*
G37*
G36*
X147869990Y-70802450D02*
G01*
X148419120Y-71029907D01*
X148807413Y-71190743D01*
X149651071Y-71754457D01*
X150368543Y-72471929D01*
X150932257Y-73315587D01*
X150932257Y-73315588D01*
X151320550Y-74253010D01*
X151518500Y-75248169D01*
X151518500Y-76262831D01*
X151320550Y-77257990D01*
X151294247Y-77321490D01*
X150932257Y-78195413D01*
X150368543Y-79039071D01*
X149651071Y-79756543D01*
X148807413Y-80320257D01*
X148419120Y-80481093D01*
X147869990Y-80708550D01*
X146874831Y-80906500D01*
X145860169Y-80906500D01*
X144865010Y-80708550D01*
X144315880Y-80481093D01*
X143927587Y-80320257D01*
X143083929Y-79756543D01*
X142366457Y-79039071D01*
X141802743Y-78195413D01*
X141440753Y-77321490D01*
X141414450Y-77257990D01*
X141216500Y-76262831D01*
X141216500Y-75248169D01*
X141414450Y-74253010D01*
X141802743Y-73315588D01*
X141802743Y-73315587D01*
X142366457Y-72471929D01*
X143083929Y-71754457D01*
X143927587Y-71190743D01*
X144315880Y-71029907D01*
X144865010Y-70802450D01*
X145860169Y-70604500D01*
X146874831Y-70604500D01*
X147869990Y-70802450D01*
G37*
G36*
X133038428Y-77018264D02*
G01*
X133059509Y-77024660D01*
X133078945Y-77035048D01*
X133095976Y-77049024D01*
X133109952Y-77066055D01*
X133120340Y-77085491D01*
X133126736Y-77106572D01*
X133129500Y-77134640D01*
X133129500Y-78948360D01*
X133126736Y-78976428D01*
X133120340Y-78997509D01*
X133109952Y-79016945D01*
X133095976Y-79033976D01*
X133078945Y-79047952D01*
X133059509Y-79058340D01*
X133038428Y-79064736D01*
X133010360Y-79067500D01*
X132546640Y-79067500D01*
X132518572Y-79064736D01*
X132497491Y-79058340D01*
X132478055Y-79047952D01*
X132461024Y-79033976D01*
X132447048Y-79016945D01*
X132436660Y-78997509D01*
X132430264Y-78976428D01*
X132427500Y-78948360D01*
X132427500Y-77134640D01*
X132430264Y-77106572D01*
X132436660Y-77085491D01*
X132447048Y-77066055D01*
X132461024Y-77049024D01*
X132478055Y-77035048D01*
X132497491Y-77024660D01*
X132518572Y-77018264D01*
X132546640Y-77015500D01*
X133010360Y-77015500D01*
X133038428Y-77018264D01*
G37*
G36*
X136848428Y-77018264D02*
G01*
X136869509Y-77024660D01*
X136888945Y-77035048D01*
X136905976Y-77049024D01*
X136919952Y-77066055D01*
X136930340Y-77085491D01*
X136936736Y-77106572D01*
X136939500Y-77134640D01*
X136939500Y-78948360D01*
X136936736Y-78976428D01*
X136930340Y-78997509D01*
X136919952Y-79016945D01*
X136905976Y-79033976D01*
X136888945Y-79047952D01*
X136869509Y-79058340D01*
X136848428Y-79064736D01*
X136820360Y-79067500D01*
X136356640Y-79067500D01*
X136328572Y-79064736D01*
X136307491Y-79058340D01*
X136288055Y-79047952D01*
X136271024Y-79033976D01*
X136257048Y-79016945D01*
X136246660Y-78997509D01*
X136240264Y-78976428D01*
X136237500Y-78948360D01*
X136237500Y-77134640D01*
X136240264Y-77106572D01*
X136246660Y-77085491D01*
X136257048Y-77066055D01*
X136271024Y-77049024D01*
X136288055Y-77035048D01*
X136307491Y-77024660D01*
X136328572Y-77018264D01*
X136356640Y-77015500D01*
X136820360Y-77015500D01*
X136848428Y-77018264D01*
G37*
G36*
X135578428Y-77018264D02*
G01*
X135599509Y-77024660D01*
X135618945Y-77035048D01*
X135635976Y-77049024D01*
X135649952Y-77066055D01*
X135660340Y-77085491D01*
X135666736Y-77106572D01*
X135669500Y-77134640D01*
X135669500Y-78948360D01*
X135666736Y-78976428D01*
X135660340Y-78997509D01*
X135649952Y-79016945D01*
X135635976Y-79033976D01*
X135618945Y-79047952D01*
X135599509Y-79058340D01*
X135578428Y-79064736D01*
X135550360Y-79067500D01*
X135086640Y-79067500D01*
X135058572Y-79064736D01*
X135037491Y-79058340D01*
X135018055Y-79047952D01*
X135001024Y-79033976D01*
X134987048Y-79016945D01*
X134976660Y-78997509D01*
X134970264Y-78976428D01*
X134967500Y-78948360D01*
X134967500Y-77134640D01*
X134970264Y-77106572D01*
X134976660Y-77085491D01*
X134987048Y-77066055D01*
X135001024Y-77049024D01*
X135018055Y-77035048D01*
X135037491Y-77024660D01*
X135058572Y-77018264D01*
X135086640Y-77015500D01*
X135550360Y-77015500D01*
X135578428Y-77018264D01*
G37*
G36*
X134308428Y-77018264D02*
G01*
X134329509Y-77024660D01*
X134348945Y-77035048D01*
X134365976Y-77049024D01*
X134379952Y-77066055D01*
X134390340Y-77085491D01*
X134396736Y-77106572D01*
X134399500Y-77134640D01*
X134399500Y-78948360D01*
X134396736Y-78976428D01*
X134390340Y-78997509D01*
X134379952Y-79016945D01*
X134365976Y-79033976D01*
X134348945Y-79047952D01*
X134329509Y-79058340D01*
X134308428Y-79064736D01*
X134280360Y-79067500D01*
X133816640Y-79067500D01*
X133788572Y-79064736D01*
X133767491Y-79058340D01*
X133748055Y-79047952D01*
X133731024Y-79033976D01*
X133717048Y-79016945D01*
X133706660Y-78997509D01*
X133700264Y-78976428D01*
X133697500Y-78948360D01*
X133697500Y-77134640D01*
X133700264Y-77106572D01*
X133706660Y-77085491D01*
X133717048Y-77066055D01*
X133731024Y-77049024D01*
X133748055Y-77035048D01*
X133767491Y-77024660D01*
X133788572Y-77018264D01*
X133816640Y-77015500D01*
X134280360Y-77015500D01*
X134308428Y-77018264D01*
G37*
G36*
X131203968Y-77922065D02*
G01*
X131242638Y-77933796D01*
X131278277Y-77952846D01*
X131309517Y-77978483D01*
X131335154Y-78009723D01*
X131354204Y-78045362D01*
X131365935Y-78084032D01*
X131370500Y-78130388D01*
X131370500Y-78781612D01*
X131365935Y-78827968D01*
X131354204Y-78866638D01*
X131335154Y-78902277D01*
X131309517Y-78933517D01*
X131278277Y-78959154D01*
X131242638Y-78978204D01*
X131203968Y-78989935D01*
X131157612Y-78994500D01*
X130081388Y-78994500D01*
X130035032Y-78989935D01*
X129996362Y-78978204D01*
X129960723Y-78959154D01*
X129929483Y-78933517D01*
X129903846Y-78902277D01*
X129884796Y-78866638D01*
X129873065Y-78827968D01*
X129868500Y-78781612D01*
X129868500Y-78130388D01*
X129873065Y-78084032D01*
X129884796Y-78045362D01*
X129903846Y-78009723D01*
X129929483Y-77978483D01*
X129960723Y-77952846D01*
X129996362Y-77933796D01*
X130035032Y-77922065D01*
X130081388Y-77917500D01*
X131157612Y-77917500D01*
X131203968Y-77922065D01*
G37*
G36*
X131203968Y-76047065D02*
G01*
X131242638Y-76058796D01*
X131278277Y-76077846D01*
X131309517Y-76103483D01*
X131335154Y-76134723D01*
X131354204Y-76170362D01*
X131365935Y-76209032D01*
X131370500Y-76255388D01*
X131370500Y-76906612D01*
X131365935Y-76952968D01*
X131354204Y-76991638D01*
X131335154Y-77027277D01*
X131309517Y-77058517D01*
X131278277Y-77084154D01*
X131242638Y-77103204D01*
X131203968Y-77114935D01*
X131157612Y-77119500D01*
X130081388Y-77119500D01*
X130035032Y-77114935D01*
X129996362Y-77103204D01*
X129960723Y-77084154D01*
X129929483Y-77058517D01*
X129903846Y-77027277D01*
X129884796Y-76991638D01*
X129873065Y-76952968D01*
X129868500Y-76906612D01*
X129868500Y-76255388D01*
X129873065Y-76209032D01*
X129884796Y-76170362D01*
X129903846Y-76134723D01*
X129929483Y-76103483D01*
X129960723Y-76077846D01*
X129996362Y-76058796D01*
X130035032Y-76047065D01*
X130081388Y-76042500D01*
X131157612Y-76042500D01*
X131203968Y-76047065D01*
G37*
G36*
X131203968Y-74269065D02*
G01*
X131242638Y-74280796D01*
X131278277Y-74299846D01*
X131309517Y-74325483D01*
X131335154Y-74356723D01*
X131354204Y-74392362D01*
X131365935Y-74431032D01*
X131370500Y-74477388D01*
X131370500Y-75128612D01*
X131365935Y-75174968D01*
X131354204Y-75213638D01*
X131335154Y-75249277D01*
X131309517Y-75280517D01*
X131278277Y-75306154D01*
X131242638Y-75325204D01*
X131203968Y-75336935D01*
X131157612Y-75341500D01*
X130081388Y-75341500D01*
X130035032Y-75336935D01*
X129996362Y-75325204D01*
X129960723Y-75306154D01*
X129929483Y-75280517D01*
X129903846Y-75249277D01*
X129884796Y-75213638D01*
X129873065Y-75174968D01*
X129868500Y-75128612D01*
X129868500Y-74477388D01*
X129873065Y-74431032D01*
X129884796Y-74392362D01*
X129903846Y-74356723D01*
X129929483Y-74325483D01*
X129960723Y-74299846D01*
X129996362Y-74280796D01*
X130035032Y-74269065D01*
X130081388Y-74264500D01*
X131157612Y-74264500D01*
X131203968Y-74269065D01*
G37*
G36*
X136848428Y-72068264D02*
G01*
X136869509Y-72074660D01*
X136888945Y-72085048D01*
X136905976Y-72099024D01*
X136919952Y-72116055D01*
X136930340Y-72135491D01*
X136936736Y-72156572D01*
X136939500Y-72184640D01*
X136939500Y-73998360D01*
X136936736Y-74026428D01*
X136930340Y-74047509D01*
X136919952Y-74066945D01*
X136905976Y-74083976D01*
X136888945Y-74097952D01*
X136869509Y-74108340D01*
X136848428Y-74114736D01*
X136820360Y-74117500D01*
X136356640Y-74117500D01*
X136328572Y-74114736D01*
X136307491Y-74108340D01*
X136288055Y-74097952D01*
X136271024Y-74083976D01*
X136257048Y-74066945D01*
X136246660Y-74047509D01*
X136240264Y-74026428D01*
X136237500Y-73998360D01*
X136237500Y-72184640D01*
X136240264Y-72156572D01*
X136246660Y-72135491D01*
X136257048Y-72116055D01*
X136271024Y-72099024D01*
X136288055Y-72085048D01*
X136307491Y-72074660D01*
X136328572Y-72068264D01*
X136356640Y-72065500D01*
X136820360Y-72065500D01*
X136848428Y-72068264D01*
G37*
G36*
X135578428Y-72068264D02*
G01*
X135599509Y-72074660D01*
X135618945Y-72085048D01*
X135635976Y-72099024D01*
X135649952Y-72116055D01*
X135660340Y-72135491D01*
X135666736Y-72156572D01*
X135669500Y-72184640D01*
X135669500Y-73998360D01*
X135666736Y-74026428D01*
X135660340Y-74047509D01*
X135649952Y-74066945D01*
X135635976Y-74083976D01*
X135618945Y-74097952D01*
X135599509Y-74108340D01*
X135578428Y-74114736D01*
X135550360Y-74117500D01*
X135086640Y-74117500D01*
X135058572Y-74114736D01*
X135037491Y-74108340D01*
X135018055Y-74097952D01*
X135001024Y-74083976D01*
X134987048Y-74066945D01*
X134976660Y-74047509D01*
X134970264Y-74026428D01*
X134967500Y-73998360D01*
X134967500Y-72184640D01*
X134970264Y-72156572D01*
X134976660Y-72135491D01*
X134987048Y-72116055D01*
X135001024Y-72099024D01*
X135018055Y-72085048D01*
X135037491Y-72074660D01*
X135058572Y-72068264D01*
X135086640Y-72065500D01*
X135550360Y-72065500D01*
X135578428Y-72068264D01*
G37*
G36*
X134308428Y-72068264D02*
G01*
X134329509Y-72074660D01*
X134348945Y-72085048D01*
X134365976Y-72099024D01*
X134379952Y-72116055D01*
X134390340Y-72135491D01*
X134396736Y-72156572D01*
X134399500Y-72184640D01*
X134399500Y-73998360D01*
X134396736Y-74026428D01*
X134390340Y-74047509D01*
X134379952Y-74066945D01*
X134365976Y-74083976D01*
X134348945Y-74097952D01*
X134329509Y-74108340D01*
X134308428Y-74114736D01*
X134280360Y-74117500D01*
X133816640Y-74117500D01*
X133788572Y-74114736D01*
X133767491Y-74108340D01*
X133748055Y-74097952D01*
X133731024Y-74083976D01*
X133717048Y-74066945D01*
X133706660Y-74047509D01*
X133700264Y-74026428D01*
X133697500Y-73998360D01*
X133697500Y-72184640D01*
X133700264Y-72156572D01*
X133706660Y-72135491D01*
X133717048Y-72116055D01*
X133731024Y-72099024D01*
X133748055Y-72085048D01*
X133767491Y-72074660D01*
X133788572Y-72068264D01*
X133816640Y-72065500D01*
X134280360Y-72065500D01*
X134308428Y-72068264D01*
G37*
G36*
X133038428Y-72068264D02*
G01*
X133059509Y-72074660D01*
X133078945Y-72085048D01*
X133095976Y-72099024D01*
X133109952Y-72116055D01*
X133120340Y-72135491D01*
X133126736Y-72156572D01*
X133129500Y-72184640D01*
X133129500Y-73998360D01*
X133126736Y-74026428D01*
X133120340Y-74047509D01*
X133109952Y-74066945D01*
X133095976Y-74083976D01*
X133078945Y-74097952D01*
X133059509Y-74108340D01*
X133038428Y-74114736D01*
X133010360Y-74117500D01*
X132546640Y-74117500D01*
X132518572Y-74114736D01*
X132497491Y-74108340D01*
X132478055Y-74097952D01*
X132461024Y-74083976D01*
X132447048Y-74066945D01*
X132436660Y-74047509D01*
X132430264Y-74026428D01*
X132427500Y-73998360D01*
X132427500Y-72184640D01*
X132430264Y-72156572D01*
X132436660Y-72135491D01*
X132447048Y-72116055D01*
X132461024Y-72099024D01*
X132478055Y-72085048D01*
X132497491Y-72074660D01*
X132518572Y-72068264D01*
X132546640Y-72065500D01*
X133010360Y-72065500D01*
X133038428Y-72068264D01*
G37*
G36*
X131203968Y-72394065D02*
G01*
X131242638Y-72405796D01*
X131278277Y-72424846D01*
X131309517Y-72450483D01*
X131335154Y-72481723D01*
X131354204Y-72517362D01*
X131365935Y-72556032D01*
X131370500Y-72602388D01*
X131370500Y-73253612D01*
X131365935Y-73299968D01*
X131354204Y-73338638D01*
X131335154Y-73374277D01*
X131309517Y-73405517D01*
X131278277Y-73431154D01*
X131242638Y-73450204D01*
X131203968Y-73461935D01*
X131157612Y-73466500D01*
X130081388Y-73466500D01*
X130035032Y-73461935D01*
X129996362Y-73450204D01*
X129960723Y-73431154D01*
X129929483Y-73405517D01*
X129903846Y-73374277D01*
X129884796Y-73338638D01*
X129873065Y-73299968D01*
X129868500Y-73253612D01*
X129868500Y-72602388D01*
X129873065Y-72556032D01*
X129884796Y-72517362D01*
X129903846Y-72481723D01*
X129929483Y-72450483D01*
X129960723Y-72424846D01*
X129996362Y-72405796D01*
X130035032Y-72394065D01*
X130081388Y-72389500D01*
X131157612Y-72389500D01*
X131203968Y-72394065D01*
G37*
G36*
X136134968Y-68405065D02*
G01*
X136173638Y-68416796D01*
X136209277Y-68435846D01*
X136240517Y-68461483D01*
X136266154Y-68492723D01*
X136285204Y-68528362D01*
X136296935Y-68567032D01*
X136301500Y-68613388D01*
X136301500Y-69689612D01*
X136296935Y-69735968D01*
X136285204Y-69774638D01*
X136266154Y-69810277D01*
X136240517Y-69841517D01*
X136209277Y-69867154D01*
X136173638Y-69886204D01*
X136134968Y-69897935D01*
X136088612Y-69902500D01*
X135437388Y-69902500D01*
X135391032Y-69897935D01*
X135352362Y-69886204D01*
X135316723Y-69867154D01*
X135285483Y-69841517D01*
X135259846Y-69810277D01*
X135240796Y-69774638D01*
X135229065Y-69735968D01*
X135224500Y-69689612D01*
X135224500Y-68613388D01*
X135229065Y-68567032D01*
X135240796Y-68528362D01*
X135259846Y-68492723D01*
X135285483Y-68461483D01*
X135316723Y-68435846D01*
X135352362Y-68416796D01*
X135391032Y-68405065D01*
X135437388Y-68400500D01*
X136088612Y-68400500D01*
X136134968Y-68405065D01*
G37*
G36*
X134259968Y-68405065D02*
G01*
X134298638Y-68416796D01*
X134334277Y-68435846D01*
X134365517Y-68461483D01*
X134391154Y-68492723D01*
X134410204Y-68528362D01*
X134421935Y-68567032D01*
X134426500Y-68613388D01*
X134426500Y-69689612D01*
X134421935Y-69735968D01*
X134410204Y-69774638D01*
X134391154Y-69810277D01*
X134365517Y-69841517D01*
X134334277Y-69867154D01*
X134298638Y-69886204D01*
X134259968Y-69897935D01*
X134213612Y-69902500D01*
X133562388Y-69902500D01*
X133516032Y-69897935D01*
X133477362Y-69886204D01*
X133441723Y-69867154D01*
X133410483Y-69841517D01*
X133384846Y-69810277D01*
X133365796Y-69774638D01*
X133354065Y-69735968D01*
X133349500Y-69689612D01*
X133349500Y-68613388D01*
X133354065Y-68567032D01*
X133365796Y-68528362D01*
X133384846Y-68492723D01*
X133410483Y-68461483D01*
X133441723Y-68435846D01*
X133477362Y-68416796D01*
X133516032Y-68405065D01*
X133562388Y-68400500D01*
X134213612Y-68400500D01*
X134259968Y-68405065D01*
G37*
G36*
X123314500Y-69520000D02*
G01*
X118112500Y-69520000D01*
X118112500Y-66918000D01*
X123314500Y-66918000D01*
X123314500Y-69520000D01*
G37*
G36*
X148968500Y-69456500D02*
G01*
X143766500Y-69456500D01*
X143766500Y-66854500D01*
X148968500Y-66854500D01*
X148968500Y-69456500D01*
G37*
M02*
