G04 #@! TF.GenerationSoftware,KiCad,Pcbnew,(5.1.5)-3*
G04 #@! TF.CreationDate,2021-08-24T20:05:06-07:00*
G04 #@! TF.ProjectId,Intro_Project,496e7472-6f5f-4507-926f-6a6563742e6b,rev?*
G04 #@! TF.SameCoordinates,Original*
G04 #@! TF.FileFunction,Legend,Top*
G04 #@! TF.FilePolarity,Positive*
%FSLAX46Y46*%
G04 Gerber Fmt 4.6, Leading zero omitted, Abs format (unit mm)*
G04 Created by KiCad (PCBNEW (5.1.5)-3) date 2021-08-24 20:05:06*
%MOMM*%
%LPD*%
G04 APERTURE LIST*
%ADD10C,0.120000*%
%ADD11C,0.150000*%
G04 APERTURE END LIST*
D10*
X132123500Y-75566500D02*
X132123500Y-77516500D01*
X132123500Y-75566500D02*
X132123500Y-73616500D01*
X137243500Y-75566500D02*
X137243500Y-77516500D01*
X137243500Y-75566500D02*
X137243500Y-72116500D01*
X141669893Y-73251402D02*
G75*
G02X142167500Y-70355500I2297607J1095902D01*
G01*
X141671042Y-78257194D02*
G75*
G03X142167500Y-81155500I2296458J-1098306D01*
G01*
X149117500Y-69205500D02*
X150767500Y-70855500D01*
X150767500Y-80655500D02*
X149117500Y-82305500D01*
X150767500Y-80655500D02*
X150767500Y-78755500D01*
X150767500Y-70855500D02*
X150767500Y-72755500D01*
X143517500Y-69205500D02*
X142167500Y-70355500D01*
X143517500Y-82305500D02*
X142167500Y-81155500D01*
X123563500Y-69269000D02*
X124913500Y-70419000D01*
X123563500Y-82369000D02*
X124913500Y-81219000D01*
X116313500Y-80719000D02*
X116313500Y-78819000D01*
X116313500Y-70919000D02*
X116313500Y-72819000D01*
X116313500Y-70919000D02*
X117963500Y-69269000D01*
X117963500Y-82369000D02*
X116313500Y-80719000D01*
X125409958Y-73317306D02*
G75*
G03X124913500Y-70419000I-2296458J1098306D01*
G01*
X125411107Y-78323098D02*
G75*
G02X124913500Y-81219000I-2297607J-1095902D01*
G01*
X129909500Y-73606922D02*
X129909500Y-74124078D01*
X131329500Y-73606922D02*
X131329500Y-74124078D01*
X131329500Y-77259922D02*
X131329500Y-77777078D01*
X129909500Y-77259922D02*
X129909500Y-77777078D01*
X133825500Y-70111500D02*
X136510500Y-70111500D01*
X136510500Y-70111500D02*
X136510500Y-68191500D01*
X136510500Y-68191500D02*
X133825500Y-68191500D01*
X135709922Y-80633500D02*
X136227078Y-80633500D01*
X135709922Y-82053500D02*
X136227078Y-82053500D01*
X130312422Y-82053500D02*
X130829578Y-82053500D01*
X130312422Y-80633500D02*
X130829578Y-80633500D01*
D11*
X137501380Y-76009404D02*
X138310904Y-76009404D01*
X138406142Y-75961785D01*
X138453761Y-75914166D01*
X138501380Y-75818928D01*
X138501380Y-75628452D01*
X138453761Y-75533214D01*
X138406142Y-75485595D01*
X138310904Y-75437976D01*
X137501380Y-75437976D01*
X138501380Y-74437976D02*
X138501380Y-75009404D01*
X138501380Y-74723690D02*
X137501380Y-74723690D01*
X137644238Y-74818928D01*
X137739476Y-74914166D01*
X137787095Y-75009404D01*
X140296071Y-76541214D02*
X140343690Y-76398357D01*
X140391309Y-76350738D01*
X140486547Y-76303119D01*
X140629404Y-76303119D01*
X140724642Y-76350738D01*
X140772261Y-76398357D01*
X140819880Y-76493595D01*
X140819880Y-76874547D01*
X139819880Y-76874547D01*
X139819880Y-76541214D01*
X139867500Y-76445976D01*
X139915119Y-76398357D01*
X140010357Y-76350738D01*
X140105595Y-76350738D01*
X140200833Y-76398357D01*
X140248452Y-76445976D01*
X140296071Y-76541214D01*
X140296071Y-76874547D01*
X139819880Y-76017404D02*
X139819880Y-75445976D01*
X140819880Y-75731690D02*
X139819880Y-75731690D01*
X139915119Y-75160261D02*
X139867500Y-75112642D01*
X139819880Y-75017404D01*
X139819880Y-74779309D01*
X139867500Y-74684071D01*
X139915119Y-74636452D01*
X140010357Y-74588833D01*
X140105595Y-74588833D01*
X140248452Y-74636452D01*
X140819880Y-75207880D01*
X140819880Y-74588833D01*
X126642071Y-76604714D02*
X126689690Y-76461857D01*
X126737309Y-76414238D01*
X126832547Y-76366619D01*
X126975404Y-76366619D01*
X127070642Y-76414238D01*
X127118261Y-76461857D01*
X127165880Y-76557095D01*
X127165880Y-76938047D01*
X126165880Y-76938047D01*
X126165880Y-76604714D01*
X126213500Y-76509476D01*
X126261119Y-76461857D01*
X126356357Y-76414238D01*
X126451595Y-76414238D01*
X126546833Y-76461857D01*
X126594452Y-76509476D01*
X126642071Y-76604714D01*
X126642071Y-76938047D01*
X126165880Y-76080904D02*
X126165880Y-75509476D01*
X127165880Y-75795190D02*
X126165880Y-75795190D01*
X127165880Y-74652333D02*
X127165880Y-75223761D01*
X127165880Y-74938047D02*
X126165880Y-74938047D01*
X126308738Y-75033285D01*
X126403976Y-75128523D01*
X126451595Y-75223761D01*
X129516142Y-73890166D02*
X129563761Y-73937785D01*
X129611380Y-74080642D01*
X129611380Y-74175880D01*
X129563761Y-74318738D01*
X129468523Y-74413976D01*
X129373285Y-74461595D01*
X129182809Y-74509214D01*
X129039952Y-74509214D01*
X128849476Y-74461595D01*
X128754238Y-74413976D01*
X128659000Y-74318738D01*
X128611380Y-74175880D01*
X128611380Y-74080642D01*
X128659000Y-73937785D01*
X128706619Y-73890166D01*
X129611380Y-72937785D02*
X129611380Y-73509214D01*
X129611380Y-73223500D02*
X128611380Y-73223500D01*
X128754238Y-73318738D01*
X128849476Y-73413976D01*
X128897095Y-73509214D01*
X129325642Y-77509666D02*
X129373261Y-77557285D01*
X129420880Y-77700142D01*
X129420880Y-77795380D01*
X129373261Y-77938238D01*
X129278023Y-78033476D01*
X129182785Y-78081095D01*
X128992309Y-78128714D01*
X128849452Y-78128714D01*
X128658976Y-78081095D01*
X128563738Y-78033476D01*
X128468500Y-77938238D01*
X128420880Y-77795380D01*
X128420880Y-77700142D01*
X128468500Y-77557285D01*
X128516119Y-77509666D01*
X128516119Y-77128714D02*
X128468500Y-77081095D01*
X128420880Y-76985857D01*
X128420880Y-76747761D01*
X128468500Y-76652523D01*
X128516119Y-76604904D01*
X128611357Y-76557285D01*
X128706595Y-76557285D01*
X128849452Y-76604904D01*
X129420880Y-77176333D01*
X129420880Y-76557285D01*
X134087404Y-71253880D02*
X134087404Y-70253880D01*
X134325500Y-70253880D01*
X134468357Y-70301500D01*
X134563595Y-70396738D01*
X134611214Y-70491976D01*
X134658833Y-70682452D01*
X134658833Y-70825309D01*
X134611214Y-71015785D01*
X134563595Y-71111023D01*
X134468357Y-71206261D01*
X134325500Y-71253880D01*
X134087404Y-71253880D01*
X135611214Y-71253880D02*
X135039785Y-71253880D01*
X135325500Y-71253880D02*
X135325500Y-70253880D01*
X135230261Y-70396738D01*
X135135023Y-70491976D01*
X135039785Y-70539595D01*
X138960880Y-81383166D02*
X138484690Y-81716500D01*
X138960880Y-81954595D02*
X137960880Y-81954595D01*
X137960880Y-81573642D01*
X138008500Y-81478404D01*
X138056119Y-81430785D01*
X138151357Y-81383166D01*
X138294214Y-81383166D01*
X138389452Y-81430785D01*
X138437071Y-81478404D01*
X138484690Y-81573642D01*
X138484690Y-81954595D01*
X138960880Y-80430785D02*
X138960880Y-81002214D01*
X138960880Y-80716500D02*
X137960880Y-80716500D01*
X138103738Y-80811738D01*
X138198976Y-80906976D01*
X138246595Y-81002214D01*
X133436380Y-81510166D02*
X132960190Y-81843500D01*
X133436380Y-82081595D02*
X132436380Y-82081595D01*
X132436380Y-81700642D01*
X132484000Y-81605404D01*
X132531619Y-81557785D01*
X132626857Y-81510166D01*
X132769714Y-81510166D01*
X132864952Y-81557785D01*
X132912571Y-81605404D01*
X132960190Y-81700642D01*
X132960190Y-82081595D01*
X132531619Y-81129214D02*
X132484000Y-81081595D01*
X132436380Y-80986357D01*
X132436380Y-80748261D01*
X132484000Y-80653023D01*
X132531619Y-80605404D01*
X132626857Y-80557785D01*
X132722095Y-80557785D01*
X132864952Y-80605404D01*
X133436380Y-81176833D01*
X133436380Y-80557785D01*
M02*
