G04 #@! TF.GenerationSoftware,KiCad,Pcbnew,(5.1.5)-3*
G04 #@! TF.CreationDate,2021-08-24T20:05:05-07:00*
G04 #@! TF.ProjectId,Intro_Project,496e7472-6f5f-4507-926f-6a6563742e6b,rev?*
G04 #@! TF.SameCoordinates,Original*
G04 #@! TF.FileFunction,Copper,L1,Top*
G04 #@! TF.FilePolarity,Positive*
%FSLAX46Y46*%
G04 Gerber Fmt 4.6, Leading zero omitted, Abs format (unit mm)*
G04 Created by KiCad (PCBNEW (5.1.5)-3) date 2021-08-24 20:05:05*
%MOMM*%
%LPD*%
G04 APERTURE LIST*
%ADD10C,0.100000*%
%ADD11C,10.200000*%
%ADD12R,5.100000X2.500000*%
%ADD13C,0.250000*%
G04 APERTURE END LIST*
G04 #@! TA.AperFunction,SMDPad,CuDef*
D10*
G36*
X136753203Y-72117222D02*
G01*
X136767764Y-72119382D01*
X136782043Y-72122959D01*
X136795903Y-72127918D01*
X136809210Y-72134212D01*
X136821836Y-72141780D01*
X136833659Y-72150548D01*
X136844566Y-72160434D01*
X136854452Y-72171341D01*
X136863220Y-72183164D01*
X136870788Y-72195790D01*
X136877082Y-72209097D01*
X136882041Y-72222957D01*
X136885618Y-72237236D01*
X136887778Y-72251797D01*
X136888500Y-72266500D01*
X136888500Y-73916500D01*
X136887778Y-73931203D01*
X136885618Y-73945764D01*
X136882041Y-73960043D01*
X136877082Y-73973903D01*
X136870788Y-73987210D01*
X136863220Y-73999836D01*
X136854452Y-74011659D01*
X136844566Y-74022566D01*
X136833659Y-74032452D01*
X136821836Y-74041220D01*
X136809210Y-74048788D01*
X136795903Y-74055082D01*
X136782043Y-74060041D01*
X136767764Y-74063618D01*
X136753203Y-74065778D01*
X136738500Y-74066500D01*
X136438500Y-74066500D01*
X136423797Y-74065778D01*
X136409236Y-74063618D01*
X136394957Y-74060041D01*
X136381097Y-74055082D01*
X136367790Y-74048788D01*
X136355164Y-74041220D01*
X136343341Y-74032452D01*
X136332434Y-74022566D01*
X136322548Y-74011659D01*
X136313780Y-73999836D01*
X136306212Y-73987210D01*
X136299918Y-73973903D01*
X136294959Y-73960043D01*
X136291382Y-73945764D01*
X136289222Y-73931203D01*
X136288500Y-73916500D01*
X136288500Y-72266500D01*
X136289222Y-72251797D01*
X136291382Y-72237236D01*
X136294959Y-72222957D01*
X136299918Y-72209097D01*
X136306212Y-72195790D01*
X136313780Y-72183164D01*
X136322548Y-72171341D01*
X136332434Y-72160434D01*
X136343341Y-72150548D01*
X136355164Y-72141780D01*
X136367790Y-72134212D01*
X136381097Y-72127918D01*
X136394957Y-72122959D01*
X136409236Y-72119382D01*
X136423797Y-72117222D01*
X136438500Y-72116500D01*
X136738500Y-72116500D01*
X136753203Y-72117222D01*
G37*
G04 #@! TD.AperFunction*
G04 #@! TA.AperFunction,SMDPad,CuDef*
G36*
X135483203Y-72117222D02*
G01*
X135497764Y-72119382D01*
X135512043Y-72122959D01*
X135525903Y-72127918D01*
X135539210Y-72134212D01*
X135551836Y-72141780D01*
X135563659Y-72150548D01*
X135574566Y-72160434D01*
X135584452Y-72171341D01*
X135593220Y-72183164D01*
X135600788Y-72195790D01*
X135607082Y-72209097D01*
X135612041Y-72222957D01*
X135615618Y-72237236D01*
X135617778Y-72251797D01*
X135618500Y-72266500D01*
X135618500Y-73916500D01*
X135617778Y-73931203D01*
X135615618Y-73945764D01*
X135612041Y-73960043D01*
X135607082Y-73973903D01*
X135600788Y-73987210D01*
X135593220Y-73999836D01*
X135584452Y-74011659D01*
X135574566Y-74022566D01*
X135563659Y-74032452D01*
X135551836Y-74041220D01*
X135539210Y-74048788D01*
X135525903Y-74055082D01*
X135512043Y-74060041D01*
X135497764Y-74063618D01*
X135483203Y-74065778D01*
X135468500Y-74066500D01*
X135168500Y-74066500D01*
X135153797Y-74065778D01*
X135139236Y-74063618D01*
X135124957Y-74060041D01*
X135111097Y-74055082D01*
X135097790Y-74048788D01*
X135085164Y-74041220D01*
X135073341Y-74032452D01*
X135062434Y-74022566D01*
X135052548Y-74011659D01*
X135043780Y-73999836D01*
X135036212Y-73987210D01*
X135029918Y-73973903D01*
X135024959Y-73960043D01*
X135021382Y-73945764D01*
X135019222Y-73931203D01*
X135018500Y-73916500D01*
X135018500Y-72266500D01*
X135019222Y-72251797D01*
X135021382Y-72237236D01*
X135024959Y-72222957D01*
X135029918Y-72209097D01*
X135036212Y-72195790D01*
X135043780Y-72183164D01*
X135052548Y-72171341D01*
X135062434Y-72160434D01*
X135073341Y-72150548D01*
X135085164Y-72141780D01*
X135097790Y-72134212D01*
X135111097Y-72127918D01*
X135124957Y-72122959D01*
X135139236Y-72119382D01*
X135153797Y-72117222D01*
X135168500Y-72116500D01*
X135468500Y-72116500D01*
X135483203Y-72117222D01*
G37*
G04 #@! TD.AperFunction*
G04 #@! TA.AperFunction,SMDPad,CuDef*
G36*
X134213203Y-72117222D02*
G01*
X134227764Y-72119382D01*
X134242043Y-72122959D01*
X134255903Y-72127918D01*
X134269210Y-72134212D01*
X134281836Y-72141780D01*
X134293659Y-72150548D01*
X134304566Y-72160434D01*
X134314452Y-72171341D01*
X134323220Y-72183164D01*
X134330788Y-72195790D01*
X134337082Y-72209097D01*
X134342041Y-72222957D01*
X134345618Y-72237236D01*
X134347778Y-72251797D01*
X134348500Y-72266500D01*
X134348500Y-73916500D01*
X134347778Y-73931203D01*
X134345618Y-73945764D01*
X134342041Y-73960043D01*
X134337082Y-73973903D01*
X134330788Y-73987210D01*
X134323220Y-73999836D01*
X134314452Y-74011659D01*
X134304566Y-74022566D01*
X134293659Y-74032452D01*
X134281836Y-74041220D01*
X134269210Y-74048788D01*
X134255903Y-74055082D01*
X134242043Y-74060041D01*
X134227764Y-74063618D01*
X134213203Y-74065778D01*
X134198500Y-74066500D01*
X133898500Y-74066500D01*
X133883797Y-74065778D01*
X133869236Y-74063618D01*
X133854957Y-74060041D01*
X133841097Y-74055082D01*
X133827790Y-74048788D01*
X133815164Y-74041220D01*
X133803341Y-74032452D01*
X133792434Y-74022566D01*
X133782548Y-74011659D01*
X133773780Y-73999836D01*
X133766212Y-73987210D01*
X133759918Y-73973903D01*
X133754959Y-73960043D01*
X133751382Y-73945764D01*
X133749222Y-73931203D01*
X133748500Y-73916500D01*
X133748500Y-72266500D01*
X133749222Y-72251797D01*
X133751382Y-72237236D01*
X133754959Y-72222957D01*
X133759918Y-72209097D01*
X133766212Y-72195790D01*
X133773780Y-72183164D01*
X133782548Y-72171341D01*
X133792434Y-72160434D01*
X133803341Y-72150548D01*
X133815164Y-72141780D01*
X133827790Y-72134212D01*
X133841097Y-72127918D01*
X133854957Y-72122959D01*
X133869236Y-72119382D01*
X133883797Y-72117222D01*
X133898500Y-72116500D01*
X134198500Y-72116500D01*
X134213203Y-72117222D01*
G37*
G04 #@! TD.AperFunction*
G04 #@! TA.AperFunction,SMDPad,CuDef*
G36*
X132943203Y-72117222D02*
G01*
X132957764Y-72119382D01*
X132972043Y-72122959D01*
X132985903Y-72127918D01*
X132999210Y-72134212D01*
X133011836Y-72141780D01*
X133023659Y-72150548D01*
X133034566Y-72160434D01*
X133044452Y-72171341D01*
X133053220Y-72183164D01*
X133060788Y-72195790D01*
X133067082Y-72209097D01*
X133072041Y-72222957D01*
X133075618Y-72237236D01*
X133077778Y-72251797D01*
X133078500Y-72266500D01*
X133078500Y-73916500D01*
X133077778Y-73931203D01*
X133075618Y-73945764D01*
X133072041Y-73960043D01*
X133067082Y-73973903D01*
X133060788Y-73987210D01*
X133053220Y-73999836D01*
X133044452Y-74011659D01*
X133034566Y-74022566D01*
X133023659Y-74032452D01*
X133011836Y-74041220D01*
X132999210Y-74048788D01*
X132985903Y-74055082D01*
X132972043Y-74060041D01*
X132957764Y-74063618D01*
X132943203Y-74065778D01*
X132928500Y-74066500D01*
X132628500Y-74066500D01*
X132613797Y-74065778D01*
X132599236Y-74063618D01*
X132584957Y-74060041D01*
X132571097Y-74055082D01*
X132557790Y-74048788D01*
X132545164Y-74041220D01*
X132533341Y-74032452D01*
X132522434Y-74022566D01*
X132512548Y-74011659D01*
X132503780Y-73999836D01*
X132496212Y-73987210D01*
X132489918Y-73973903D01*
X132484959Y-73960043D01*
X132481382Y-73945764D01*
X132479222Y-73931203D01*
X132478500Y-73916500D01*
X132478500Y-72266500D01*
X132479222Y-72251797D01*
X132481382Y-72237236D01*
X132484959Y-72222957D01*
X132489918Y-72209097D01*
X132496212Y-72195790D01*
X132503780Y-72183164D01*
X132512548Y-72171341D01*
X132522434Y-72160434D01*
X132533341Y-72150548D01*
X132545164Y-72141780D01*
X132557790Y-72134212D01*
X132571097Y-72127918D01*
X132584957Y-72122959D01*
X132599236Y-72119382D01*
X132613797Y-72117222D01*
X132628500Y-72116500D01*
X132928500Y-72116500D01*
X132943203Y-72117222D01*
G37*
G04 #@! TD.AperFunction*
G04 #@! TA.AperFunction,SMDPad,CuDef*
G36*
X132943203Y-77067222D02*
G01*
X132957764Y-77069382D01*
X132972043Y-77072959D01*
X132985903Y-77077918D01*
X132999210Y-77084212D01*
X133011836Y-77091780D01*
X133023659Y-77100548D01*
X133034566Y-77110434D01*
X133044452Y-77121341D01*
X133053220Y-77133164D01*
X133060788Y-77145790D01*
X133067082Y-77159097D01*
X133072041Y-77172957D01*
X133075618Y-77187236D01*
X133077778Y-77201797D01*
X133078500Y-77216500D01*
X133078500Y-78866500D01*
X133077778Y-78881203D01*
X133075618Y-78895764D01*
X133072041Y-78910043D01*
X133067082Y-78923903D01*
X133060788Y-78937210D01*
X133053220Y-78949836D01*
X133044452Y-78961659D01*
X133034566Y-78972566D01*
X133023659Y-78982452D01*
X133011836Y-78991220D01*
X132999210Y-78998788D01*
X132985903Y-79005082D01*
X132972043Y-79010041D01*
X132957764Y-79013618D01*
X132943203Y-79015778D01*
X132928500Y-79016500D01*
X132628500Y-79016500D01*
X132613797Y-79015778D01*
X132599236Y-79013618D01*
X132584957Y-79010041D01*
X132571097Y-79005082D01*
X132557790Y-78998788D01*
X132545164Y-78991220D01*
X132533341Y-78982452D01*
X132522434Y-78972566D01*
X132512548Y-78961659D01*
X132503780Y-78949836D01*
X132496212Y-78937210D01*
X132489918Y-78923903D01*
X132484959Y-78910043D01*
X132481382Y-78895764D01*
X132479222Y-78881203D01*
X132478500Y-78866500D01*
X132478500Y-77216500D01*
X132479222Y-77201797D01*
X132481382Y-77187236D01*
X132484959Y-77172957D01*
X132489918Y-77159097D01*
X132496212Y-77145790D01*
X132503780Y-77133164D01*
X132512548Y-77121341D01*
X132522434Y-77110434D01*
X132533341Y-77100548D01*
X132545164Y-77091780D01*
X132557790Y-77084212D01*
X132571097Y-77077918D01*
X132584957Y-77072959D01*
X132599236Y-77069382D01*
X132613797Y-77067222D01*
X132628500Y-77066500D01*
X132928500Y-77066500D01*
X132943203Y-77067222D01*
G37*
G04 #@! TD.AperFunction*
G04 #@! TA.AperFunction,SMDPad,CuDef*
G36*
X134213203Y-77067222D02*
G01*
X134227764Y-77069382D01*
X134242043Y-77072959D01*
X134255903Y-77077918D01*
X134269210Y-77084212D01*
X134281836Y-77091780D01*
X134293659Y-77100548D01*
X134304566Y-77110434D01*
X134314452Y-77121341D01*
X134323220Y-77133164D01*
X134330788Y-77145790D01*
X134337082Y-77159097D01*
X134342041Y-77172957D01*
X134345618Y-77187236D01*
X134347778Y-77201797D01*
X134348500Y-77216500D01*
X134348500Y-78866500D01*
X134347778Y-78881203D01*
X134345618Y-78895764D01*
X134342041Y-78910043D01*
X134337082Y-78923903D01*
X134330788Y-78937210D01*
X134323220Y-78949836D01*
X134314452Y-78961659D01*
X134304566Y-78972566D01*
X134293659Y-78982452D01*
X134281836Y-78991220D01*
X134269210Y-78998788D01*
X134255903Y-79005082D01*
X134242043Y-79010041D01*
X134227764Y-79013618D01*
X134213203Y-79015778D01*
X134198500Y-79016500D01*
X133898500Y-79016500D01*
X133883797Y-79015778D01*
X133869236Y-79013618D01*
X133854957Y-79010041D01*
X133841097Y-79005082D01*
X133827790Y-78998788D01*
X133815164Y-78991220D01*
X133803341Y-78982452D01*
X133792434Y-78972566D01*
X133782548Y-78961659D01*
X133773780Y-78949836D01*
X133766212Y-78937210D01*
X133759918Y-78923903D01*
X133754959Y-78910043D01*
X133751382Y-78895764D01*
X133749222Y-78881203D01*
X133748500Y-78866500D01*
X133748500Y-77216500D01*
X133749222Y-77201797D01*
X133751382Y-77187236D01*
X133754959Y-77172957D01*
X133759918Y-77159097D01*
X133766212Y-77145790D01*
X133773780Y-77133164D01*
X133782548Y-77121341D01*
X133792434Y-77110434D01*
X133803341Y-77100548D01*
X133815164Y-77091780D01*
X133827790Y-77084212D01*
X133841097Y-77077918D01*
X133854957Y-77072959D01*
X133869236Y-77069382D01*
X133883797Y-77067222D01*
X133898500Y-77066500D01*
X134198500Y-77066500D01*
X134213203Y-77067222D01*
G37*
G04 #@! TD.AperFunction*
G04 #@! TA.AperFunction,SMDPad,CuDef*
G36*
X135483203Y-77067222D02*
G01*
X135497764Y-77069382D01*
X135512043Y-77072959D01*
X135525903Y-77077918D01*
X135539210Y-77084212D01*
X135551836Y-77091780D01*
X135563659Y-77100548D01*
X135574566Y-77110434D01*
X135584452Y-77121341D01*
X135593220Y-77133164D01*
X135600788Y-77145790D01*
X135607082Y-77159097D01*
X135612041Y-77172957D01*
X135615618Y-77187236D01*
X135617778Y-77201797D01*
X135618500Y-77216500D01*
X135618500Y-78866500D01*
X135617778Y-78881203D01*
X135615618Y-78895764D01*
X135612041Y-78910043D01*
X135607082Y-78923903D01*
X135600788Y-78937210D01*
X135593220Y-78949836D01*
X135584452Y-78961659D01*
X135574566Y-78972566D01*
X135563659Y-78982452D01*
X135551836Y-78991220D01*
X135539210Y-78998788D01*
X135525903Y-79005082D01*
X135512043Y-79010041D01*
X135497764Y-79013618D01*
X135483203Y-79015778D01*
X135468500Y-79016500D01*
X135168500Y-79016500D01*
X135153797Y-79015778D01*
X135139236Y-79013618D01*
X135124957Y-79010041D01*
X135111097Y-79005082D01*
X135097790Y-78998788D01*
X135085164Y-78991220D01*
X135073341Y-78982452D01*
X135062434Y-78972566D01*
X135052548Y-78961659D01*
X135043780Y-78949836D01*
X135036212Y-78937210D01*
X135029918Y-78923903D01*
X135024959Y-78910043D01*
X135021382Y-78895764D01*
X135019222Y-78881203D01*
X135018500Y-78866500D01*
X135018500Y-77216500D01*
X135019222Y-77201797D01*
X135021382Y-77187236D01*
X135024959Y-77172957D01*
X135029918Y-77159097D01*
X135036212Y-77145790D01*
X135043780Y-77133164D01*
X135052548Y-77121341D01*
X135062434Y-77110434D01*
X135073341Y-77100548D01*
X135085164Y-77091780D01*
X135097790Y-77084212D01*
X135111097Y-77077918D01*
X135124957Y-77072959D01*
X135139236Y-77069382D01*
X135153797Y-77067222D01*
X135168500Y-77066500D01*
X135468500Y-77066500D01*
X135483203Y-77067222D01*
G37*
G04 #@! TD.AperFunction*
G04 #@! TA.AperFunction,SMDPad,CuDef*
G36*
X136753203Y-77067222D02*
G01*
X136767764Y-77069382D01*
X136782043Y-77072959D01*
X136795903Y-77077918D01*
X136809210Y-77084212D01*
X136821836Y-77091780D01*
X136833659Y-77100548D01*
X136844566Y-77110434D01*
X136854452Y-77121341D01*
X136863220Y-77133164D01*
X136870788Y-77145790D01*
X136877082Y-77159097D01*
X136882041Y-77172957D01*
X136885618Y-77187236D01*
X136887778Y-77201797D01*
X136888500Y-77216500D01*
X136888500Y-78866500D01*
X136887778Y-78881203D01*
X136885618Y-78895764D01*
X136882041Y-78910043D01*
X136877082Y-78923903D01*
X136870788Y-78937210D01*
X136863220Y-78949836D01*
X136854452Y-78961659D01*
X136844566Y-78972566D01*
X136833659Y-78982452D01*
X136821836Y-78991220D01*
X136809210Y-78998788D01*
X136795903Y-79005082D01*
X136782043Y-79010041D01*
X136767764Y-79013618D01*
X136753203Y-79015778D01*
X136738500Y-79016500D01*
X136438500Y-79016500D01*
X136423797Y-79015778D01*
X136409236Y-79013618D01*
X136394957Y-79010041D01*
X136381097Y-79005082D01*
X136367790Y-78998788D01*
X136355164Y-78991220D01*
X136343341Y-78982452D01*
X136332434Y-78972566D01*
X136322548Y-78961659D01*
X136313780Y-78949836D01*
X136306212Y-78937210D01*
X136299918Y-78923903D01*
X136294959Y-78910043D01*
X136291382Y-78895764D01*
X136289222Y-78881203D01*
X136288500Y-78866500D01*
X136288500Y-77216500D01*
X136289222Y-77201797D01*
X136291382Y-77187236D01*
X136294959Y-77172957D01*
X136299918Y-77159097D01*
X136306212Y-77145790D01*
X136313780Y-77133164D01*
X136322548Y-77121341D01*
X136332434Y-77110434D01*
X136343341Y-77100548D01*
X136355164Y-77091780D01*
X136367790Y-77084212D01*
X136381097Y-77077918D01*
X136394957Y-77072959D01*
X136409236Y-77069382D01*
X136423797Y-77067222D01*
X136438500Y-77066500D01*
X136738500Y-77066500D01*
X136753203Y-77067222D01*
G37*
G04 #@! TD.AperFunction*
D11*
X146367500Y-75755500D03*
D12*
X146367500Y-83355500D03*
X146367500Y-68155500D03*
X120713500Y-83419000D03*
X120713500Y-68219000D03*
D11*
X120713500Y-75819000D03*
G04 #@! TA.AperFunction,SMDPad,CuDef*
D10*
G36*
X131099642Y-74316674D02*
G01*
X131123303Y-74320184D01*
X131146507Y-74325996D01*
X131169029Y-74334054D01*
X131190653Y-74344282D01*
X131211170Y-74356579D01*
X131230383Y-74370829D01*
X131248107Y-74386893D01*
X131264171Y-74404617D01*
X131278421Y-74423830D01*
X131290718Y-74444347D01*
X131300946Y-74465971D01*
X131309004Y-74488493D01*
X131314816Y-74511697D01*
X131318326Y-74535358D01*
X131319500Y-74559250D01*
X131319500Y-75046750D01*
X131318326Y-75070642D01*
X131314816Y-75094303D01*
X131309004Y-75117507D01*
X131300946Y-75140029D01*
X131290718Y-75161653D01*
X131278421Y-75182170D01*
X131264171Y-75201383D01*
X131248107Y-75219107D01*
X131230383Y-75235171D01*
X131211170Y-75249421D01*
X131190653Y-75261718D01*
X131169029Y-75271946D01*
X131146507Y-75280004D01*
X131123303Y-75285816D01*
X131099642Y-75289326D01*
X131075750Y-75290500D01*
X130163250Y-75290500D01*
X130139358Y-75289326D01*
X130115697Y-75285816D01*
X130092493Y-75280004D01*
X130069971Y-75271946D01*
X130048347Y-75261718D01*
X130027830Y-75249421D01*
X130008617Y-75235171D01*
X129990893Y-75219107D01*
X129974829Y-75201383D01*
X129960579Y-75182170D01*
X129948282Y-75161653D01*
X129938054Y-75140029D01*
X129929996Y-75117507D01*
X129924184Y-75094303D01*
X129920674Y-75070642D01*
X129919500Y-75046750D01*
X129919500Y-74559250D01*
X129920674Y-74535358D01*
X129924184Y-74511697D01*
X129929996Y-74488493D01*
X129938054Y-74465971D01*
X129948282Y-74444347D01*
X129960579Y-74423830D01*
X129974829Y-74404617D01*
X129990893Y-74386893D01*
X130008617Y-74370829D01*
X130027830Y-74356579D01*
X130048347Y-74344282D01*
X130069971Y-74334054D01*
X130092493Y-74325996D01*
X130115697Y-74320184D01*
X130139358Y-74316674D01*
X130163250Y-74315500D01*
X131075750Y-74315500D01*
X131099642Y-74316674D01*
G37*
G04 #@! TD.AperFunction*
G04 #@! TA.AperFunction,SMDPad,CuDef*
G36*
X131099642Y-72441674D02*
G01*
X131123303Y-72445184D01*
X131146507Y-72450996D01*
X131169029Y-72459054D01*
X131190653Y-72469282D01*
X131211170Y-72481579D01*
X131230383Y-72495829D01*
X131248107Y-72511893D01*
X131264171Y-72529617D01*
X131278421Y-72548830D01*
X131290718Y-72569347D01*
X131300946Y-72590971D01*
X131309004Y-72613493D01*
X131314816Y-72636697D01*
X131318326Y-72660358D01*
X131319500Y-72684250D01*
X131319500Y-73171750D01*
X131318326Y-73195642D01*
X131314816Y-73219303D01*
X131309004Y-73242507D01*
X131300946Y-73265029D01*
X131290718Y-73286653D01*
X131278421Y-73307170D01*
X131264171Y-73326383D01*
X131248107Y-73344107D01*
X131230383Y-73360171D01*
X131211170Y-73374421D01*
X131190653Y-73386718D01*
X131169029Y-73396946D01*
X131146507Y-73405004D01*
X131123303Y-73410816D01*
X131099642Y-73414326D01*
X131075750Y-73415500D01*
X130163250Y-73415500D01*
X130139358Y-73414326D01*
X130115697Y-73410816D01*
X130092493Y-73405004D01*
X130069971Y-73396946D01*
X130048347Y-73386718D01*
X130027830Y-73374421D01*
X130008617Y-73360171D01*
X129990893Y-73344107D01*
X129974829Y-73326383D01*
X129960579Y-73307170D01*
X129948282Y-73286653D01*
X129938054Y-73265029D01*
X129929996Y-73242507D01*
X129924184Y-73219303D01*
X129920674Y-73195642D01*
X129919500Y-73171750D01*
X129919500Y-72684250D01*
X129920674Y-72660358D01*
X129924184Y-72636697D01*
X129929996Y-72613493D01*
X129938054Y-72590971D01*
X129948282Y-72569347D01*
X129960579Y-72548830D01*
X129974829Y-72529617D01*
X129990893Y-72511893D01*
X130008617Y-72495829D01*
X130027830Y-72481579D01*
X130048347Y-72469282D01*
X130069971Y-72459054D01*
X130092493Y-72450996D01*
X130115697Y-72445184D01*
X130139358Y-72441674D01*
X130163250Y-72440500D01*
X131075750Y-72440500D01*
X131099642Y-72441674D01*
G37*
G04 #@! TD.AperFunction*
G04 #@! TA.AperFunction,SMDPad,CuDef*
G36*
X131099642Y-76094674D02*
G01*
X131123303Y-76098184D01*
X131146507Y-76103996D01*
X131169029Y-76112054D01*
X131190653Y-76122282D01*
X131211170Y-76134579D01*
X131230383Y-76148829D01*
X131248107Y-76164893D01*
X131264171Y-76182617D01*
X131278421Y-76201830D01*
X131290718Y-76222347D01*
X131300946Y-76243971D01*
X131309004Y-76266493D01*
X131314816Y-76289697D01*
X131318326Y-76313358D01*
X131319500Y-76337250D01*
X131319500Y-76824750D01*
X131318326Y-76848642D01*
X131314816Y-76872303D01*
X131309004Y-76895507D01*
X131300946Y-76918029D01*
X131290718Y-76939653D01*
X131278421Y-76960170D01*
X131264171Y-76979383D01*
X131248107Y-76997107D01*
X131230383Y-77013171D01*
X131211170Y-77027421D01*
X131190653Y-77039718D01*
X131169029Y-77049946D01*
X131146507Y-77058004D01*
X131123303Y-77063816D01*
X131099642Y-77067326D01*
X131075750Y-77068500D01*
X130163250Y-77068500D01*
X130139358Y-77067326D01*
X130115697Y-77063816D01*
X130092493Y-77058004D01*
X130069971Y-77049946D01*
X130048347Y-77039718D01*
X130027830Y-77027421D01*
X130008617Y-77013171D01*
X129990893Y-76997107D01*
X129974829Y-76979383D01*
X129960579Y-76960170D01*
X129948282Y-76939653D01*
X129938054Y-76918029D01*
X129929996Y-76895507D01*
X129924184Y-76872303D01*
X129920674Y-76848642D01*
X129919500Y-76824750D01*
X129919500Y-76337250D01*
X129920674Y-76313358D01*
X129924184Y-76289697D01*
X129929996Y-76266493D01*
X129938054Y-76243971D01*
X129948282Y-76222347D01*
X129960579Y-76201830D01*
X129974829Y-76182617D01*
X129990893Y-76164893D01*
X130008617Y-76148829D01*
X130027830Y-76134579D01*
X130048347Y-76122282D01*
X130069971Y-76112054D01*
X130092493Y-76103996D01*
X130115697Y-76098184D01*
X130139358Y-76094674D01*
X130163250Y-76093500D01*
X131075750Y-76093500D01*
X131099642Y-76094674D01*
G37*
G04 #@! TD.AperFunction*
G04 #@! TA.AperFunction,SMDPad,CuDef*
G36*
X131099642Y-77969674D02*
G01*
X131123303Y-77973184D01*
X131146507Y-77978996D01*
X131169029Y-77987054D01*
X131190653Y-77997282D01*
X131211170Y-78009579D01*
X131230383Y-78023829D01*
X131248107Y-78039893D01*
X131264171Y-78057617D01*
X131278421Y-78076830D01*
X131290718Y-78097347D01*
X131300946Y-78118971D01*
X131309004Y-78141493D01*
X131314816Y-78164697D01*
X131318326Y-78188358D01*
X131319500Y-78212250D01*
X131319500Y-78699750D01*
X131318326Y-78723642D01*
X131314816Y-78747303D01*
X131309004Y-78770507D01*
X131300946Y-78793029D01*
X131290718Y-78814653D01*
X131278421Y-78835170D01*
X131264171Y-78854383D01*
X131248107Y-78872107D01*
X131230383Y-78888171D01*
X131211170Y-78902421D01*
X131190653Y-78914718D01*
X131169029Y-78924946D01*
X131146507Y-78933004D01*
X131123303Y-78938816D01*
X131099642Y-78942326D01*
X131075750Y-78943500D01*
X130163250Y-78943500D01*
X130139358Y-78942326D01*
X130115697Y-78938816D01*
X130092493Y-78933004D01*
X130069971Y-78924946D01*
X130048347Y-78914718D01*
X130027830Y-78902421D01*
X130008617Y-78888171D01*
X129990893Y-78872107D01*
X129974829Y-78854383D01*
X129960579Y-78835170D01*
X129948282Y-78814653D01*
X129938054Y-78793029D01*
X129929996Y-78770507D01*
X129924184Y-78747303D01*
X129920674Y-78723642D01*
X129919500Y-78699750D01*
X129919500Y-78212250D01*
X129920674Y-78188358D01*
X129924184Y-78164697D01*
X129929996Y-78141493D01*
X129938054Y-78118971D01*
X129948282Y-78097347D01*
X129960579Y-78076830D01*
X129974829Y-78057617D01*
X129990893Y-78039893D01*
X130008617Y-78023829D01*
X130027830Y-78009579D01*
X130048347Y-77997282D01*
X130069971Y-77987054D01*
X130092493Y-77978996D01*
X130115697Y-77973184D01*
X130139358Y-77969674D01*
X130163250Y-77968500D01*
X131075750Y-77968500D01*
X131099642Y-77969674D01*
G37*
G04 #@! TD.AperFunction*
G04 #@! TA.AperFunction,SMDPad,CuDef*
G36*
X136030642Y-68452674D02*
G01*
X136054303Y-68456184D01*
X136077507Y-68461996D01*
X136100029Y-68470054D01*
X136121653Y-68480282D01*
X136142170Y-68492579D01*
X136161383Y-68506829D01*
X136179107Y-68522893D01*
X136195171Y-68540617D01*
X136209421Y-68559830D01*
X136221718Y-68580347D01*
X136231946Y-68601971D01*
X136240004Y-68624493D01*
X136245816Y-68647697D01*
X136249326Y-68671358D01*
X136250500Y-68695250D01*
X136250500Y-69607750D01*
X136249326Y-69631642D01*
X136245816Y-69655303D01*
X136240004Y-69678507D01*
X136231946Y-69701029D01*
X136221718Y-69722653D01*
X136209421Y-69743170D01*
X136195171Y-69762383D01*
X136179107Y-69780107D01*
X136161383Y-69796171D01*
X136142170Y-69810421D01*
X136121653Y-69822718D01*
X136100029Y-69832946D01*
X136077507Y-69841004D01*
X136054303Y-69846816D01*
X136030642Y-69850326D01*
X136006750Y-69851500D01*
X135519250Y-69851500D01*
X135495358Y-69850326D01*
X135471697Y-69846816D01*
X135448493Y-69841004D01*
X135425971Y-69832946D01*
X135404347Y-69822718D01*
X135383830Y-69810421D01*
X135364617Y-69796171D01*
X135346893Y-69780107D01*
X135330829Y-69762383D01*
X135316579Y-69743170D01*
X135304282Y-69722653D01*
X135294054Y-69701029D01*
X135285996Y-69678507D01*
X135280184Y-69655303D01*
X135276674Y-69631642D01*
X135275500Y-69607750D01*
X135275500Y-68695250D01*
X135276674Y-68671358D01*
X135280184Y-68647697D01*
X135285996Y-68624493D01*
X135294054Y-68601971D01*
X135304282Y-68580347D01*
X135316579Y-68559830D01*
X135330829Y-68540617D01*
X135346893Y-68522893D01*
X135364617Y-68506829D01*
X135383830Y-68492579D01*
X135404347Y-68480282D01*
X135425971Y-68470054D01*
X135448493Y-68461996D01*
X135471697Y-68456184D01*
X135495358Y-68452674D01*
X135519250Y-68451500D01*
X136006750Y-68451500D01*
X136030642Y-68452674D01*
G37*
G04 #@! TD.AperFunction*
G04 #@! TA.AperFunction,SMDPad,CuDef*
G36*
X134155642Y-68452674D02*
G01*
X134179303Y-68456184D01*
X134202507Y-68461996D01*
X134225029Y-68470054D01*
X134246653Y-68480282D01*
X134267170Y-68492579D01*
X134286383Y-68506829D01*
X134304107Y-68522893D01*
X134320171Y-68540617D01*
X134334421Y-68559830D01*
X134346718Y-68580347D01*
X134356946Y-68601971D01*
X134365004Y-68624493D01*
X134370816Y-68647697D01*
X134374326Y-68671358D01*
X134375500Y-68695250D01*
X134375500Y-69607750D01*
X134374326Y-69631642D01*
X134370816Y-69655303D01*
X134365004Y-69678507D01*
X134356946Y-69701029D01*
X134346718Y-69722653D01*
X134334421Y-69743170D01*
X134320171Y-69762383D01*
X134304107Y-69780107D01*
X134286383Y-69796171D01*
X134267170Y-69810421D01*
X134246653Y-69822718D01*
X134225029Y-69832946D01*
X134202507Y-69841004D01*
X134179303Y-69846816D01*
X134155642Y-69850326D01*
X134131750Y-69851500D01*
X133644250Y-69851500D01*
X133620358Y-69850326D01*
X133596697Y-69846816D01*
X133573493Y-69841004D01*
X133550971Y-69832946D01*
X133529347Y-69822718D01*
X133508830Y-69810421D01*
X133489617Y-69796171D01*
X133471893Y-69780107D01*
X133455829Y-69762383D01*
X133441579Y-69743170D01*
X133429282Y-69722653D01*
X133419054Y-69701029D01*
X133410996Y-69678507D01*
X133405184Y-69655303D01*
X133401674Y-69631642D01*
X133400500Y-69607750D01*
X133400500Y-68695250D01*
X133401674Y-68671358D01*
X133405184Y-68647697D01*
X133410996Y-68624493D01*
X133419054Y-68601971D01*
X133429282Y-68580347D01*
X133441579Y-68559830D01*
X133455829Y-68540617D01*
X133471893Y-68522893D01*
X133489617Y-68506829D01*
X133508830Y-68492579D01*
X133529347Y-68480282D01*
X133550971Y-68470054D01*
X133573493Y-68461996D01*
X133596697Y-68456184D01*
X133620358Y-68452674D01*
X133644250Y-68451500D01*
X134131750Y-68451500D01*
X134155642Y-68452674D01*
G37*
G04 #@! TD.AperFunction*
G04 #@! TA.AperFunction,SMDPad,CuDef*
G36*
X135298642Y-80644674D02*
G01*
X135322303Y-80648184D01*
X135345507Y-80653996D01*
X135368029Y-80662054D01*
X135389653Y-80672282D01*
X135410170Y-80684579D01*
X135429383Y-80698829D01*
X135447107Y-80714893D01*
X135463171Y-80732617D01*
X135477421Y-80751830D01*
X135489718Y-80772347D01*
X135499946Y-80793971D01*
X135508004Y-80816493D01*
X135513816Y-80839697D01*
X135517326Y-80863358D01*
X135518500Y-80887250D01*
X135518500Y-81799750D01*
X135517326Y-81823642D01*
X135513816Y-81847303D01*
X135508004Y-81870507D01*
X135499946Y-81893029D01*
X135489718Y-81914653D01*
X135477421Y-81935170D01*
X135463171Y-81954383D01*
X135447107Y-81972107D01*
X135429383Y-81988171D01*
X135410170Y-82002421D01*
X135389653Y-82014718D01*
X135368029Y-82024946D01*
X135345507Y-82033004D01*
X135322303Y-82038816D01*
X135298642Y-82042326D01*
X135274750Y-82043500D01*
X134787250Y-82043500D01*
X134763358Y-82042326D01*
X134739697Y-82038816D01*
X134716493Y-82033004D01*
X134693971Y-82024946D01*
X134672347Y-82014718D01*
X134651830Y-82002421D01*
X134632617Y-81988171D01*
X134614893Y-81972107D01*
X134598829Y-81954383D01*
X134584579Y-81935170D01*
X134572282Y-81914653D01*
X134562054Y-81893029D01*
X134553996Y-81870507D01*
X134548184Y-81847303D01*
X134544674Y-81823642D01*
X134543500Y-81799750D01*
X134543500Y-80887250D01*
X134544674Y-80863358D01*
X134548184Y-80839697D01*
X134553996Y-80816493D01*
X134562054Y-80793971D01*
X134572282Y-80772347D01*
X134584579Y-80751830D01*
X134598829Y-80732617D01*
X134614893Y-80714893D01*
X134632617Y-80698829D01*
X134651830Y-80684579D01*
X134672347Y-80672282D01*
X134693971Y-80662054D01*
X134716493Y-80653996D01*
X134739697Y-80648184D01*
X134763358Y-80644674D01*
X134787250Y-80643500D01*
X135274750Y-80643500D01*
X135298642Y-80644674D01*
G37*
G04 #@! TD.AperFunction*
G04 #@! TA.AperFunction,SMDPad,CuDef*
G36*
X137173642Y-80644674D02*
G01*
X137197303Y-80648184D01*
X137220507Y-80653996D01*
X137243029Y-80662054D01*
X137264653Y-80672282D01*
X137285170Y-80684579D01*
X137304383Y-80698829D01*
X137322107Y-80714893D01*
X137338171Y-80732617D01*
X137352421Y-80751830D01*
X137364718Y-80772347D01*
X137374946Y-80793971D01*
X137383004Y-80816493D01*
X137388816Y-80839697D01*
X137392326Y-80863358D01*
X137393500Y-80887250D01*
X137393500Y-81799750D01*
X137392326Y-81823642D01*
X137388816Y-81847303D01*
X137383004Y-81870507D01*
X137374946Y-81893029D01*
X137364718Y-81914653D01*
X137352421Y-81935170D01*
X137338171Y-81954383D01*
X137322107Y-81972107D01*
X137304383Y-81988171D01*
X137285170Y-82002421D01*
X137264653Y-82014718D01*
X137243029Y-82024946D01*
X137220507Y-82033004D01*
X137197303Y-82038816D01*
X137173642Y-82042326D01*
X137149750Y-82043500D01*
X136662250Y-82043500D01*
X136638358Y-82042326D01*
X136614697Y-82038816D01*
X136591493Y-82033004D01*
X136568971Y-82024946D01*
X136547347Y-82014718D01*
X136526830Y-82002421D01*
X136507617Y-81988171D01*
X136489893Y-81972107D01*
X136473829Y-81954383D01*
X136459579Y-81935170D01*
X136447282Y-81914653D01*
X136437054Y-81893029D01*
X136428996Y-81870507D01*
X136423184Y-81847303D01*
X136419674Y-81823642D01*
X136418500Y-81799750D01*
X136418500Y-80887250D01*
X136419674Y-80863358D01*
X136423184Y-80839697D01*
X136428996Y-80816493D01*
X136437054Y-80793971D01*
X136447282Y-80772347D01*
X136459579Y-80751830D01*
X136473829Y-80732617D01*
X136489893Y-80714893D01*
X136507617Y-80698829D01*
X136526830Y-80684579D01*
X136547347Y-80672282D01*
X136568971Y-80662054D01*
X136591493Y-80653996D01*
X136614697Y-80648184D01*
X136638358Y-80644674D01*
X136662250Y-80643500D01*
X137149750Y-80643500D01*
X137173642Y-80644674D01*
G37*
G04 #@! TD.AperFunction*
G04 #@! TA.AperFunction,SMDPad,CuDef*
G36*
X131776142Y-80644674D02*
G01*
X131799803Y-80648184D01*
X131823007Y-80653996D01*
X131845529Y-80662054D01*
X131867153Y-80672282D01*
X131887670Y-80684579D01*
X131906883Y-80698829D01*
X131924607Y-80714893D01*
X131940671Y-80732617D01*
X131954921Y-80751830D01*
X131967218Y-80772347D01*
X131977446Y-80793971D01*
X131985504Y-80816493D01*
X131991316Y-80839697D01*
X131994826Y-80863358D01*
X131996000Y-80887250D01*
X131996000Y-81799750D01*
X131994826Y-81823642D01*
X131991316Y-81847303D01*
X131985504Y-81870507D01*
X131977446Y-81893029D01*
X131967218Y-81914653D01*
X131954921Y-81935170D01*
X131940671Y-81954383D01*
X131924607Y-81972107D01*
X131906883Y-81988171D01*
X131887670Y-82002421D01*
X131867153Y-82014718D01*
X131845529Y-82024946D01*
X131823007Y-82033004D01*
X131799803Y-82038816D01*
X131776142Y-82042326D01*
X131752250Y-82043500D01*
X131264750Y-82043500D01*
X131240858Y-82042326D01*
X131217197Y-82038816D01*
X131193993Y-82033004D01*
X131171471Y-82024946D01*
X131149847Y-82014718D01*
X131129330Y-82002421D01*
X131110117Y-81988171D01*
X131092393Y-81972107D01*
X131076329Y-81954383D01*
X131062079Y-81935170D01*
X131049782Y-81914653D01*
X131039554Y-81893029D01*
X131031496Y-81870507D01*
X131025684Y-81847303D01*
X131022174Y-81823642D01*
X131021000Y-81799750D01*
X131021000Y-80887250D01*
X131022174Y-80863358D01*
X131025684Y-80839697D01*
X131031496Y-80816493D01*
X131039554Y-80793971D01*
X131049782Y-80772347D01*
X131062079Y-80751830D01*
X131076329Y-80732617D01*
X131092393Y-80714893D01*
X131110117Y-80698829D01*
X131129330Y-80684579D01*
X131149847Y-80672282D01*
X131171471Y-80662054D01*
X131193993Y-80653996D01*
X131217197Y-80648184D01*
X131240858Y-80644674D01*
X131264750Y-80643500D01*
X131752250Y-80643500D01*
X131776142Y-80644674D01*
G37*
G04 #@! TD.AperFunction*
G04 #@! TA.AperFunction,SMDPad,CuDef*
G36*
X129901142Y-80644674D02*
G01*
X129924803Y-80648184D01*
X129948007Y-80653996D01*
X129970529Y-80662054D01*
X129992153Y-80672282D01*
X130012670Y-80684579D01*
X130031883Y-80698829D01*
X130049607Y-80714893D01*
X130065671Y-80732617D01*
X130079921Y-80751830D01*
X130092218Y-80772347D01*
X130102446Y-80793971D01*
X130110504Y-80816493D01*
X130116316Y-80839697D01*
X130119826Y-80863358D01*
X130121000Y-80887250D01*
X130121000Y-81799750D01*
X130119826Y-81823642D01*
X130116316Y-81847303D01*
X130110504Y-81870507D01*
X130102446Y-81893029D01*
X130092218Y-81914653D01*
X130079921Y-81935170D01*
X130065671Y-81954383D01*
X130049607Y-81972107D01*
X130031883Y-81988171D01*
X130012670Y-82002421D01*
X129992153Y-82014718D01*
X129970529Y-82024946D01*
X129948007Y-82033004D01*
X129924803Y-82038816D01*
X129901142Y-82042326D01*
X129877250Y-82043500D01*
X129389750Y-82043500D01*
X129365858Y-82042326D01*
X129342197Y-82038816D01*
X129318993Y-82033004D01*
X129296471Y-82024946D01*
X129274847Y-82014718D01*
X129254330Y-82002421D01*
X129235117Y-81988171D01*
X129217393Y-81972107D01*
X129201329Y-81954383D01*
X129187079Y-81935170D01*
X129174782Y-81914653D01*
X129164554Y-81893029D01*
X129156496Y-81870507D01*
X129150684Y-81847303D01*
X129147174Y-81823642D01*
X129146000Y-81799750D01*
X129146000Y-80887250D01*
X129147174Y-80863358D01*
X129150684Y-80839697D01*
X129156496Y-80816493D01*
X129164554Y-80793971D01*
X129174782Y-80772347D01*
X129187079Y-80751830D01*
X129201329Y-80732617D01*
X129217393Y-80714893D01*
X129235117Y-80698829D01*
X129254330Y-80684579D01*
X129274847Y-80672282D01*
X129296471Y-80662054D01*
X129318993Y-80653996D01*
X129342197Y-80648184D01*
X129365858Y-80644674D01*
X129389750Y-80643500D01*
X129877250Y-80643500D01*
X129901142Y-80644674D01*
G37*
G04 #@! TD.AperFunction*
D13*
X136288500Y-80726000D02*
X136420473Y-80857973D01*
X136288500Y-78341500D02*
X136288500Y-80726000D01*
X136420473Y-80857973D02*
X136906000Y-81343500D01*
X136588500Y-78041500D02*
X136288500Y-78341500D01*
X135963490Y-77416490D02*
X136288500Y-77741500D01*
X135963490Y-72089722D02*
X135963490Y-77416490D01*
X136288500Y-77741500D02*
X136588500Y-78041500D01*
X134673510Y-72089722D02*
X134971742Y-71791490D01*
X135665258Y-71791490D02*
X135963490Y-72089722D01*
X134395258Y-74391510D02*
X134673510Y-74113258D01*
X134971742Y-71791490D02*
X135665258Y-71791490D01*
X134673510Y-74113258D02*
X134673510Y-72089722D01*
X133103510Y-74391510D02*
X134395258Y-74391510D01*
X132778500Y-74066500D02*
X133103510Y-74391510D01*
X132778500Y-73091500D02*
X132778500Y-74066500D01*
X117913500Y-83419000D02*
X120713500Y-83419000D01*
X115288499Y-80793999D02*
X117913500Y-83419000D01*
X115288499Y-70844001D02*
X115288499Y-80793999D01*
X117913500Y-68219000D02*
X115288499Y-70844001D01*
X120713500Y-68219000D02*
X117913500Y-68219000D01*
X129154160Y-82368510D02*
X135880990Y-82368510D01*
X136420473Y-81829027D02*
X136906000Y-81343500D01*
X128820990Y-82035340D02*
X129154160Y-82368510D01*
X128820990Y-75026490D02*
X128820990Y-82035340D01*
X122013500Y-68219000D02*
X128820990Y-75026490D01*
X135880990Y-82368510D02*
X136420473Y-81829027D01*
X120713500Y-68219000D02*
X122013500Y-68219000D01*
X128313500Y-83419000D02*
X144970500Y-83419000D01*
X120713500Y-75819000D02*
X128313500Y-83419000D01*
X149167500Y-83355500D02*
X146367500Y-83355500D01*
X151792501Y-80730499D02*
X149167500Y-83355500D01*
X151792501Y-70780501D02*
X151792501Y-80730499D01*
X149167500Y-68155500D02*
X151792501Y-70780501D01*
X146367500Y-68155500D02*
X149167500Y-68155500D01*
X136588500Y-72116500D02*
X136588500Y-73091500D01*
X136588500Y-70677000D02*
X136588500Y-72116500D01*
X135763000Y-69851500D02*
X136588500Y-70677000D01*
X135763000Y-69151500D02*
X135763000Y-69851500D01*
X130619500Y-76581000D02*
X130619500Y-74803000D01*
X135277473Y-68665973D02*
X135763000Y-69151500D01*
X133408660Y-68126490D02*
X134737990Y-68126490D01*
X129594490Y-71940660D02*
X133408660Y-68126490D01*
X129594490Y-73777990D02*
X129594490Y-71940660D01*
X134737990Y-68126490D02*
X135277473Y-68665973D01*
X130619500Y-74803000D02*
X129594490Y-73777990D01*
X143703500Y-73091500D02*
X146367500Y-75755500D01*
X136588500Y-73091500D02*
X143703500Y-73091500D01*
X132778500Y-75087000D02*
X132778500Y-78041500D01*
X130619500Y-72928000D02*
X132778500Y-75087000D01*
X130619500Y-80357500D02*
X130619500Y-78456000D01*
X129633500Y-81343500D02*
X130619500Y-80357500D01*
X134048500Y-79016500D02*
X134048500Y-78041500D01*
X133723490Y-79341510D02*
X134048500Y-79016500D01*
X131505010Y-79341510D02*
X133723490Y-79341510D01*
X130619500Y-78456000D02*
X131505010Y-79341510D01*
X135318500Y-75796500D02*
X135318500Y-74066500D01*
X135318500Y-74066500D02*
X135318500Y-73091500D01*
X134048500Y-77066500D02*
X135318500Y-75796500D01*
X134048500Y-78041500D02*
X134048500Y-77066500D01*
X133888000Y-69151500D02*
X133888000Y-73312500D01*
X134048500Y-73152000D02*
X134048500Y-73091500D01*
X133888000Y-73312500D02*
X134048500Y-73152000D01*
X131508500Y-81343500D02*
X135031000Y-81343500D01*
X135031000Y-78329000D02*
X135318500Y-78041500D01*
X135031000Y-81343500D02*
X135031000Y-78329000D01*
M02*
