G04 #@! TF.GenerationSoftware,KiCad,Pcbnew,(5.1.5)-3*
G04 #@! TF.CreationDate,2021-08-24T20:05:06-07:00*
G04 #@! TF.ProjectId,Intro_Project,496e7472-6f5f-4507-926f-6a6563742e6b,rev?*
G04 #@! TF.SameCoordinates,Original*
G04 #@! TF.FileFunction,Legend,Bot*
G04 #@! TF.FilePolarity,Positive*
%FSLAX46Y46*%
G04 Gerber Fmt 4.6, Leading zero omitted, Abs format (unit mm)*
G04 Created by KiCad (PCBNEW (5.1.5)-3) date 2021-08-24 20:05:06*
%MOMM*%
%LPD*%
G04 APERTURE LIST*
%ADD10C,0.150000*%
G04 APERTURE END LIST*
D10*
X149262714Y-67778261D02*
X149119857Y-67825880D01*
X148881761Y-67825880D01*
X148786523Y-67778261D01*
X148738904Y-67730642D01*
X148691285Y-67635404D01*
X148691285Y-67540166D01*
X148738904Y-67444928D01*
X148786523Y-67397309D01*
X148881761Y-67349690D01*
X149072238Y-67302071D01*
X149167476Y-67254452D01*
X149215095Y-67206833D01*
X149262714Y-67111595D01*
X149262714Y-67016357D01*
X149215095Y-66921119D01*
X149167476Y-66873500D01*
X149072238Y-66825880D01*
X148834142Y-66825880D01*
X148691285Y-66873500D01*
X148262714Y-67825880D02*
X148262714Y-66825880D01*
X148024619Y-66825880D01*
X147881761Y-66873500D01*
X147786523Y-66968738D01*
X147738904Y-67063976D01*
X147691285Y-67254452D01*
X147691285Y-67397309D01*
X147738904Y-67587785D01*
X147786523Y-67683023D01*
X147881761Y-67778261D01*
X148024619Y-67825880D01*
X148262714Y-67825880D01*
X147310333Y-67778261D02*
X147167476Y-67825880D01*
X146929380Y-67825880D01*
X146834142Y-67778261D01*
X146786523Y-67730642D01*
X146738904Y-67635404D01*
X146738904Y-67540166D01*
X146786523Y-67444928D01*
X146834142Y-67397309D01*
X146929380Y-67349690D01*
X147119857Y-67302071D01*
X147215095Y-67254452D01*
X147262714Y-67206833D01*
X147310333Y-67111595D01*
X147310333Y-67016357D01*
X147262714Y-66921119D01*
X147215095Y-66873500D01*
X147119857Y-66825880D01*
X146881761Y-66825880D01*
X146738904Y-66873500D01*
X146310333Y-66825880D02*
X146310333Y-67635404D01*
X146262714Y-67730642D01*
X146215095Y-67778261D01*
X146119857Y-67825880D01*
X145929380Y-67825880D01*
X145834142Y-67778261D01*
X145786523Y-67730642D01*
X145738904Y-67635404D01*
X145738904Y-66825880D01*
X143929380Y-67825880D02*
X144262714Y-67349690D01*
X144500809Y-67825880D02*
X144500809Y-66825880D01*
X144119857Y-66825880D01*
X144024619Y-66873500D01*
X143977000Y-66921119D01*
X143929380Y-67016357D01*
X143929380Y-67159214D01*
X143977000Y-67254452D01*
X144024619Y-67302071D01*
X144119857Y-67349690D01*
X144500809Y-67349690D01*
X143500809Y-67825880D02*
X143500809Y-66825880D01*
X143119857Y-66825880D01*
X143024619Y-66873500D01*
X142977000Y-66921119D01*
X142929380Y-67016357D01*
X142929380Y-67159214D01*
X142977000Y-67254452D01*
X143024619Y-67302071D01*
X143119857Y-67349690D01*
X143500809Y-67349690D01*
X141786523Y-67540166D02*
X141310333Y-67540166D01*
X141881761Y-67825880D02*
X141548428Y-66825880D01*
X141215095Y-67825880D01*
X140977000Y-67159214D02*
X140738904Y-67825880D01*
X140500809Y-67159214D01*
X140119857Y-67825880D02*
X140119857Y-67159214D01*
X140119857Y-66825880D02*
X140167476Y-66873500D01*
X140119857Y-66921119D01*
X140072238Y-66873500D01*
X140119857Y-66825880D01*
X140119857Y-66921119D01*
X139500809Y-67825880D02*
X139596047Y-67778261D01*
X139643666Y-67730642D01*
X139691285Y-67635404D01*
X139691285Y-67349690D01*
X139643666Y-67254452D01*
X139596047Y-67206833D01*
X139500809Y-67159214D01*
X139357952Y-67159214D01*
X139262714Y-67206833D01*
X139215095Y-67254452D01*
X139167476Y-67349690D01*
X139167476Y-67635404D01*
X139215095Y-67730642D01*
X139262714Y-67778261D01*
X139357952Y-67825880D01*
X139500809Y-67825880D01*
X138738904Y-67159214D02*
X138738904Y-67825880D01*
X138738904Y-67254452D02*
X138691285Y-67206833D01*
X138596047Y-67159214D01*
X138453190Y-67159214D01*
X138357952Y-67206833D01*
X138310333Y-67302071D01*
X138310333Y-67825880D01*
X137834142Y-67825880D02*
X137834142Y-67159214D01*
X137834142Y-66825880D02*
X137881761Y-66873500D01*
X137834142Y-66921119D01*
X137786523Y-66873500D01*
X137834142Y-66825880D01*
X137834142Y-66921119D01*
X136929380Y-67778261D02*
X137024619Y-67825880D01*
X137215095Y-67825880D01*
X137310333Y-67778261D01*
X137357952Y-67730642D01*
X137405571Y-67635404D01*
X137405571Y-67349690D01*
X137357952Y-67254452D01*
X137310333Y-67206833D01*
X137215095Y-67159214D01*
X137024619Y-67159214D01*
X136929380Y-67206833D01*
X136548428Y-67778261D02*
X136453190Y-67825880D01*
X136262714Y-67825880D01*
X136167476Y-67778261D01*
X136119857Y-67683023D01*
X136119857Y-67635404D01*
X136167476Y-67540166D01*
X136262714Y-67492547D01*
X136405571Y-67492547D01*
X136500809Y-67444928D01*
X136548428Y-67349690D01*
X136548428Y-67302071D01*
X136500809Y-67206833D01*
X136405571Y-67159214D01*
X136262714Y-67159214D01*
X136167476Y-67206833D01*
X134596047Y-67302071D02*
X134929380Y-67302071D01*
X134929380Y-67825880D02*
X134929380Y-66825880D01*
X134453190Y-66825880D01*
X133643666Y-67825880D02*
X133643666Y-67302071D01*
X133691285Y-67206833D01*
X133786523Y-67159214D01*
X133977000Y-67159214D01*
X134072238Y-67206833D01*
X133643666Y-67778261D02*
X133738904Y-67825880D01*
X133977000Y-67825880D01*
X134072238Y-67778261D01*
X134119857Y-67683023D01*
X134119857Y-67587785D01*
X134072238Y-67492547D01*
X133977000Y-67444928D01*
X133738904Y-67444928D01*
X133643666Y-67397309D01*
X133024619Y-67825880D02*
X133119857Y-67778261D01*
X133167476Y-67683023D01*
X133167476Y-66825880D01*
X132500809Y-67825880D02*
X132596047Y-67778261D01*
X132643666Y-67683023D01*
X132643666Y-66825880D01*
X131405571Y-66921119D02*
X131357952Y-66873500D01*
X131262714Y-66825880D01*
X131024619Y-66825880D01*
X130929380Y-66873500D01*
X130881761Y-66921119D01*
X130834142Y-67016357D01*
X130834142Y-67111595D01*
X130881761Y-67254452D01*
X131453190Y-67825880D01*
X130834142Y-67825880D01*
X130215095Y-66825880D02*
X130119857Y-66825880D01*
X130024619Y-66873500D01*
X129977000Y-66921119D01*
X129929380Y-67016357D01*
X129881761Y-67206833D01*
X129881761Y-67444928D01*
X129929380Y-67635404D01*
X129977000Y-67730642D01*
X130024619Y-67778261D01*
X130119857Y-67825880D01*
X130215095Y-67825880D01*
X130310333Y-67778261D01*
X130357952Y-67730642D01*
X130405571Y-67635404D01*
X130453190Y-67444928D01*
X130453190Y-67206833D01*
X130405571Y-67016357D01*
X130357952Y-66921119D01*
X130310333Y-66873500D01*
X130215095Y-66825880D01*
X129500809Y-66921119D02*
X129453190Y-66873500D01*
X129357952Y-66825880D01*
X129119857Y-66825880D01*
X129024619Y-66873500D01*
X128977000Y-66921119D01*
X128929380Y-67016357D01*
X128929380Y-67111595D01*
X128977000Y-67254452D01*
X129548428Y-67825880D01*
X128929380Y-67825880D01*
X127977000Y-67825880D02*
X128548428Y-67825880D01*
X128262714Y-67825880D02*
X128262714Y-66825880D01*
X128357952Y-66968738D01*
X128453190Y-67063976D01*
X128548428Y-67111595D01*
X126786523Y-67825880D02*
X126786523Y-66825880D01*
X126310333Y-67159214D02*
X126310333Y-67825880D01*
X126310333Y-67254452D02*
X126262714Y-67206833D01*
X126167476Y-67159214D01*
X126024619Y-67159214D01*
X125929380Y-67206833D01*
X125881761Y-67302071D01*
X125881761Y-67825880D01*
X125548428Y-67159214D02*
X125167476Y-67159214D01*
X125405571Y-66825880D02*
X125405571Y-67683023D01*
X125357952Y-67778261D01*
X125262714Y-67825880D01*
X125167476Y-67825880D01*
X124834142Y-67825880D02*
X124834142Y-67159214D01*
X124834142Y-67349690D02*
X124786523Y-67254452D01*
X124738904Y-67206833D01*
X124643666Y-67159214D01*
X124548428Y-67159214D01*
X124072238Y-67825880D02*
X124167476Y-67778261D01*
X124215095Y-67730642D01*
X124262714Y-67635404D01*
X124262714Y-67349690D01*
X124215095Y-67254452D01*
X124167476Y-67206833D01*
X124072238Y-67159214D01*
X123929380Y-67159214D01*
X123834142Y-67206833D01*
X123786523Y-67254452D01*
X123738904Y-67349690D01*
X123738904Y-67635404D01*
X123786523Y-67730642D01*
X123834142Y-67778261D01*
X123929380Y-67825880D01*
X124072238Y-67825880D01*
X122548428Y-67825880D02*
X122548428Y-66825880D01*
X122167476Y-66825880D01*
X122072238Y-66873500D01*
X122024619Y-66921119D01*
X121977000Y-67016357D01*
X121977000Y-67159214D01*
X122024619Y-67254452D01*
X122072238Y-67302071D01*
X122167476Y-67349690D01*
X122548428Y-67349690D01*
X121548428Y-67825880D02*
X121548428Y-67159214D01*
X121548428Y-67349690D02*
X121500809Y-67254452D01*
X121453190Y-67206833D01*
X121357952Y-67159214D01*
X121262714Y-67159214D01*
X120786523Y-67825880D02*
X120881761Y-67778261D01*
X120929380Y-67730642D01*
X120977000Y-67635404D01*
X120977000Y-67349690D01*
X120929380Y-67254452D01*
X120881761Y-67206833D01*
X120786523Y-67159214D01*
X120643666Y-67159214D01*
X120548428Y-67206833D01*
X120500809Y-67254452D01*
X120453190Y-67349690D01*
X120453190Y-67635404D01*
X120500809Y-67730642D01*
X120548428Y-67778261D01*
X120643666Y-67825880D01*
X120786523Y-67825880D01*
X120024619Y-67159214D02*
X120024619Y-68016357D01*
X120072238Y-68111595D01*
X120167476Y-68159214D01*
X120215095Y-68159214D01*
X120024619Y-66825880D02*
X120072238Y-66873500D01*
X120024619Y-66921119D01*
X119977000Y-66873500D01*
X120024619Y-66825880D01*
X120024619Y-66921119D01*
X119167476Y-67778261D02*
X119262714Y-67825880D01*
X119453190Y-67825880D01*
X119548428Y-67778261D01*
X119596047Y-67683023D01*
X119596047Y-67302071D01*
X119548428Y-67206833D01*
X119453190Y-67159214D01*
X119262714Y-67159214D01*
X119167476Y-67206833D01*
X119119857Y-67302071D01*
X119119857Y-67397309D01*
X119596047Y-67492547D01*
X118262714Y-67778261D02*
X118357952Y-67825880D01*
X118548428Y-67825880D01*
X118643666Y-67778261D01*
X118691285Y-67730642D01*
X118738904Y-67635404D01*
X118738904Y-67349690D01*
X118691285Y-67254452D01*
X118643666Y-67206833D01*
X118548428Y-67159214D01*
X118357952Y-67159214D01*
X118262714Y-67206833D01*
X117977000Y-67159214D02*
X117596047Y-67159214D01*
X117834142Y-66825880D02*
X117834142Y-67683023D01*
X117786523Y-67778261D01*
X117691285Y-67825880D01*
X117596047Y-67825880D01*
M02*
